<svg xmlns="http://www.w3.org/2000/svg" width="65" height="58.03" viewBox="0 0 65 58.03">
  <defs>
    <style>
      .cls-1 {
        fill: #f50;
        fill-rule: evenodd;
      }
    </style>
  </defs>
  <path id="Icon_" data-name="Icon " class="cls-1" d="M439.221,962.307a0.672,0.672,0,0,1,1.064-.093c1.406,1.4,2.806,2.8,4.169,4.243a0.669,0.669,0,0,1-.724,1.076c-1.155-.976-2.128-2.155-3.245-3.178q-0.024,27.128-.008,54.255c3.411,0.05,6.818,0,10.229.01,0-5.26-.008-10.52,0-15.78a6.633,6.633,0,0,1-4.84-10.225,6.5,6.5,0,0,1,7.2-2.7,6.613,6.613,0,0,1-1.024,12.889c-0.008,5.28.006,10.55-.008,15.83,5.937-.01,11.873,0,17.812,0q-0.016-12.705,0-25.4a6.635,6.635,0,0,1-4.739-10.371,6.5,6.5,0,0,1,7.187-2.544,6.6,6.6,0,0,1,4.541,5.247,6.669,6.669,0,0,1-2.237,6.138,7.009,7.009,0,0,1-3.421,1.507q0.012,12.708,0,25.422c6.116-.02,12.234.02,18.349-0.02-0.04-11.66,0-23.332-.021-35a6.637,6.637,0,0,1-5.333-9.315,6.479,6.479,0,0,1,10.66-1.8,6.725,6.725,0,0,1,1.315,6.938,6.633,6.633,0,0,1-5.282,4.158c-0.027,1.631-.008,3.268-0.019,4.9,0.115-.077.343-0.233,0.457-0.308a5.837,5.837,0,0,1,3.534-4.991,6.8,6.8,0,0,1,4.782.157,0.667,0.667,0,0,1,.344.835,6.354,6.354,0,0,1-3.709,5.056,6.7,6.7,0,0,1-4.932-.351l-0.059-.519c-0.144.171-.283,0.342-0.425,0.513,0.054,2.193-.008,4.389.014,6.586,0.112-.04.337-0.116,0.449-0.157a4.69,4.69,0,0,1,2.3-3.574,5.284,5.284,0,0,1,4.095-.174,0.663,0.663,0,0,1,.534.772,5.32,5.32,0,0,1-2.354,3.843,5.1,5.1,0,0,1-3.675.331c-0.391-.136-0.976-0.13-0.971-0.738-0.133.13-.264,0.264-0.393,0.4,0.043,1.958.016,3.92,0,5.88l0.425,0.51a4.655,4.655,0,0,1,2.766-4.2,5.535,5.535,0,0,1,3.606,0,0.713,0.713,0,0,1,.617.734,5.386,5.386,0,0,1-2.386,3.9,5.16,5.16,0,0,1-4.427.07,3.843,3.843,0,0,0-.569-0.69c-0.048,2.33,0,4.65-.024,6.98,0.112-.08.342-0.24,0.454-0.31a4.722,4.722,0,0,1,1.711-3.27,4.92,4.92,0,0,1,4.552-.61,0.809,0.809,0,0,1,.7.72,5.244,5.244,0,0,1-2.7,4.09,5.019,5.019,0,0,1-3.48.13c-0.388-.14-1.1-0.2-0.813-0.88-0.144.17-.283,0.34-0.425,0.51,0.032,2.97,0,5.93.011,8.9q4.237-.045,8.473.01a0.672,0.672,0,0,1,.227,1.3,14.087,14.087,0,0,1-1.591.05q-28.869-.015-57.737-0.01c-0.412.01-1.048,0.04-1.078-.54-0.058-1.4.016-2.81-.037-4.22-1.05-.02-2.1.05-3.151-0.03a0.69,0.69,0,0,1,.008-1.29c1.048-.1,2.1-0.03,3.154-0.03-0.011-.95.021-1.9-0.008-2.85-0.618-.06-1.241,0-1.858-0.06a0.683,0.683,0,0,1,.029-1.29,16.222,16.222,0,0,1,1.845-.03c0-.96-0.016-1.92-0.011-2.88-1.056,0-2.117.06-3.17-.04a0.682,0.682,0,0,1,.027-1.28c1.042-.09,2.093-0.02,3.138-0.03,0-.96.024-1.92,0-2.88-0.62,0-1.243.04-1.863-.02a0.685,0.685,0,0,1,.051-1.3,15.732,15.732,0,0,1,1.817-.02c-0.008-.97,0-1.926.008-2.887-1.066,0-2.138.062-3.2-.041a0.684,0.684,0,0,1,0-1.258c1.056-.138,2.128-0.018,3.191-0.066,0.008-.952.008-1.911,0-2.863-0.78-.071-2.456.4-2.3-0.9,0.473-.781,1.529-0.337,2.274-0.44,0.027-.963.043-1.924,0.008-2.886-1.047-.007-2.1.056-3.143-0.027a0.685,0.685,0,0,1-.024-1.282c1.058-.091,2.125-0.018,3.189-0.038,0-.959,0-1.915,0-2.875-0.759-.122-2.074.407-2.336-0.631,0.1-1.154,1.588-.588,2.331-0.726,0.016-.955,0-1.912-0.016-2.871-1.075-.03-2.157.083-3.224-0.049a0.7,0.7,0,0,1,.08-1.265c1.051-.09,2.109-0.019,3.162-0.032,0.008-5.247-.008-10.49.008-15.738-1.09,1.038-2.068,2.2-3.21,3.182a0.667,0.667,0,0,1-.737-1.08C436.508,965.021,437.9,963.7,439.221,962.307Zm49.765,9.612a5.235,5.235,0,0,0-3.681,3.2,5.318,5.318,0,0,0,1.024,5.452,5.1,5.1,0,0,0,5.987,1.164,5.273,5.273,0,0,0,2.74-6.214A5.19,5.19,0,0,0,488.986,971.919Zm-23.641,13.937c-0.556,2.9,1.93,6.042,4.851,5.926a2.511,2.511,0,0,1-.462-1.678c-0.618-.027-1.743.227-1.746-0.736,0.107-.833,1.077-0.6,1.655-0.634,0.657-.052,1.844.279,1.905-0.729-0.082-.857-1.034-0.648-1.619-0.713a2.054,2.054,0,0,1-1.788-2.81,2.308,2.308,0,0,1,1.59-1.333,3.161,3.161,0,0,1,.385-1.6C467.78,981.362,465.628,983.55,465.345,985.856Zm5.351-4.321a2.351,2.351,0,0,1,.433,1.628,8.166,8.166,0,0,1,1.379.082,0.7,0.7,0,0,1,.021,1.216c-0.925.189-1.884-.037-2.809,0.146a0.729,0.729,0,0,0-.059,1.243c0.679,0.217,1.452-.024,2.1.331a2.084,2.084,0,0,1,.815,2.915,2.566,2.566,0,0,1-1.449,1.035,2.679,2.679,0,0,1-.406,1.631c2.822,0.138,5.2-2.836,4.848-5.63C475.389,983.691,473.139,981.327,470.7,981.535Zm23.881,3.3a5.063,5.063,0,0,0-1.643,2.138c0.98-.525,1.9-1.162,2.881-1.685a0.668,0.668,0,0,1,.78,1.032c-0.927.711-2,1.2-2.948,1.875a4.846,4.846,0,0,0,2.881-.592,5.585,5.585,0,0,0,2.061-3.18A4.96,4.96,0,0,0,494.577,984.836Zm-44.59,6.349a5.252,5.252,0,0,0-3.79,5.827,5.142,5.142,0,0,0,10.108.469,5.319,5.319,0,0,0-1.619-5.161A5.164,5.164,0,0,0,449.987,991.185Zm43.12,2.953A19.468,19.468,0,0,1,495,993.075a0.666,0.666,0,0,1,.578,1.118c-0.543.431-1.179,0.724-1.719,1.16a3.3,3.3,0,0,0,2.98-2.624A3.1,3.1,0,0,0,493.107,994.138Zm-0.021,6.832c0.655-.34,1.251-0.8,1.935-1.083a0.714,0.714,0,0,1,.617,1.123c-0.612.45-1.293,0.78-1.913,1.22a3.963,3.963,0,0,0,1.855-.66,4.6,4.6,0,0,0,1.248-2.043A3.174,3.174,0,0,0,493.086,1000.97Zm-0.03,6.81c0.677-.32,1.281-0.78,1.978-1.07a0.69,0.69,0,0,1,.591,1.09c-0.588.49-1.294,0.81-1.914,1.25a3.367,3.367,0,0,0,3.111-2.71A3.28,3.28,0,0,0,493.056,1007.78Zm-3.624-34.254c0-.59-0.1-1.624.786-1.522,0.732,0.135.516,1.018,0.591,1.559,0.668-.027,1.94-0.17,1.726.9-0.617.892-1.908,0.276-2.82,0.479a0.7,0.7,0,0,0-.31,1.33c0.944,0.109,2.109-.043,2.727.871a2.166,2.166,0,0,1-1.337,3.375c-0.048.54,0.137,1.427-.6,1.528-0.882.1-.756-0.967-0.783-1.551-0.567-.067-1.27.179-1.692-0.318a0.777,0.777,0,0,1,.372-1.006c0.882-.107,1.772.022,2.657-0.077a0.719,0.719,0,0,0,0-1.338c-0.936-.083-2.1.052-2.673-0.891A2.154,2.154,0,0,1,489.432,973.526Zm-7.893,9.551a6,6,0,0,1,5.239.827,6.958,6.958,0,0,1,2.355,4.391,0.649,0.649,0,0,1-.524.821,6.789,6.789,0,0,1-5-.083,6.532,6.532,0,0,1-3.258-5.08C480.294,983.305,481.085,983.218,481.539,983.077Zm0.233,1.323a5.133,5.133,0,0,0,2.339,3.369,5.337,5.337,0,0,0,2.614.427c-0.96-.649-2.008-1.16-2.94-1.847a0.692,0.692,0,0,1,.569-1.141c1.048,0.485,1.98,1.19,3,1.731a4.356,4.356,0,0,0-1.687-2.172A5.274,5.274,0,0,0,481.772,984.4ZM450.6,992.756c0.061-.544-0.131-1.392.593-1.539,0.906-.073.767,0.949,0.786,1.559a10.811,10.811,0,0,1,1.345.06,0.678,0.678,0,0,1-.1,1.277c-0.847.089-1.7-.023-2.55,0.069a0.7,0.7,0,0,0,.222,1.366,2.494,2.494,0,0,1,2.644,1.205,2.171,2.171,0,0,1-1.545,3c-0.019.561,0.069,1.591-.751,1.511-0.778-.06-0.626-0.99-0.623-1.547-0.609-.054-1.633.232-1.772-0.63,0.176-1.255,1.809-.543,2.649-0.74a0.736,0.736,0,0,0,.668-1.243c-0.7-.35-1.58,0-2.264-0.439a2.087,2.087,0,0,1-.762-2.849A2.522,2.522,0,0,1,450.6,992.756Zm32.261-1.31a4.97,4.97,0,0,1,4.183.574,5.438,5.438,0,0,1,1.967,3.592,0.711,0.711,0,0,1-.674.8,5.634,5.634,0,0,1-3.5.014,5.109,5.109,0,0,1-2.889-4.34A1.035,1.035,0,0,1,482.86,991.446Zm0.508,1.276c0.414,1.379,1.52,2.758,3.089,2.59a16.519,16.519,0,0,1-1.849-1.13c-0.46-.47.149-1.42,0.751-1.057,0.636,0.315,1.224.726,1.847,1.07A3.265,3.265,0,0,0,483.368,992.722Zm-9.088.521a6.429,6.429,0,0,1,5.316-.424,2.105,2.105,0,0,1,.823.545,7.389,7.389,0,0,1-2.753,4.923,6.363,6.363,0,0,1-5.869.327c-0.489-.3-0.217-0.911-0.128-1.354A6.345,6.345,0,0,1,474.28,993.243Zm0.789,1.1a5.591,5.591,0,0,0-1.861,2.216c1.112-.391,2.018-1.32,3.146-1.723a0.672,0.672,0,0,1,.406,1.226c-0.9.606-1.849,1.126-2.782,1.674a4.088,4.088,0,0,0,2.587-.371,5.141,5.141,0,0,0,2.323-3.375A5.357,5.357,0,0,0,475.069,994.345Zm-13.6-1.55a6.263,6.263,0,0,1,5.5.623,6.885,6.885,0,0,1,2.475,4.364,0.671,0.671,0,0,1-.449.913,6.465,6.465,0,0,1-5.4-.235,6.667,6.667,0,0,1-2.913-4.782A0.8,0.8,0,0,1,461.469,992.8ZM462.087,994a5.744,5.744,0,0,0,1.809,3.038,3.728,3.728,0,0,0,3.077.667,28.53,28.53,0,0,1-2.962-1.824,0.67,0.67,0,0,1,.786-0.994c1.016,0.5,1.943,1.174,2.943,1.71a4.7,4.7,0,0,0-1.9-2.3A5.508,5.508,0,0,0,462.087,994Zm21.048,4.2a4.97,4.97,0,0,1,3.737.523,5.291,5.291,0,0,1,2.149,3.965,1.125,1.125,0,0,1-.968.62,5.064,5.064,0,0,1-3.413-.16,5.124,5.124,0,0,1-2.686-4.033C481.868,998.466,482.665,998.316,483.135,998.2Zm0.243,1.332a3.329,3.329,0,0,0,3.058,2.676c-0.6-.44-1.278-0.77-1.858-1.24a0.686,0.686,0,0,1,.543-1.1c0.74,0.276,1.366.776,2.077,1.116A3.3,3.3,0,0,0,483.378,999.534Zm-20.051,1.386a4.975,4.975,0,0,1,3.889.41,5.445,5.445,0,0,1,2.226,3.76,0.708,0.708,0,0,1-.623.77,5.081,5.081,0,0,1-4.212-.29,5.32,5.32,0,0,1-2.253-4.01A1.094,1.094,0,0,1,463.327,1000.92Zm0.473,1.27a3.258,3.258,0,0,0,2.983,2.64c-0.62-.63-2.481-0.96-1.7-2.13,0.9-.43,1.657.62,2.462,0.93A3.13,3.13,0,0,0,463.8,1002.19Zm11.039-1.31a5.632,5.632,0,0,1,3.533.26c0.583,0.4.171,1.21,0.04,1.75a4.4,4.4,0,0,1-4.5,3.28c-0.773-.15-1.807-0.06-2.31-0.78A4.881,4.881,0,0,1,474.839,1000.88Zm-1.412,2.79a15.834,15.834,0,0,1,2.1-1.16,0.71,0.71,0,0,1,.476,1.15,18.106,18.106,0,0,1-1.831,1.13c1.566,0.16,2.7-1.23,3.069-2.63A3.314,3.314,0,0,0,473.427,1003.67Zm-30.654-1.38a6.059,6.059,0,0,1,5.257.88,7.071,7.071,0,0,1,2.3,4.6,0.788,0.788,0,0,1-.757.62,6.365,6.365,0,0,1-5.078-.29,6.665,6.665,0,0,1-2.975-4.93C441.466,1002.49,442.3,1002.43,442.773,1002.29Zm0.187,1.32a5.312,5.312,0,0,0,1.983,3.17,4.624,4.624,0,0,0,2.866.64c-0.85-.71-1.885-1.14-2.78-1.78a0.665,0.665,0,0,1,.569-1.16c1.043,0.47,1.957,1.19,2.983,1.71a4.723,4.723,0,0,0-1.705-2.17A5.169,5.169,0,0,0,442.96,1003.61Zm14.107-1.48a7.358,7.358,0,0,1,3.8.47,0.9,0.9,0,0,1,.225,1.14,6.529,6.529,0,0,1-2.887,4.38,6.685,6.685,0,0,1-5.586.09c-0.508-.44-0.1-1.1-0.021-1.64A5.686,5.686,0,0,1,457.067,1002.13Zm-1.128,1.82a4.745,4.745,0,0,0-1.825,2.24c1.021-.51,1.935-1.21,2.964-1.7a0.666,0.666,0,0,1,.711,1.04c-0.909.73-2.01,1.16-2.916,1.9a4.954,4.954,0,0,0,2.681-.51,5.251,5.251,0,0,0,2.2-3.31A5.338,5.338,0,0,0,455.939,1003.95Zm26.381,1.33a4.679,4.679,0,0,1,6.709,4.15,1.129,1.129,0,0,1-1.075.73,4.772,4.772,0,0,1-3.718-.39,5.307,5.307,0,0,1-2.25-3.58A0.715,0.715,0,0,1,482.32,1005.28Zm1.064,1.06a4.554,4.554,0,0,0,1.189,2,3.637,3.637,0,0,0,1.911.71c-0.633-.44-1.331-0.78-1.943-1.25a0.721,0.721,0,0,1,.6-1.09,18.5,18.5,0,0,1,1.965,1.06A3.192,3.192,0,0,0,483.384,1006.34Zm-19.771,1.09a4.786,4.786,0,0,1,3.715.55,5.53,5.53,0,0,1,2.128,3.9,0.99,0.99,0,0,1-.9.64,5.211,5.211,0,0,1-3.464-.12,5.109,5.109,0,0,1-2.748-4.37A2.012,2.012,0,0,1,463.613,1007.43Zm0.182,1.31a3.519,3.519,0,0,0,3.065,2.76c-0.441-.6-1.419-0.76-1.911-1.37a0.666,0.666,0,0,1,.669-1c0.686,0.27,1.277.74,1.943,1.06A3.292,3.292,0,0,0,463.8,1008.74Zm11.282-1.34a4.678,4.678,0,0,1,3.482.52,4.413,4.413,0,0,1-1.053,3.25c-1.3,1.76-3.795,1.93-5.669,1.12-0.478-.43-0.109-1.04-0.016-1.55A4.408,4.408,0,0,1,475.077,1007.4Zm-1.652,2.81c0.636-.31,1.218-0.73,1.86-1.03a0.673,0.673,0,0,1,.783,1.01c-0.6.47-1.288,0.79-1.876,1.27a3.436,3.436,0,0,0,3.06-2.68A3.259,3.259,0,0,0,473.425,1010.21Zm-17.28.2a5.494,5.494,0,0,1,3.2.47c0.459,0.93-.23,2.03-0.65,2.88-1.168,2.14-4.038,2.57-6.064,1.53-0.4-.54.013-1.23,0.155-1.8A4.426,4.426,0,0,1,456.145,1010.41Zm-1.817,2.85c0.681-.32,1.285-0.8,1.993-1.07a0.684,0.684,0,0,1,.559,1.1c-0.556.45-1.227,0.73-1.748,1.23a3.367,3.367,0,0,0,2.964-2.7A3.266,3.266,0,0,0,454.328,1013.26Zm-10.518-2.58a5.2,5.2,0,0,1,4.277.3,5.4,5.4,0,0,1,2.2,3.81,0.66,0.66,0,0,1-.545.7,5.3,5.3,0,0,1-3.916-.07,5.159,5.159,0,0,1-2.584-3.84A0.709,0.709,0,0,1,443.81,1010.68Zm0.837,1.18a3.392,3.392,0,0,0,3.092,2.66c-0.652-.47-1.344-0.86-2.029-1.27a0.877,0.877,0,0,1,.69-1.08c0.716,0.26,1.318.76,2.007,1.08A3.165,3.165,0,0,0,444.647,1011.86Z" transform="translate(-435 -962)"/>
</svg>
