<svg xmlns="http://www.w3.org/2000/svg" width="65" height="65" viewBox="0 0 65 65">
  <defs>
    <style>
      .cls-1 {
        fill: #f50;
        fill-rule: evenodd;
      }
    </style>
  </defs>
  <path id="Icon_" data-name="Icon " class="cls-1" d="M855.624,962.749a31.5,31.5,0,0,1,35.99,42.691,12.2,12.2,0,1,1-17.177,17.18A31.489,31.489,0,1,1,855.624,962.749Zm-2.914,2.945a29.432,29.432,0,0,0-9.46,50.066,8.179,8.179,0,0,1,7.279-7.01c1.615-.08,3.232-0.01,4.846-0.04-0.017-.92-0.02-1.84,0-2.77a15.332,15.332,0,0,1-8.119-12.955c-0.033-3.556.01-7.116-.018-10.672A13.272,13.272,0,0,1,860.7,969.088c3.308,0.053,6.616-.024,9.927.02a0.974,0.974,0,0,1,.99.994c0.03,1.386,0,2.773.035,4.158a7.14,7.14,0,0,1,5.581,4.447,10.925,10.925,0,0,1,.482,4.375c-0.015,2.028.036,4.056,0,6.086-0.041,2.368.188,4.8-.485,7.105a15.364,15.364,0,0,1-7.642,9.667c0.013,0.93.023,1.85,0,2.78,1.209-.04,2.417-0.02,3.626.01a12.276,12.276,0,0,1,16.692-4.5A29.459,29.459,0,0,0,852.71,965.694Zm-3.072,13.836a20.632,20.632,0,0,0-.356,5.392c0.879-.826,1.671-1.749,2.587-2.531,0.115-.025.348-0.075,0.462-0.1a37.339,37.339,0,0,0,5.309,1.547,25.367,25.367,0,0,0,14.344-1.351,1.13,1.13,0,0,1,1.274.005c0.818,0.794,1.615,1.611,2.4,2.434q0.023-1.937.01-3.876a5.06,5.06,0,0,0-4.544-4.788,1.876,1.876,0,0,1-1.285-.368,1.717,1.717,0,0,1-.272-1.21c0.018-1.176.026-2.354,0-3.53-3.219-.02-6.438-0.012-9.655,0A11.22,11.22,0,0,0,849.638,979.53Zm-0.34,8.345c0.035,2.9-.315,5.894.637,8.692a13.2,13.2,0,0,0,25.74-4.108c-0.017-1.532.021-3.064-.007-4.6-1.006-1.186-2.2-2.211-3.275-3.344A30.066,30.066,0,0,1,863,986.38a29.529,29.529,0,0,1-10.424-1.86C851.5,985.651,850.288,986.679,849.3,987.875Zm33.768,16.8a10.165,10.165,0,0,0-9.236,12.03A10.158,10.158,0,1,0,883.066,1004.68Zm-25.665,2.15c0.023,0.78.013,1.57,0.008,2.35,0.729,0.48,1.452.98,2.186,1.46,0.98-.3,1.924-0.71,2.925-0.94,0.962,0.25,1.886.64,2.838,0.93,0.741-.47,1.472-0.96,2.2-1.45v-2.35A15.2,15.2,0,0,1,857.4,1006.83Zm-12.2,10.49a29.526,29.526,0,0,0,28.026,3.58,12.378,12.378,0,0,1-.93-10.16c-1.147.04-2.307-.07-3.45,0.07-1.063.59-2,1.4-3.087,1.96a18.353,18.353,0,0,1-3.278-.95c-1.023.3-2.008,0.72-3.038,0.99-1.308-.39-2.252-1.58-3.517-2.06-1.807.02-3.622-.05-5.427,0.05A6.192,6.192,0,0,0,845.205,1017.32Zm37.62-7.84a1.017,1.017,0,0,1,1.967.01c0.076,1.43.008,2.87,0.031,4.3,1.437,0.03,2.879-.07,4.316.03a1.025,1.025,0,0,1,0,1.97c-1.432.08-2.872,0.01-4.309,0.04-0.035,1.44.031,2.87-.043,4.3a1.016,1.016,0,0,1-1.965.01c-0.114-1.44,0-2.88-.035-4.32-1.432-.02-2.867.05-4.3-0.03a1.015,1.015,0,0,1-.008-1.97c1.427-.09,2.859-0.01,4.288-0.03C882.809,1012.35,882.731,1010.91,882.825,1009.48Zm-20.773,5.43a1.029,1.029,0,0,1,1.371,1.39,1,1,0,0,1-1.5.35A1.018,1.018,0,0,1,862.052,1014.91Zm0,4.06a1.022,1.022,0,1,1-.013,1.82A1.024,1.024,0,0,1,862.055,1018.97Z" transform="translate(-831 -962)"/>
</svg>
