<svg xmlns="http://www.w3.org/2000/svg" width="65" height="65" viewBox="0 0 65 65">
  <defs>
    <style>
      .cls-1 {
        fill: #f50;
        fill-rule: evenodd;
      }
    </style>
  </defs>
  <path id="Icon_" data-name="Icon " class="cls-1" d="M1273.07,960.1a1.017,1.017,0,1,1-.14,1.761A1.027,1.027,0,0,1,1273.07,960.1Zm0,4.057a0.994,0.994,0,0,1,1.43.9c0.04,6.188.02,12.379,0.02,18.571a1.1,1.1,0,0,1-.59,1.168,1.02,1.02,0,0,1-1.45-.885c-0.01-6.195.01-12.392-.01-18.587A1.126,1.126,0,0,1,1273.07,964.153Zm-23.37,1.53a1.019,1.019,0,1,1-.13,1.76A1.022,1.022,0,0,1,1249.7,965.683Zm46.72,0.008a0.991,0.991,0,0,1,1.42.618A1.017,1.017,0,1,1,1296.42,965.691ZM1269,968.217a1.019,1.019,0,1,1-.4,1.5A1,1,0,0,1,1269,968.217Zm8.12,0.006a1.006,1.006,0,0,1,1.43.672A1.016,1.016,0,1,1,1277.12,968.223Zm-27.4,1.515a1,1,0,0,1,1.42.9c0.04,3.148.02,6.3,0.02,9.445a1.056,1.056,0,0,1-1.28,1.212,1.04,1.04,0,0,1-.75-1.218c0-3.143-.03-6.283.01-9.427A0.972,0.972,0,0,1,1249.72,969.738Zm46.9-.076a1.014,1.014,0,0,1,1.24.972c0.06,3.056,0,6.116.02,9.172a1.4,1.4,0,0,1-.44,1.34,1.007,1.007,0,0,1-1.58-.8c-0.07-3.144.03-6.286-.03-9.428A1.1,1.1,0,0,1,1296.62,969.662Zm-27.6,2.614a1,1,0,0,1,1.39.662,15.244,15.244,0,0,1,.06,2.028c-0.06,2.973.04,5.947-.03,8.917a1,1,0,0,1-1.42.906,1.132,1.132,0,0,1-.61-1.174c0.03-3.485-.03-6.967.03-10.448A0.9,0.9,0,0,1,1269.02,972.276Zm8.12,0a1.058,1.058,0,0,1,1.45,1.155c-0.03,3.489.02,6.977-.02,10.464a1.01,1.01,0,0,1-1.58.8,1.764,1.764,0,0,1-.46-1.6q0.03-4.826,0-9.654A1.145,1.145,0,0,1,1277.14,972.278Zm-31.49.508a1.019,1.019,0,1,1-.15,1.76A1.025,1.025,0,0,1,1245.65,972.786Zm8.14,0a1.018,1.018,0,1,1-.3,1.652A1.02,1.02,0,0,1,1253.79,972.781Zm38.57,0.008a1.019,1.019,0,1,1,0,1.84A1.019,1.019,0,0,1,1292.36,972.789Zm8.33-.081a1.033,1.033,0,0,1,1.15,1.436A1.02,1.02,0,1,1,1300.69,972.708Zm-55.04,4.14a1,1,0,0,1,1.43.9,11.443,11.443,0,0,1-.07,2.483,1.017,1.017,0,0,1-1.93-.408C1245.17,978.862,1244.63,977.447,1245.65,976.848Zm8.1,0a1.021,1.021,0,0,1,1.46.888,12.134,12.134,0,0,1-.08,2.486,1.023,1.023,0,0,1-1.85.006,9.773,9.773,0,0,1-.08-2.477A0.932,0.932,0,0,1,1253.75,976.85Zm38.61,0a1.008,1.008,0,0,1,1.44.884,20.73,20.73,0,0,1,.01,2.086,1.013,1.013,0,0,1-1.6.809c-0.6-.417-0.39-1.223-0.44-1.836C1291.8,978.133,1291.6,977.2,1292.36,976.853Zm8.14,0a1,1,0,0,1,1.43.889,10.387,10.387,0,0,1-.08,2.493,1.015,1.015,0,0,1-1.93-.4C1300.03,978.866,1299.48,977.444,1300.5,976.848Zm-51.33,5.544a9.134,9.134,0,0,1,10.09,8.549,9.052,9.052,0,0,1-1.41,5.453A9.139,9.139,0,1,1,1249.17,982.392Zm-0.67,2.171a7.1,7.1,0,1,0,8.58,5.412A7.159,7.159,0,0,0,1248.5,984.563Zm47.36-2.167a9.15,9.15,0,1,1-3.75,1.28A9,9,0,0,1,1295.86,982.4Zm-0.64,2.175a7.113,7.113,0,1,0,5.95,1.267A7.119,7.119,0,0,0,1295.22,984.571Zm-46.15,2.536a1.172,1.172,0,0,1,1.08-1.216,1.154,1.154,0,0,1,1.06,1.216,3.412,3.412,0,0,1,1.97,2.335,1.02,1.02,0,0,1-1.27,1.131c-0.77-.172-0.67-1.237-1.37-1.512-0.47-.19-1.28,0-1.15.661-0.04.639,0.71,0.723,1.15,0.915a3.162,3.162,0,0,1,2.4,2.1,2.716,2.716,0,0,1-1.72,3.14,1.131,1.131,0,0,1-1.37,1.159,1.331,1.331,0,0,1-.81-1.245,3.414,3.414,0,0,1-1.92-2.262,1.014,1.014,0,0,1,1.16-1.194c0.87,0.123.79,1.369,1.63,1.569,0.53,0.282,1.41-.3.94-0.885-0.79-.522-1.82-0.579-2.54-1.214a2.815,2.815,0,0,1-.63-3.518A3.232,3.232,0,0,1,1249.07,987.107Zm46.72,0a1.2,1.2,0,0,1,.83-1.187,1.128,1.128,0,0,1,1.31,1.187,3.359,3.359,0,0,1,1.96,2.328,1.019,1.019,0,0,1-1.27,1.131c-0.82-.189-0.68-1.42-1.53-1.547a0.735,0.735,0,0,0-1.01.7c0.02,0.7.84,0.762,1.34,0.985a2.979,2.979,0,0,1,2.23,2.063,2.679,2.679,0,0,1-1.71,3.108,1.086,1.086,0,1,1-2.15-.076,3.323,3.323,0,0,1-1.98-2.537c0.06-.917,1.1-0.9,1.74-1.188a2.676,2.676,0,0,1-1.14-3.794A3.312,3.312,0,0,1,1295.79,987.107Zm-0.46,5.3c0.49,0.7,1.16,2.078,2.22,1.344,0.58-.981-1.02-1.147-1.62-1.391l0.06-.185C1295.77,992.25,1295.55,992.328,1295.33,992.406Zm-28.47-3.809a14.067,14.067,0,0,1,19.89,17.1c-0.73-.01-1.46,0-2.19,0a12.019,12.019,0,1,0-22.12,0c-0.73-.01-1.45,0-2.18.02a14.255,14.255,0,0,1-.33-8.378A14.044,14.044,0,0,1,1266.86,988.6Zm6.13,4.166a1.361,1.361,0,0,1,1.38.167,9.326,9.326,0,0,1,.17,1.492,4.622,4.622,0,0,1,3.64,3.417,1.017,1.017,0,0,1-1.7.826c-0.33-.446-0.49-1-0.86-1.419a3,3,0,0,0-3.8-.365,1.659,1.659,0,0,0,.45,2.734c1.55,0.735,3.47.8,4.69,2.135a3.335,3.335,0,0,1,.44,3.96q-3.87-.015-7.74,0c-0.44-.7-1.25-1.65-0.57-2.45a1.307,1.307,0,0,1,1.41-.19,4.357,4.357,0,0,0,1.41,1.93,2.787,2.787,0,0,0,3.68-.28,1.318,1.318,0,0,0-.53-1.92c-1.36-.74-3.03-0.78-4.28-1.73a3.74,3.74,0,0,1-1.1-4.776,4.037,4.037,0,0,1,2.78-1.858C1272.48,993.855,1272.38,993.086,1272.99,992.763Zm-29.86,15.1a4.625,4.625,0,0,1,1.17-.14q28.305,0.015,56.62,0a10.573,10.573,0,0,1,3.13.21,3.016,3.016,0,0,1,1.95,2.82v11.21a3.037,3.037,0,0,1-3.04,3.03c-3.56,0-7.13.01-10.7-.01a1.011,1.011,0,0,1-.89-1.45,1.108,1.108,0,0,1,1.16-.57c3.48-.02,6.97.01,10.45-0.01a0.963,0.963,0,0,0,.98-0.98c0.02-3.73.01-7.47,0-11.21a0.95,0.95,0,0,0-.99-0.99q-29.34-.03-58.69-0.01a1.035,1.035,0,0,0-1.24.98c-0.02,3.74-.01,7.48,0,11.23a1.045,1.045,0,0,0,1.26.99h39.36a1.182,1.182,0,0,1,1.23.54,1.007,1.007,0,0,1-.95,1.48q-19.95.03-39.89,0.01a3.028,3.028,0,0,1-3.05-3.04v-11.18A3.046,3.046,0,0,1,1243.13,1007.86Zm3.54,6.05a1.014,1.014,0,0,1,1.43.9,22.578,22.578,0,0,1-.07,3.49,1.017,1.017,0,0,1-1.91-.16c-0.09-1.02-.03-2.05-0.04-3.07A1.1,1.1,0,0,1,1246.67,1013.91Zm4.06,0a1,1,0,0,1,1.43.9c0.02,1.11.05,2.21-.02,3.32a1.014,1.014,0,0,1-1.96,0c-0.08-1.1-.06-2.21-0.03-3.31A1,1,0,0,1,1250.73,1013.91Zm4.06,0.01a1,1,0,0,1,1.43.88,31.012,31.012,0,0,1-.02,3.34,1.018,1.018,0,0,1-1.96.01c-0.07-1.02-.05-2.05-0.04-3.07A1.129,1.129,0,0,1,1254.79,1013.92Zm4.07-.01a0.992,0.992,0,0,1,1.43.88c0.02,1.11.04,2.23-.03,3.34a1.014,1.014,0,0,1-1.96,0c-0.07-1.02-.03-2.04-0.05-3.05A1.142,1.142,0,0,1,1258.86,1013.91Zm4.05,0.01a1.01,1.01,0,0,1,1.44.9,30.667,30.667,0,0,1-.03,3.32,1.01,1.01,0,0,1-1.95,0,30.806,30.806,0,0,1-.03-3.33A0.978,0.978,0,0,1,1262.91,1013.92Zm4.06-.01a1.014,1.014,0,0,1,1.44.9,30.667,30.667,0,0,1-.03,3.32,1.015,1.015,0,0,1-1.89.19,14.537,14.537,0,0,1-.1-2.72C1266.4,1015.01,1266.28,1014.17,1266.97,1013.91Zm4.07,0.01a1.024,1.024,0,0,1,1.45.89c0.02,1.03,0,2.07-.02,3.11a1.082,1.082,0,0,1-.97,1.02,1.1,1.1,0,0,1-1.05-1.03c-0.03-1.04,0-2.08.02-3.11A0.938,0.938,0,0,1,1271.04,1013.92Zm4.06,0a1,1,0,0,1,1.43.88,19.7,19.7,0,0,1-.07,3.52,1.024,1.024,0,0,1-1.91-.18c-0.07-1.12-.04-2.24-0.02-3.35A0.924,0.924,0,0,1,1275.1,1013.92Zm4.06,0a1,1,0,0,1,1.44.89c0.02,1.1.05,2.21-.03,3.32a1.009,1.009,0,0,1-1.95.01,28.441,28.441,0,0,1-.03-3.33A0.978,0.978,0,0,1,1279.16,1013.92Zm4.06,0a1,1,0,0,1,1.44.9c0,1.1.09,2.22-.02,3.32a1.017,1.017,0,0,1-1.96,0c-0.08-1.02-.04-2.05-0.05-3.06A1.129,1.129,0,0,1,1283.22,1013.92Zm4.06,0a0.994,0.994,0,0,1,1.45.86c0.01,1.11.04,2.23-.03,3.34a1.013,1.013,0,0,1-1.96.01c-0.07-1.01-.04-2.03-0.05-3.05A1.152,1.152,0,0,1,1287.28,1013.92Zm4.07-.01a1.019,1.019,0,0,1,1.44.9,28.608,28.608,0,0,1-.04,3.34,1.011,1.011,0,0,1-1.95-.02c-0.08-1.1-.05-2.21-0.02-3.31A0.98,0.98,0,0,1,1291.35,1013.91Zm4.06,0a1.01,1.01,0,0,1,1.44.89c0.04,1.11.04,2.23-.03,3.34a1.015,1.015,0,0,1-1.96-.01c-0.08-1.02-.02-2.05-0.03-3.06A1.073,1.073,0,0,1,1295.41,1013.91Zm4.06,0.01a1.015,1.015,0,0,1,1.45.9c0.02,1.11.03,2.21-.04,3.31a1.01,1.01,0,0,1-1.95.02c-0.12-1.02-.01-2.06-0.04-3.08A1.094,1.094,0,0,1,1299.47,1013.92Zm-11.68,9.14a1.017,1.017,0,1,1-.27,1.64A1.009,1.009,0,0,1,1287.79,1023.06Z" transform="translate(-1241 -960)"/>
</svg>
