<?xml version="1.0"?>
<svg xmlns="http://www.w3.org/2000/svg" xmlns:xlink="http://www.w3.org/1999/xlink" version="1.1" id="Layer_1" x="0px" y="0px" viewBox="0 0 512 512" style="enable-background:new 0 0 512 512;" xml:space="preserve" width="512px" height="512px" class=""><g><circle style="fill:#3D5EBD" cx="256" cy="256" r="256" data-original="#14C18B" class="" data-old_color="#14C18B"/><path style="fill:#4982C9" d="M128.1,335.9l172.3,172.3c93.4-16.3,169.4-83.3,198.7-171.6L269.9,107.4L128.1,335.9z" data-original="#0F9168" class="active-path" data-old_color="#0F9168"/><path style="fill:#FFFFFF" d="M370.9,340.7H141.1c-7.2,0-13.8-3.8-17.3-10s-3.6-13.8,0-20l114.9-198.9c3.6-6.2,10.2-10,17.3-10  c7.1,0,13.8,3.8,17.3,10l114.9,198.9c3.6,6.2,3.6,13.8,0,20S378,340.7,370.9,340.7z M175.8,300.7h160.4l-80.2-139L175.8,300.7z" data-original="#FFFFFF" class=""/></g> </svg>
