<svg xmlns="http://www.w3.org/2000/svg" width="60" height="56" viewBox="0 0 60 56">
  <defs>
    <style>
      .cls-1 {
        fill: #f50;
        fill-rule: evenodd;
      }
    </style>
  </defs>
  <path id="Icon_" data-name="Icon " class="cls-1" d="M465.318,7705.36c0-.45,0-0.91.01-1.36q23.116-.015,46.236,0v1.37h-1.659q0.01,8.385,0,16.78c-0.461-.01-0.921-0.01-1.38-0.01-0.042-5.59.045-11.18-.035-16.78q-20.1.03-40.2,0.01c-0.016,7.3,0,14.6-.007,21.9q18.228,0,36.459.01v1.37H465.321c0-.46,0-0.92,0-1.37,0.523-.01,1.045-0.01,1.568-0.01q0-10.95,0-21.9C466.366,7705.37,465.843,7705.37,465.318,7705.36Zm18.372,2.56c0.461,0,.923.01,1.385,0.02q0,7.74,0,15.48c1.292,0,2.585.01,3.879,0,0.009-2.6-.026-5.19.009-7.79,0.453,0,.905,0,1.357-0.01,0.057,2.6,0,5.2.029,7.8h2.2v1.38h-21.6q0-.69,0-1.38h2.3c0.019-1.92,0-3.85.01-5.77,0.463-.01.925-0.01,1.389-0.01,0.012,1.93-.014,3.86,0,5.78,1.261,0.01,2.522-.01,3.782.01,0-3.55,0-7.09,0-10.64h1.381c0.023,3.54-.007,7.09.014,10.63q1.934,0.015,3.864,0Q483.695,7715.665,483.69,7707.92Zm10.893,5.88c0.344-.34.686-0.68,1.022-1.03,1.661,1.66,3.374,3.27,5.034,4.93a2.547,2.547,0,0,1,2.9.33c1.678,1.63,3.323,3.29,4.987,4.94q2.768-.015,5.534,0c0.764,1.43,1.556,2.84,2.3,4.29,0.126-.01.377-0.02,0.5-0.02,0.767-1.45,1.514-2.9,2.325-4.32a5.5,5.5,0,0,1,5.47,3.67c0.047,4.88.009,9.75,0.019,14.62h-2.395q0.278,9.345.553,18.69c-1.6,0-3.2.01-4.8,0-0.483-4.02-1.008-8.03-1.451-12.05-0.556,4.01-.987,8.03-1.5,12.05-1.6.01-3.2-.01-4.805,0.01q0.416-14.46.828-28.9a1.978,1.978,0,0,0-1-1.77c-0.83-.09-1.666-0.02-2.5-0.04q-3.765-3.75-7.534-7.49a2.544,2.544,0,0,1-.427-2.98C497.951,7717.08,496.265,7715.45,494.583,7713.8Zm6.433,6.74c2.4,2.41,4.823,4.8,7.235,7.2,0.981,0.09,2.123-.31,2.959.37a3.363,3.363,0,0,1,1.367,2.9q-0.408,13.755-.825,27.52h2.212q1.012-8.295,2.03-16.57a8.1,8.1,0,0,0,1.3.01c0.663,5.55,1.352,11.1,2.022,16.65h2.121q-0.366-12.84-.736-25.66h1.383c0.061,2.32.129,4.64,0.185,6.96h1.292c-0.008-3.97.016-7.95-.012-11.92a4.033,4.033,0,0,0-3.579-3.77c-0.766,1.44-1.554,2.88-2.3,4.33h-2.14c-0.768-1.44-1.544-2.87-2.308-4.31-1.786-.01-3.572.03-5.355,0-1.687-1.68-3.377-3.35-5.055-5.03a1.31,1.31,0,0,0-1.09-.52A1.1,1.1,0,0,0,501.016,7720.54Zm14.79-5.06a3.659,3.659,0,1,1-2.746,3.19A3.7,3.7,0,0,1,515.806,7715.48Zm0.082,1.52a2.3,2.3,0,1,0,3.138,2.38A2.3,2.3,0,0,0,515.888,7717Zm-30.227,23.96a4.223,4.223,0,1,1-3.619,3.76A4.374,4.374,0,0,1,485.661,7740.96Zm-0.314,1.47a2.827,2.827,0,0,0,.407,5.51A2.837,2.837,0,1,0,485.347,7742.43Zm-13.617.47a3.845,3.845,0,1,1-3.227,3.23A3.921,3.921,0,0,1,471.73,7742.9Zm-0.384,1.53a2.492,2.492,0,0,0-.523,4.24A2.484,2.484,0,1,0,471.346,7744.43Zm27.65-1.41a3.848,3.848,0,1,1-2.735,4.05A3.907,3.907,0,0,1,499,7743.02Zm0.4,1.29a2.462,2.462,0,0,0-1.642,1.38A2.494,2.494,0,1,0,499.4,7744.31Zm-10.536,5.05c1.692,0.71,3.757.96,4.9,2.54a22.77,22.77,0,0,1,3.778-1.53,38.43,38.43,0,0,0,2.533,4.34c0.926-1.38,1.61-2.9,2.44-4.34,1.319,0.57,2.857.78,3.96,1.75a3.913,3.913,0,0,1,1.142,2.67c0.154,1.73.372,3.46,0.358,5.2q-21.643.015-43.29,0c0.03-1.75-.085-3.51.079-5.26a3.706,3.706,0,0,1,2.053-3.14c1-.42,2.032-0.74,3.035-1.14,0.769,1.44,1.559,2.86,2.348,4.29a1.956,1.956,0,0,0,.687-0.9c0.619-1.13,1.238-2.25,1.852-3.38a27.961,27.961,0,0,1,3.8,1.51c1.14-1.54,3.16-1.82,4.793-2.61,0.83,1.56,1.648,3.12,2.489,4.66h0.567C487.184,7752.45,488.035,7750.92,488.86,7749.36Zm-8.252,2.58a2.6,2.6,0,0,0-1.193,1.89c-0.218,1.55-.354,3.12-0.434,4.7h1.571c0.061-.83.117-1.66,0.185-2.48l1.383,0.09c-0.057.8-.115,1.59-0.179,2.38,2.921,0.01,5.841,0,8.761.01-0.059-.8-0.12-1.6-0.188-2.4,0.464-.02.928-0.05,1.392-0.07,0.061,0.82.122,1.64,0.185,2.47h1.568c-0.124-1.34-.243-2.67-0.344-4a3.1,3.1,0,0,0-1.289-2.51c-0.717-.35-1.5-0.54-2.243-0.82-0.794,1.47-1.6,2.93-2.407,4.4h-2.214c-0.814-1.46-1.589-2.94-2.393-4.4C482.054,7751.46,481.311,7751.65,480.608,7751.94Zm13.862,1.35c0.228,1.74.392,3.48,0.5,5.24,2.979,0,5.957-.01,8.936,0-0.03-.71-0.061-1.41-0.091-2.11l1.385-.09q0.042,1.05.087,2.1h1.3a41.172,41.172,0,0,0-.4-4.4c-0.317-1.34-1.828-1.53-2.92-1.91-0.708,1.28-1.411,2.57-2.145,3.85-0.67-.01-1.34,0-2.008.01-0.722-1.28-1.406-2.59-2.128-3.87A6.038,6.038,0,0,0,494.47,7753.29Zm-27.117-.56a2.15,2.15,0,0,0-1.168,1.76c-0.142,1.34-.231,2.69-0.309,4.04h1.292c0.032-.74.058-1.47,0.084-2.2l1.394,0.09c-0.033.7-.061,1.4-0.086,2.11,3.011,0,6.023-.01,9.034,0,0.059-1.78.293-3.55,0.427-5.33a7.486,7.486,0,0,0-2.548-1.08c-0.71,1.28-1.42,2.57-2.128,3.86-0.679-.01-1.361-0.02-2.043-0.02-0.68-1.29-1.4-2.56-2.107-3.84C468.581,7752.33,467.957,7752.5,467.353,7752.73Z" transform="translate(-464.688 -7704)"/>
</svg>
