<svg xmlns="http://www.w3.org/2000/svg" width="60.032" height="60" viewBox="0 0 60.032 60">
  <defs>
    <style>
      .cls-1 {
        fill: #f50;
        fill-rule: evenodd;
      }
    </style>
  </defs>
  <path id="Icon_" data-name="Icon " class="cls-1" d="M496.222,7846.99a34.588,34.588,0,0,1,5.065.71c-0.1.41-.2,0.82-0.292,1.23a25.275,25.275,0,0,0-4.819-.65C496.186,7847.85,496.2,7847.42,496.222,7846.99Zm-10.1,1.22a31.762,31.762,0,0,1,5.015-1.04c0.045,0.41.09,0.83,0.141,1.24a30,30,0,0,0-4.785,1C486.372,7849.01,486.247,7848.61,486.123,7848.21Zm20.013,1.02a30.059,30.059,0,0,1,4.551,2.37c-0.235.34-.46,0.7-0.689,1.05a29.311,29.311,0,0,0-4.328-2.25C505.82,7850.01,505.978,7849.62,506.136,7849.23Zm-29.114,3.49a36.412,36.412,0,0,1,4.34-2.68c0.2,0.38.394,0.76,0.593,1.14a31.53,31.53,0,0,0-4.144,2.51A4.493,4.493,0,0,1,477.022,7852.72Zm12.036-1.4a26.924,26.924,0,0,1,6.393-.58c-0.024.42-.04,0.83-0.062,1.24a25.029,25.029,0,0,0-6.043.58C489.25,7852.14,489.154,7851.73,489.058,7851.32Zm12.334,1.57c0.122-.41.239-0.81,0.364-1.21a25.055,25.055,0,0,1,5.878,2.5q-0.3.525-.6,1.05A27.6,27.6,0,0,0,501.392,7852.89Zm-23.676,4.05a30.173,30.173,0,0,1,5.309-3.51c0.2,0.38.4,0.75,0.6,1.13a25.674,25.674,0,0,0-5.108,3.36C478.251,7857.59,477.983,7857.27,477.716,7856.94Zm36.179-1.37c0.287-.3.57-0.6,0.852-0.9a35.041,35.041,0,0,1,3.486,3.71c-0.33.26-.658,0.53-0.984,0.79A36.115,36.115,0,0,0,513.9,7855.57Zm-43.96,4.43a32.884,32.884,0,0,1,3.237-3.95l0.909,0.87a30.635,30.635,0,0,0-3.1,3.8Zm42.821-2.03a27.276,27.276,0,0,1,4.072,4.93c-0.361.22-.72,0.45-1.079,0.68a24.642,24.642,0,0,0-3.854-4.71Zm-26.961,6.4a24.02,24.02,0,0,0,8.912-6.01,23.945,23.945,0,0,0,9.3,6.05,10.163,10.163,0,0,0,7.125-.18,35.9,35.9,0,0,1-4.051,19.94,36.268,36.268,0,0,1-12.2,13.15,33.6,33.6,0,0,1-14.644-17.83,38.229,38.229,0,0,1-1.91-15.15A10.233,10.233,0,0,0,485.8,7864.37Zm2.213,0.46a12.851,12.851,0,0,1-8.515,1.21,40.215,40.215,0,0,0,2.409,13.77,30.98,30.98,0,0,0,12.956,16.03,30.231,30.231,0,0,0,9.682-9.64,38.3,38.3,0,0,0,5.467-20.27,12.111,12.111,0,0,1-6.692-.41,24.752,24.752,0,0,1-8.591-5.37A26.493,26.493,0,0,1,488.008,7864.83Zm-17.721,2.42a28.881,28.881,0,0,1,3.084-5.61l1.028,0.75a25.3,25.3,0,0,0-2.935,5.32C471.069,7867.56,470.677,7867.41,470.287,7867.25Zm49.652-4c0.363-.21.729-0.41,1.1-0.62a35.344,35.344,0,0,1,2.065,4.67c-0.4.15-.794,0.29-1.189,0.44A30.731,30.731,0,0,0,519.939,7863.25Zm-52.533,1.18,1.156,0.54a26.8,26.8,0,0,0-1.656,4.59l-1.234-.33A36.692,36.692,0,0,1,467.406,7864.43Zm22.222,5.37a5.476,5.476,0,0,1,10.221.08,11.827,11.827,0,0,1,.361,4.21,1.4,1.4,0,0,1,1.481,1.26c0.024,3.04,0,6.08.007,9.12a1.244,1.244,0,0,1-1.278,1.29c-3.746.01-7.5,0-11.242,0a1.244,1.244,0,0,1-1.376-1.29c0-3.03-.009-6.06,0-9.1a1.342,1.342,0,0,1,1.459-1.27C489.31,7872.67,489.049,7871.16,489.628,7869.8Zm0.885,1.73c-0.029.87,0,1.75,0,2.62,2.806-.03,5.615.01,8.424-0.02-0.082-1.42.253-2.96-.467-4.27A4.22,4.22,0,0,0,490.513,7871.53Zm-1.483,3.88c0.009,3.04.005,6.08,0.021,9.12,3.8-.01,7.6-0.01,11.4-0.02,0.01-3.03-.007-6.06.01-9.09C496.65,7875.41,492.841,7875.43,489.03,7875.41Zm29.351-6.34c0.4-.14.8-0.27,1.2-0.41a27.9,27.9,0,0,1,1.277,6.28c-0.433.03-.866,0.05-1.3,0.07A22.244,22.244,0,0,0,518.381,7869.07Zm4.685,3.38,1.275-.15a31.2,31.2,0,0,1-.1,9.78c-0.409-.07-0.818-0.14-1.225-0.2A29.14,29.14,0,0,0,523.066,7872.45Zm-54.385.98c0.409,0.06.821,0.11,1.233,0.17a24.754,24.754,0,0,0-.091,6.1l-1.261.12A27.094,27.094,0,0,1,468.681,7873.43Zm-3.907.85c0.424,0.02.85,0.05,1.276,0.08a26,26,0,0,0-.02,4.92c-0.425.02-.854,0.05-1.279,0.08A37.445,37.445,0,0,1,464.774,7874.28Zm28.342,3.14a2.161,2.161,0,0,1,3.6.54,2.228,2.228,0,0,1-1.347,2.98c-0.007.76,0,1.52,0,2.28H494.1c0.01-.76.02-1.52,0.01-2.29A2.211,2.211,0,0,1,493.116,7877.42Zm1.146,0.66a0.9,0.9,0,0,0,.029,1.54,0.888,0.888,0,0,0,1.292-.46A0.9,0.9,0,0,0,494.262,7878.08Zm25.05,3.05c0.423,0.05.847,0.11,1.27,0.17a24.056,24.056,0,0,1-1.873,6.18c-0.366-.19-0.727-0.38-1.1-0.56A22.887,22.887,0,0,0,519.312,7881.13Zm-53.729,3.28,1.213-.33a34.221,34.221,0,0,0,1.6,4.65c-0.378.16-.751,0.33-1.127,0.5A31.927,31.927,0,0,1,465.583,7884.41Zm4.443,1.63c0.39-.15.787-0.28,1.179-0.43a24.1,24.1,0,0,0,2.8,5.4c-0.351.25-.7,0.49-1.055,0.73A27.3,27.3,0,0,1,470.026,7886.04Zm51.757,0.58c0.4,0.13.8,0.26,1.2,0.41a29.1,29.1,0,0,1-2.154,4.65c-0.347-.21-0.694-0.41-1.041-0.61A37.05,37.05,0,0,0,521.783,7886.62Zm-11.5,9.92a26.379,26.379,0,0,0,4.252-4.36c0.327,0.26.658,0.51,0.99,0.77a26.049,26.049,0,0,1-4.474,4.57C510.792,7897.19,510.536,7896.87,510.28,7896.54Zm-40.544-2.83c0.345-.25.687-0.49,1.024-0.74a31.393,31.393,0,0,0,3.068,3.84c-0.3.29-.608,0.58-0.909,0.87A32.945,32.945,0,0,1,469.736,7893.71Zm43.879,4.91a30.389,30.389,0,0,0,3.426-3.52c0.314,0.27.637,0.54,0.955,0.8a33.416,33.416,0,0,1-3.527,3.68Zm-36.471-2.08c0.277-.31.557-0.62,0.835-0.93a25.5,25.5,0,0,0,5,3.49c-0.2.37-.414,0.75-0.619,1.12A28.585,28.585,0,0,1,477.144,7896.54Zm22.135,5.06a30.806,30.806,0,0,0,5.857-1.82c0.163,0.36.335,0.73,0.5,1.1a29.3,29.3,0,0,1-6.058,1.97C499.483,7902.43,499.377,7902.02,499.279,7901.6Zm-22.552-.55c0.252-.33.5-0.66,0.745-0.99a32.1,32.1,0,0,0,4.165,2.6c-0.2.37-.385,0.75-0.574,1.13A33.271,33.271,0,0,1,476.727,7901.05Zm11.915,0.23a27.973,27.973,0,0,0,6.046.76c0,0.41,0,.83,0,1.24a27.257,27.257,0,0,1-6.359-.78C488.434,7902.09,488.539,7901.69,488.642,7901.28Zm16.7,2.44a29.815,29.815,0,0,0,4.369-2.18c0.222,0.35.426,0.72,0.646,1.08a25.416,25.416,0,0,1-4.582,2.25C505.627,7904.49,505.488,7904.1,505.342,7903.72Zm-19.549,1.97c0.119-.4.244-0.81,0.375-1.21a26.915,26.915,0,0,0,4.776,1.05c-0.065.42-.132,0.83-0.2,1.25A32.311,32.311,0,0,1,485.793,7905.69Zm10.012,0.06a29.555,29.555,0,0,0,4.871-.6c0.079,0.41.161,0.82,0.249,1.22a27.968,27.968,0,0,1-5.077.62C495.834,7906.58,495.82,7906.16,495.805,7905.75Z" transform="translate(-464.656 -7847)"/>
</svg>
