<svg xmlns="http://www.w3.org/2000/svg" width="60" height="60" viewBox="0 0 60 60">
  <defs>
    <style>
      .cls-1 {
        fill: #f50;
        fill-rule: evenodd;
      }
    </style>
  </defs>
  <path id="Icon_" data-name="Icon " class="cls-1" d="M490.676,7997.99a3.006,3.006,0,0,0-3,3h2a1,1,0,1,1,2,0h2A3.006,3.006,0,0,0,490.676,7997.99Zm8,0a3.005,3.005,0,0,0-3,3h2a1,1,0,1,1,2,0h2A3.006,3.006,0,0,0,498.675,7997.99Zm-4,27a4.005,4.005,0,1,0,4,4A4.007,4.007,0,0,0,494.676,8024.99Zm0,6a2,2,0,1,1,2-2A2,2,0,0,1,494.676,8030.99Zm24,6V8024a15.011,15.011,0,0,0-15-15h-1.089a12.161,12.161,0,0,0,1.008-1.01h1.081a5,5,0,0,0,5-5v-1.76a4.489,4.489,0,0,0-.012-7.48,14.99,14.99,0,0,0-29.976,0,4.494,4.494,0,0,0,2.488,8.24h0.681a12.027,12.027,0,0,0,3.909,7.01h-1.09a15.011,15.011,0,0,0-15,15v12.99h-6V8039h60v-2.01h-6Zm-11-34a2.987,2.987,0,0,1-2.6,2.96,11.872,11.872,0,0,0,1.418-3.96h0.68a4.126,4.126,0,0,0,.5-0.05v1.05Zm2-5.5a2.5,2.5,0,0,1-2.5,2.5h-0.5v-5h0.5A2.509,2.509,0,0,1,509.676,7997.49Zm-27,2.5h-0.5a2.5,2.5,0,1,1,0-5h0.5v5Zm-0.5-7a3.4,3.4,0,0,0-.452.05,12.986,12.986,0,0,1,25.9,0,3.393,3.393,0,0,0-.453-0.05H506.5a11.984,11.984,0,0,0-23.638,0h-0.681Zm22.5,1.98c-7.216-.25-12-3.21-12-5.98a1,1,0,1,0-2,0c0,2.5-2.584,4.57-5.942,4.94A10,10,0,0,1,504.674,7994.97Zm-20,5.02v-4.05a9.239,9.239,0,0,0,7.1-3.89c2.091,2.78,6.981,4.72,12.9,4.93v3.01a9.913,9.913,0,0,1-2.019,6h-7.981v2h5.973A9.986,9.986,0,0,1,484.675,7999.99Zm6.91,11.59a11.853,11.853,0,0,0,6.181,0l-3.09,6.18Zm1.473,7.41h-1.765l-4-8h1.764Zm7.236-8h1.764l-4,8h-1.764ZM475.676,8024v12.99h-3V8024a13,13,0,0,1,12.4-12.97l3.985,7.96h-8.382A5.012,5.012,0,0,0,475.676,8024Zm36,12.99h-34V8024a3,3,0,0,1,3-3h28a3,3,0,0,1,3,3v12.99Zm5,0h-3V8024a5.011,5.011,0,0,0-5-5.01h-8.382l3.985-7.96a13,13,0,0,1,12.4,12.97v12.99Zm-9-9h2v7h-2v-7Zm0-3.99h2v1.99h-2V8024Zm9-36.01h2v2h-2v-2Zm0,4h2v2h-2v-2Zm0,4h2v2h-2v-2Zm-46,4h2v2h-2v-2Zm0,4h2v2h-2v-2Zm0,4h2v2h-2v-2Z" transform="translate(-464.688 -7979)"/>
</svg>
