<svg xmlns="http://www.w3.org/2000/svg" width="56" height="42" viewBox="0 0 56 42">
  <defs>
    <style>
      .cls-1 {
        fill: #fff;
        fill-rule: evenodd;
      }
    </style>
  </defs>
  <path id="Icon_" data-name="Icon " class="cls-1" d="M1275.05,7794.68a15.874,15.874,0,0,1,8.43-.24,6.412,6.412,0,0,1,4.79,4.4c0.87,3,.44,6.22-0.15,9.22-1.13,2.79-2.38,5.66-4.65,7.62,0.13,0.92.26,1.85,0.44,2.77,2.88,0.73,5.91,1.99,7.62,4.69,1.9,2.91,1.86,6.64,1.7,10.03a3.121,3.121,0,0,1-3.33,2.82c-6.9-.01-13.8.02-20.71-0.01a3.043,3.043,0,0,1-3.04-2.74c-0.27-4.08-.11-8.88,3.06-11.74a14.132,14.132,0,0,1,6.26-3.06c0.15-.92.3-1.83,0.42-2.74-2.2-1.91-3.41-4.68-4.55-7.36a22.313,22.313,0,0,1-.49-8.61A6.422,6.422,0,0,1,1275.05,7794.68Zm-1.34,3.47c-1.3,1.84-1.18,4.31-.93,6.48,0.25-.97.41-1.96,0.75-2.9,1.34-1.45,3.1-.09,4.39.7,0.07-.38.22-1.13,0.29-1.5,0.77-1.17,2.09-.37,3.01.07,1.36,0.75,2.91.8,4.36,1.23,0.75,0.54.76,1.62,1.11,2.43,0.08-2.18.26-4.61-1.01-6.48-1.4-1.82-3.83-1.97-5.88-2.04C1277.69,7796.18,1275.17,7796.29,1273.71,7798.15Zm6.79,4.89c0.2,0.66.38,1.33,0.53,2.01a1.074,1.074,0,0,1-1.49.65c-1.51-.72-2.92-1.64-4.39-2.43-0.31,1.97-.98,3.88-1.1,5.89,0.89,2.64,2.8,5.6,5.7,5.77,2.94-.26,4.66-3.29,5.67-5.92-0.43-1.59-.75-3.22-1.04-4.85A17.416,17.416,0,0,1,1280.5,7803.04Zm-2.66,13.75c-0.15.79-.31,1.59-0.48,2.39l2.34,1.74c0.77-.6,1.55-1.18,2.33-1.77-0.2-.79-0.37-1.58-0.54-2.36A7.765,7.765,0,0,1,1277.84,7816.79Zm-8.8,8.43c-1.1,2.46-1.04,5.3-.85,7.95,0.83,1.23,2.52.49,3.74,0.69,0.05-2.18-.1-4.37.06-6.54a0.972,0.972,0,0,1,1.94-.01c0.13,2.18,0,4.37.05,6.55,3.81-.01,7.61-0.01,11.42,0,0.03-2.16-.07-4.31.03-6.47a0.985,0.985,0,0,1,1.91-.34c0.2,2.26.02,4.54,0.08,6.82,1.2-.26,3.55.73,3.8-1.13,0.14-2.69.16-5.61-1.15-8.02-1.37-2.43-4.01-3.53-6.49-4.12-1.27,1.01-2.59,1.95-3.88,2.92a37.6,37.6,0,0,0-4.1-2.85C1273,7821.22,1270.24,7822.57,1269.04,7825.22Zm-12.02-23.03c2-1.61,4.7-1.57,7.1-1.34a5.367,5.367,0,0,1,4.86,3.86,14.038,14.038,0,0,1-3.65,12.8c0.06,0.42.16,1.24,0.22,1.65,1.04,0.47,2.62.45,2.96,1.84-0.44,1.72-2.23.62-3.28,0.35-1.01.74-2.01,1.49-3.02,2.24-1.03-.76-2.06-1.52-3.08-2.29-1.55.55-3.25,1.1-4.26,2.56-1.34,1.92-1.23,4.49-1.06,6.76a9.4,9.4,0,0,0,2.31.25c0.02-1.6-.09-3.21.05-4.8a0.961,0.961,0,0,1,1.9-.15c0.15,1.62.04,3.26,0.06,4.89,2.15,0.06,4.31-.11,6.45.07,1.09,0.09,1,2.08-.13,2.01-3.29.12-6.6,0.03-9.9,0.05a2.653,2.653,0,0,1-2.84-2.67c-0.11-2.63-.04-5.53,1.54-7.72,1.33-1.91,3.52-2.75,5.59-3.36,0.07-.57.15-1.14,0.22-1.7a13.678,13.678,0,0,1-3.91-9.03C1254.98,7806.25,1255.25,7803.66,1257.02,7802.19Zm1.96,1.23c-1.49.59-1.72,2.41-2,3.85,1.65-.6,3.39-0.92,4.99-1.66,0.9-.53,1.51.53,1.98,1.15a2.785,2.785,0,0,1,3.51.01c-0.39-1.32-.74-2.97-2.18-3.42A9.458,9.458,0,0,0,1258.98,7803.42Zm-0.09,5.49c-0.23,1.15-.48,2.3-0.76,3.45,0.82,1.84,2.05,4.15,4.23,4.15,2.04-.27,3.13-2.39,3.93-4.16-0.3-1.32-.57-2.64-0.84-3.96a25.178,25.178,0,0,1-3.57,1.85c-0.88-.19-0.95-1.18-0.82-1.93C1260.34,7808.52,1259.62,7808.72,1258.89,7808.91Zm2.11,9.66c-0.09.43-.17,0.87-0.26,1.31l1.46,1.1c0.49-.37.98-0.74,1.48-1.1-0.1-.44-0.19-0.88-0.29-1.31H1261Zm29.4-13.91a5.406,5.406,0,0,1,4.91-3.82c2.43-.22,5.22-0.26,7.2,1.5,1.74,1.59,1.89,4.26,1.68,6.52a13.778,13.778,0,0,1-3.93,8.69c0.1,0.55.2,1.1,0.31,1.65,2.12,0.61,4.33,1.52,5.64,3.5,1.51,2.16,1.53,5.01,1.44,7.58a2.6,2.6,0,0,1-2.67,2.65c-3.35,0-6.71.08-10.07-.04-0.98.08-1.22-1.6-.36-1.97,2.21-.25,4.44-0.04,6.66-0.1a48.243,48.243,0,0,1,.09-4.96,0.975,0.975,0,0,1,1.89.05c0.15,1.65.04,3.3,0.06,4.95a19.1,19.1,0,0,0,2.27-.16,10.716,10.716,0,0,0-.8-6.5c-0.96-1.66-2.79-2.31-4.43-2.91-1.05.76-2.09,1.53-3.13,2.31-1.02-.77-2.04-1.52-3.07-2.26-0.97.17-2.47,1.33-3.11-.04-0.34-1.46,1.45-1.52,2.31-1.99,0.83-.15.52-1.23,0.72-1.86A13.912,13.912,0,0,1,1290.4,7804.66Zm3.44-1.21c-1.3.54-1.56,2.12-1.93,3.37a2.712,2.712,0,0,1,3.52-.06c0.44-.5.85-1.52,1.66-1.24a54.086,54.086,0,0,0,5.27,1.73c-0.27-1.4-.44-3.19-1.9-3.79A9.215,9.215,0,0,0,1293.84,7803.45Zm-0.18,10.15c0.79,1.47,2.13,3.15,3.91,2.88,1.88-.45,2.9-2.41,3.66-4.1-0.27-1.16-.52-2.31-0.75-3.47-0.72-.19-1.44-0.39-2.15-0.6,0.14,0.73-.08,2.18-1.09,1.85a26.556,26.556,0,0,1-3.32-1.79C1293.72,7810.08,1292.63,7811.98,1293.66,7813.6Zm2.31,4.97c-0.07.33-.22,0.98-0.29,1.31,0.49,0.36.99,0.73,1.48,1.1,0.48-.36.96-0.73,1.44-1.08-0.09-.45-0.17-0.9-0.26-1.34C1297.55,7818.57,1296.76,7818.57,1295.97,7818.57Z" transform="translate(-1251.66 -7794)"/>
</svg>
