<svg xmlns="http://www.w3.org/2000/svg" width="40" height="40" viewBox="0 0 40 40">
  <defs>
    <style>
      .cls-1 {
        fill: #858c9e;
        fill-rule: evenodd;
      }
    </style>
  </defs>
  <path id="Icon_" data-name="Icon " class="cls-1" d="M691,6801.99a20,20,0,1,0,20,20A20.021,20.021,0,0,0,691,6801.99Zm0,38.26a18.26,18.26,0,1,1,18.261-18.26A18.28,18.28,0,0,1,691,6840.25Zm9.565-21.73a4.353,4.353,0,0,0-4.348-4.35h-0.87v-2.61a0.87,0.87,0,1,0-1.739,0v2.61h-5.217v-2.61a0.87,0.87,0,1,0-1.739,0v2.61H682.3a0.87,0.87,0,0,0,0,1.74h2.609v12.17H682.3a0.87,0.87,0,0,0,0,1.74h4.348v2.61a0.87,0.87,0,1,0,1.739,0v-2.61h5.217v2.61a0.87,0.87,0,1,0,1.739,0v-2.61h0.87A39.919,39.919,0,0,1,700.565,6818.52Zm-1.739,6.95a2.612,2.612,0,0,1-2.609,2.61h-9.565v-5.22h9.565A2.612,2.612,0,0,1,698.826,6825.47Zm-2.609-4.35h-9.565v-5.21h9.565A2.605,2.605,0,1,1,696.217,6821.12Z" transform="translate(-671 -6802)"/>
</svg>
