<svg xmlns="http://www.w3.org/2000/svg" width="50" height="34" viewBox="0 0 50 34">
  <defs>
    <style>
      .cls-1 {
        fill: #858c9e;
        fill-rule: evenodd;
      }
    </style>
  </defs>
  <path id="Card_Icon_" data-name="Card Icon " class="cls-1" d="M520.791,6805.99H481.208A5.271,5.271,0,0,0,476,6811.3v23.38a5.265,5.265,0,0,0,5.208,5.31h39.583a5.265,5.265,0,0,0,5.208-5.31V6811.3A5.271,5.271,0,0,0,520.791,6805.99Zm3.125,28.69a3.161,3.161,0,0,1-3.125,3.19H481.208a3.161,3.161,0,0,1-3.125-3.19V6811.3a3.159,3.159,0,0,1,3.125-3.18h39.583a3.159,3.159,0,0,1,3.125,3.18v23.38h0Zm1.042-22.31H477.041a1.048,1.048,0,0,0-1.041,1.06v6.38a1.054,1.054,0,0,0,1.041,1.06h47.917a1.055,1.055,0,0,0,1.042-1.06v-6.38A1.049,1.049,0,0,0,524.958,6812.37Zm-1.042,6.37H478.083v-4.25h45.833v4.25h0Zm-28.125,8.5h-12.5a1.065,1.065,0,0,0,0,2.13h12.5A1.065,1.065,0,0,0,495.791,6827.24Zm0,4.25h-12.5a1.065,1.065,0,0,0,0,2.13h12.5A1.065,1.065,0,0,0,495.791,6831.49Zm20.834-6.37h-2.084a3.161,3.161,0,0,0-3.125,3.19v2.12a3.161,3.161,0,0,0,3.125,3.19h2.084a3.161,3.161,0,0,0,3.125-3.19v-2.12A3.161,3.161,0,0,0,516.625,6825.12Zm1.041,5.31a1.048,1.048,0,0,1-1.041,1.06h-2.084a1.048,1.048,0,0,1-1.041-1.06v-2.12a1.056,1.056,0,0,1,1.041-1.07h2.084a1.056,1.056,0,0,1,1.041,1.07v2.12Z" transform="translate(-476 -6806)"/>
</svg>
