<svg xmlns="http://www.w3.org/2000/svg" width="40" height="40" viewBox="0 0 40 40">
  <defs>
    <style>
      .cls-1 {
        fill: #858c9e;
        fill-rule: evenodd;
      }
    </style>
  </defs>
  <path id="Icon_" data-name="Icon " class="cls-1" d="M612.422,6916.97l2.352-.86a19.863,19.863,0,0,0-1.088-2.44l-2.216,1.17A17.783,17.783,0,0,1,612.422,6916.97Zm-0.138-5.57a19.817,19.817,0,0,0-1.691-2.07l-1.83,1.71a18.267,18.267,0,0,1,1.481,1.81Zm3.242,7.26v0.01l-2.447.54a17.545,17.545,0,1,1-6.022-9.77l1.587-1.94A19.987,19.987,0,1,0,615.526,6918.66Zm-28.312,5.22,8.739,12.62,8.74-12.62-8.74-14.57Zm8.739,8.22-3.677-5.32,3.677,1.64,3.678-1.64Zm0-6.42-5.447-2.42,5.447-9.08,5.447,9.08Z" transform="translate(-576 -6903)"/>
</svg>
