<svg xmlns="http://www.w3.org/2000/svg" width="40" height="40" viewBox="0 0 40 40">
  <defs>
    <style>
      .cls-1 {
        fill: #fff;
        fill-rule: evenodd;
      }
    </style>
  </defs>
  <path id="Icon_" data-name="Icon " class="cls-1" d="M1064.6,6812.94a0.722,0.722,0,0,0,.07-0.28v-16.67a2.665,2.665,0,0,0,0-5.33h-29.34a2.665,2.665,0,0,0,0,5.33v16.67a0.662,0.662,0,0,0,.67.66h5.33v10a4.675,4.675,0,0,0,4.67,4.67h8.31a6.025,6.025,0,0,0,5.15-2.91l5.42-9.04a2.621,2.621,0,0,0-.28-3.1h0Zm-5.93.38h1.64l-1.64,2.47v-2.47Zm-22-5.33h26.66v1.34h-26.66v-1.34Zm29.33-14.67a1.338,1.338,0,0,1-1.33,1.34v-2.67a1.336,1.336,0,0,1,1.33,1.33h0Zm-2.67-1.33v14.67h-26.66v-14.67h26.66Zm-29.33,1.33a1.336,1.336,0,0,1,1.33-1.33v2.67a1.338,1.338,0,0,1-1.33-1.34h0Zm2.67,18.67v-1.33h26.66v1.33h-26.66Zm27.07,3.36-5.42,9.04a4.723,4.723,0,0,1-4,2.27H1046a3.337,3.337,0,0,1-3.33-3.34v-10h2.66v2.67h1.34v-2.67h2.66v2.67h1.34v-2.67h2.66v2.67h1.34v-2.67h2.66v4.01h-2a6,6,0,0,0-6,5.99h1.34a4.665,4.665,0,0,1,4.66-4.66H1058a0.665,0.665,0,0,0,.55-0.29l2.95-4.43a1.326,1.326,0,0,1,1.81-.38,1.311,1.311,0,0,1,.43,1.79h0Zm0,0,5.59-27.36h-38.66a0.67,0.67,0,0,0-.67.67v9.33a0.67,0.67,0,0,0,.67.67H1034v-1.33h-2.67v-8h37.34v8H1066v1.33h3.33a0.67,0.67,0,0,0,.67-0.67v-9.33a0.67,0.67,0,0,0-.67-0.67h0Zm0,0-30.66,15.33a1.338,1.338,0,0,1,1.33,1.34,0.668,0.668,0,0,0,.67.66h18.66a0.668,0.668,0,0,0,.67-0.66,1.338,1.338,0,0,1,1.33-1.34,0.662,0.662,0,0,0,.67-0.66v-6.67a0.662,0.662,0,0,0-.67-0.66,1.338,1.338,0,0,1-1.33-1.34,0.67,0.67,0,0,0-.67-0.67h-18.66a0.67,0.67,0,0,0-.67.67,1.338,1.338,0,0,1-1.33,1.34,0.662,0.662,0,0,0-.67.66v6.67a0.662,0.662,0,0,0,.67.66h0Zm7.33-3.99c0-2.58,1.79-4.67,4-4.67s4,2.09,4,4.67-1.79,4.66-4,4.66-4-2.09-4-4.66h0Zm12.75-4.67a2.655,2.655,0,0,0,1.92,1.91v5.51a2.655,2.655,0,0,0-1.92,1.91h-5.41a6.463,6.463,0,0,0,0-9.33h5.41Zm-19.42,1.91a2.672,2.672,0,0,0,1.92-1.91h5.41a6.463,6.463,0,0,0,0,9.33h-5.41a2.672,2.672,0,0,0-1.92-1.91v-5.51Zm0,0,2,2.09h1.34v1.33h-1.34v-1.33Zm16,0h1.34v1.33h-1.34v-1.33Zm-24.66,14h-1.34a4.688,4.688,0,0,0,4.67,4.67v-1.34a3.329,3.329,0,0,1-3.33-3.33h0Zm0,0" transform="translate(-1030 -6788)"/>
</svg>
