<svg xmlns="http://www.w3.org/2000/svg" width="40" height="40" viewBox="0 0 40 40">
  <defs>
    <style>
      .cls-1 {
        fill: #fff;
        fill-rule: evenodd;
      }
    </style>
  </defs>
  <path id="Icon_" data-name="Icon " class="cls-1" d="M1052.48,6969a19.722,19.722,0,0,1,13.02,6.49,21.476,21.476,0,0,1,5.5,12.89c-0.31.02-.62,0.05-0.92,0.07a20.363,20.363,0,0,0-4.93-11.93,18.784,18.784,0,0,0-12.73-6.49C1052.43,6969.68,1052.46,6969.34,1052.48,6969Zm-15.65,6.17a19.61,19.61,0,0,1,12.68-6.12c0.04,0.32.06,0.65,0.08,0.97a18.781,18.781,0,0,0-12.12,5.83,20.291,20.291,0,0,0-5.55,12.6c-0.3-.02-0.61-0.05-0.92-0.07A21.438,21.438,0,0,1,1036.83,6975.17Zm11.91-3.18a16.738,16.738,0,0,1,11.13,2.36,18.046,18.046,0,0,1,7.52,9.49,18.874,18.874,0,0,1,.61,10.08,18.166,18.166,0,0,1-8.76,12.03c-5.3.04-10.6,0-15.9,0.02a1.543,1.543,0,0,1-.64-0.07,17.666,17.666,0,0,1-7.34-8.03,19,19,0,0,1-1.26-11.99,18.226,18.226,0,0,1,6.28-10.23A16.951,16.951,0,0,1,1048.74,6971.99Zm-5.55,2.87c0.36,0.67.76,1.33,1.1,2.03-0.27.13-.54,0.27-0.8,0.41-0.37-.66-0.73-1.32-1.11-1.98a17.135,17.135,0,0,0-5.34,5.66c0.61,0.36,1.23.72,1.84,1.1-0.14.28-.29,0.55-0.43,0.83-0.64-.39-1.28-0.78-1.91-1.16a18.287,18.287,0,0,0-1.97,7.73h2.22c0,0.32.01,0.64,0.01,0.97-0.74-.01-1.49,0-2.23,0a17.5,17.5,0,0,0,1.97,7.72c0.66-.36,1.31-0.73,1.97-1.09,0.15,0.28.29,0.55,0.43,0.83-0.62.39-1.24,0.77-1.87,1.15a11.812,11.812,0,0,0,1.4,2.1,16.335,16.335,0,0,0,4.59,3.95c5.34,0.03,10.68.04,16.02,0a17.35,17.35,0,0,0,6.01-6.03c-0.62-.39-1.25-0.74-1.86-1.14a3.033,3.033,0,0,1,.38-0.87c0.63,0.39,1.28.77,1.91,1.17a17.947,17.947,0,0,0,1.97-7.71c-0.74-.04-1.48.01-2.21-0.03-0.01-.32-0.01-0.64-0.01-0.96h2.22a17.954,17.954,0,0,0-1.97-7.72c-0.64.38-1.27,0.77-1.91,1.15l-0.42-.84c0.63-.38,1.27-0.77,1.9-1.15a16.98,16.98,0,0,0-5.41-5.67c-0.36.67-.75,1.33-1.11,1.99-0.27-.14-0.54-0.29-0.8-0.44l1.11-2.01a16.334,16.334,0,0,0-7.39-2.05c0,0.77,0,1.54.02,2.31a4.311,4.311,0,0,1-.95,0c0.01-.77.01-1.54,0.01-2.31A16.025,16.025,0,0,0,1043.19,6974.86Zm8.84,13.35c2.26-2.41,4.57-4.78,6.84-7.18,0.23,0.24.46,0.48,0.68,0.73-2.3,2.39-4.58,4.79-6.87,7.19a2.211,2.211,0,0,1-.26,2.39,1.847,1.847,0,0,1-2.41.34c-0.58.6-1.14,1.21-1.73,1.79-0.22-.24-0.44-0.48-0.67-0.71,0.56-.59,1.13-1.18,1.69-1.77a2.954,2.954,0,0,1-.2-1.31,1.913,1.913,0,0,1,1.59-1.7A2.946,2.946,0,0,1,1052.03,6988.21Zm-1.29.74a1.032,1.032,0,0,0-.47,1.65,1.015,1.015,0,0,0,1.79-.41A1.059,1.059,0,0,0,1050.74,6988.95Zm-19.74,2.59,0.92-.06c0.47,7.06,4.74,13.78,10.96,16.67-0.12.28-.25,0.56-0.37,0.84a20.436,20.436,0,0,1-9.63-9.97A22.935,22.935,0,0,1,1031,6991.54Zm39-.05c0.32,0,.63.02,0.94,0.04a20.873,20.873,0,0,1-11.51,17.46c-0.12-.28-0.25-0.56-0.37-0.84A19.7,19.7,0,0,0,1070,6991.49Zm-25.46,7.59q6.465-.015,12.92,0c0.02,1.37-.01,2.74,0,4.11q-6.45.015-12.92,0C1044.55,7001.82,1044.53,7000.45,1044.54,6999.08Zm0.92,0.96c0,0.73.01,1.46,0,2.19,3.69-.01,7.38.01,11.08-0.01-0.01-.73,0-1.45,0-2.18" transform="translate(-1031 -6969)"/>
</svg>
