<svg xmlns="http://www.w3.org/2000/svg" width="40" height="40" viewBox="0 0 40 40">
  <defs>
    <style>
      .cls-1 {
        fill: #858c9e;
        fill-rule: evenodd;
      }
    </style>
  </defs>
  <path id="Icon_" data-name="Icon " class="cls-1" d="M513.772,6911.04l1.826-1.71a19.581,19.581,0,0,0-1.947-1.82l-1.584,1.94A17.072,17.072,0,0,1,513.772,6911.04Zm2.7,3.79,2.213-1.17a20.346,20.346,0,0,0-1.4-2.27l-2.039,1.45A17.864,17.864,0,0,1,516.474,6914.83Zm3.3,1.27-2.349.86a17.528,17.528,0,1,1-7.258-8.87l1.316-2.13A20,20,0,1,0,519.773,6916.1Zm-10.037,16.91v-2.5H497.5l1.091-5.45,5.356-2.14-0.931-2.33-3.839,1.54,1.777-8.89-2.453-.49-2.1,10.48-5.9,2.37,0.931,2.32,4.384-1.75-1.37,6.84h15.291Z" transform="translate(-481 -6903)"/>
</svg>
