<svg xmlns="http://www.w3.org/2000/svg" width="70" height="20.03" viewBox="0 0 70 20.03">
  <defs>
    <style>
      .cls-1 {
        fill: #858c9e;
        fill-rule: evenodd;
      }
    </style>
  </defs>
  <path id="Icon_" data-name="Icon " class="cls-1" d="M573.54,6815.24a2.914,2.914,0,0,0-1.041-1.19,4.664,4.664,0,0,0-1.656-.64,13.265,13.265,0,0,0-2.251-.19l-3.981.01a1,1,0,0,0-.916.76l-2.679,12.33a0.583,0.583,0,0,0,.576.76H563.5a0.979,0.979,0,0,0,.915-0.76l0.654-2.99a0.991,0.991,0,0,1,.914-0.77h0.545a8.639,8.639,0,0,0,5.433-1.51,4.814,4.814,0,0,0,1.947-4A3.892,3.892,0,0,0,573.54,6815.24Zm-4.111,4.02a3.823,3.823,0,0,1-2.41.67h-0.467a0.591,0.591,0,0,1-.579-0.77l0.574-2.61a0.985,0.985,0,0,1,.908-0.77h0.624a2.906,2.906,0,0,1,1.658.39,1.361,1.361,0,0,1,.55,1.2A2.209,2.209,0,0,1,569.429,6819.26Zm58.457-5.07-0.12.03-0.159.03-0.2-.03-0.1-.11-0.046-.16,0-.24v-0.9H627.9v-0.27h-0.638v-0.56h-0.315v0.56h-0.214v0.27h0.214v1.05l0.147,0.51,0.434,0.17,0.181-.02,0.193-.04v-0.29h-0.016Zm2.956-1.51-0.456-.2-0.336.07-0.341.25-0.2-.24-0.322-.08-0.31.08-0.292.19v-0.21h-0.31v1.96h0.308v-1.47l0.26-.17,0.258-.06,0.211,0.03,0.1,0.12,0.046,0.19,0.015,0.24v1.12h0.31v-1.26l-0.006-.1,0-.1,0.264-.17,0.261-.07,0.2,0.04,0.111,0.11,0.039,0.19,0.021,0.24v1.12h0.311v-1.27ZM582.733,6817a6.883,6.883,0,0,0-3.407-.64,13.842,13.842,0,0,0-2.306.19c-0.571.09-.626,0.11-0.978,0.19a1.169,1.169,0,0,0-.838.93l-0.233,1.01c-0.132.65,0.22,0.62,0.367,0.57a9.257,9.257,0,0,1,1.14-.35,7.566,7.566,0,0,1,1.786-.26,4.531,4.531,0,0,1,1.734.26,0.933,0.933,0,0,1,.575.92l-0.033.28-0.275.18c-1.082.07-1.864,0.18-2.812,0.32a8.713,8.713,0,0,0-2.417.7,3.527,3.527,0,0,0-2.187,3.48,2.567,2.567,0,0,0,.776,1.91,2.81,2.81,0,0,0,2.009.73,5.725,5.725,0,0,0,1.2-.12l0.923-.34,0.782-.45,0.719-.51,0.01,0.02-0.072.32,0,0.01v0.01a0.593,0.593,0,0,0,.509.75l0.007,0.01h1.771l0.025-.01a1.008,1.008,0,0,0,.82-0.76l1.39-6.35,0.072-.52,0.034-.49A2.146,2.146,0,0,0,582.733,6817Zm-3.073,7.15-0.3.41-0.75.41a2.57,2.57,0,0,1-1,.23,2.144,2.144,0,0,1-1.086-.22l-0.368-.76a1.562,1.562,0,0,1,.279-0.98l0.808-.58a6.781,6.781,0,0,1,1.257-.3c0.436-.06,1.3-0.16,1.409-0.16l0.132,0.24C580.02,6822.58,579.776,6823.66,579.66,6824.15Zm37.7-7.14a6.889,6.889,0,0,0-3.406-.65,13.82,13.82,0,0,0-2.3.2c-0.572.09-.629,0.11-0.982,0.18a1.175,1.175,0,0,0-.836.94l-0.233,1.01c-0.131.65,0.214,0.62,0.375,0.57a10.99,10.99,0,0,1,1.13-.36,8.064,8.064,0,0,1,1.79-.25,4.512,4.512,0,0,1,1.73.26,0.917,0.917,0,0,1,.575.91l-0.029.29-0.273.18a27.606,27.606,0,0,0-2.814.32,8.438,8.438,0,0,0-2.419.7,3.794,3.794,0,0,0-1.641,1.37,3.838,3.838,0,0,0-.547,2.1,2.513,2.513,0,0,0,.78,1.91,2.805,2.805,0,0,0,2,.73,4.637,4.637,0,0,0,1.2-.12l0.92-.32,0.789-.46,0.714-.51,0.012,0.02-0.065.32-0.007.01h0a0.578,0.578,0,0,0,.507.75l0,0.01H616.1l0.029-.01a1,1,0,0,0,.811-0.76l1.394-6.34,0.074-.53,0.04-.48A2.145,2.145,0,0,0,617.36,6817.01Zm-3.068,7.15-0.309.41-0.743.41a2.58,2.58,0,0,1-.993.23,2.19,2.19,0,0,1-1.084-.22l-0.372-.75a1.624,1.624,0,0,1,.272-0.99,1.907,1.907,0,0,1,.816-0.58,7.514,7.514,0,0,1,1.255-.3c0.434-.06,1.292-0.16,1.4-0.16l0.135,0.24C614.652,6822.59,614.406,6823.66,614.292,6824.16Zm-6.131-8.88a3.127,3.127,0,0,0-1.05-1.19,4.556,4.556,0,0,0-1.656-.64,12.228,12.228,0,0,0-2.243-.18h-3.986a1,1,0,0,0-.909.77l-2.682,12.33a0.589,0.589,0,0,0,.575.76h1.909a1,1,0,0,0,.917-0.77l0.645-2.99a0.985,0.985,0,0,1,.917-0.76h0.545a8.682,8.682,0,0,0,5.446-1.52,4.838,4.838,0,0,0,1.938-4A4.133,4.133,0,0,0,608.161,6815.28Zm-4.111,4.04a3.88,3.88,0,0,1-2.4.66H601.17a0.6,0.6,0,0,1-.583-0.77l0.577-2.61a0.991,0.991,0,0,1,.911-0.77h0.618a2.9,2.9,0,0,1,1.658.39,1.368,1.368,0,0,1,.554,1.2A2.262,2.262,0,0,1,604.05,6819.32Zm20.458-5.19a0.575,0.575,0,0,0-.573-0.75h-1.707a0.967,0.967,0,0,0-.82.61l-0.094.15-0.086.4L618.841,6826l-0.078.36,0,0.01a0.568,0.568,0,0,0,.479.71l0.029,0.04h1.773a0.974,0.974,0,0,0,.822-0.62l0.092-.15,2.552-12.22h0Zm-28.82,2.38c-0.451.01-2.285,0-2.285,0a1.637,1.637,0,0,0-1.2.77s-2.73,4.95-3,5.45l-0.317-.01-0.849-5.41a1.057,1.057,0,0,0-1.039-.78h-1.708a0.586,0.586,0,0,0-.57.77s1.3,7.79,1.556,9.63a2.163,2.163,0,0,1-.015,1.19l-1.689,3.11c-0.249.42-.115,0.77,0.295,0.77l1.974-.01a1.59,1.59,0,0,0,1.2-.76l7.595-13.58C595.637,6817.66,596.367,6816.5,595.688,6816.51Z" transform="translate(-561 -6811.97)"/>
</svg>
