<svg xmlns="http://www.w3.org/2000/svg" width="65" height="65.031" viewBox="0 0 65 65.031">
  <defs>
    <style>
      .cls-1 {
        fill: #f50;
        fill-rule: evenodd;
      }
    </style>
  </defs>
  <path id="Icon_" data-name="Icon " class="cls-1" d="M524.624,750.751a31.5,31.5,0,0,1,35.99,42.689,12.2,12.2,0,1,1-17.177,17.179A31.488,31.488,0,1,1,524.624,750.751ZM521.71,753.7a29.436,29.436,0,0,0-9.46,50.07,8.179,8.179,0,0,1,7.279-7.013c1.615-.086,3.232-0.016,4.846-0.038-0.017-.924-0.02-1.849,0-2.773a15.327,15.327,0,0,1-8.119-12.956c-0.033-3.556.01-7.115-.018-10.672A13.276,13.276,0,0,1,529.7,757.089c3.308,0.054,6.616-.022,9.927.022a0.972,0.972,0,0,1,.99.993c0.03,1.386,0,2.774.036,4.158a7.144,7.144,0,0,1,5.58,4.447,10.925,10.925,0,0,1,.482,4.375c-0.015,2.029.036,4.057,0,6.087-0.041,2.368.188,4.795-.485,7.1a15.374,15.374,0,0,1-7.642,9.672c0.013,0.923.023,1.847,0,2.771,1.209-.033,2.417-0.013,3.626.01a12.281,12.281,0,0,1,16.692-4.5A29.457,29.457,0,0,0,521.71,753.7Zm-3.072,13.835a20.641,20.641,0,0,0-.356,5.394c0.879-.827,1.671-1.751,2.587-2.533,0.115-.026.348-0.075,0.462-0.1a37.47,37.47,0,0,0,5.309,1.547,25.341,25.341,0,0,0,14.344-1.351,1.13,1.13,0,0,1,1.274,0c0.818,0.794,1.615,1.612,2.4,2.436q0.023-1.94.01-3.878a5.063,5.063,0,0,0-4.544-4.789,1.879,1.879,0,0,1-1.285-.365,1.723,1.723,0,0,1-.272-1.212c0.018-1.176.026-2.353,0-3.529-3.219-.021-6.438-0.012-9.655,0A11.22,11.22,0,0,0,518.638,767.532Zm-0.34,8.346c0.035,2.9-.315,5.893.637,8.691a13.2,13.2,0,0,0,25.74-4.108c-0.017-1.532.021-3.064-.007-4.6-1.006-1.186-2.2-2.212-3.275-3.343a30.092,30.092,0,0,1-9.394,1.86,29.505,29.505,0,0,1-10.424-1.859C520.5,773.653,519.288,774.682,518.3,775.878Zm33.768,16.8a10.17,10.17,0,0,0-9.236,12.028A10.157,10.157,0,1,0,552.066,792.68ZM526.4,794.832c0.023,0.784.013,1.569,0.008,2.353,0.729,0.483,1.452.98,2.186,1.455,0.98-.3,1.924-0.711,2.925-0.934,0.962,0.251,1.886.634,2.838,0.927,0.741-.468,1.472-0.955,2.2-1.448v-2.348A15.267,15.267,0,0,1,526.4,794.832Zm-12.2,10.491a29.526,29.526,0,0,0,28.026,3.583,12.381,12.381,0,0,1-.93-10.159c-1.147.038-2.307-.076-3.45,0.061-1.063.6-2,1.409-3.087,1.96a17.233,17.233,0,0,1-3.277-.95c-1.024.308-2.009,0.728-3.039,1-1.308-.395-2.252-1.583-3.517-2.057-1.807.015-3.622-.059-5.427,0.045A6.2,6.2,0,0,0,514.205,805.323Zm37.62-7.841a1.018,1.018,0,0,1,1.967.008c0.076,1.432.008,2.868,0.031,4.3,1.437,0.031,2.879-.076,4.316.034a1.022,1.022,0,0,1,0,1.966c-1.432.075-2.872,0.014-4.309,0.044-0.035,1.43.031,2.861-.043,4.291a1.016,1.016,0,0,1-1.965.017c-0.114-1.439,0-2.881-.035-4.32-1.432-.022-2.867.045-4.3-0.031a1.015,1.015,0,0,1-.008-1.97c1.427-.094,2.859-0.01,4.288-0.031C551.809,800.356,551.731,798.918,551.825,797.482Zm-20.773,5.431a1.026,1.026,0,0,1,1.371,1.385,1,1,0,0,1-1.5.354A1.017,1.017,0,0,1,531.052,802.913Zm0,4.061a1.022,1.022,0,1,1-.013,1.822A1.034,1.034,0,0,1,531.055,806.974Z" transform="translate(-500 -750)"/>
</svg>
