<svg xmlns="http://www.w3.org/2000/svg" width="65" height="57" viewBox="0 0 65 57">
  <defs>
    <style>
      .cls-1 {
        fill: #f50;
        fill-rule: evenodd;
      }
    </style>
  </defs>
  <path id="icon_" data-name="icon " class="cls-1" d="M551.525,1010.09a2.174,2.174,0,0,1,3.82.09c0.652,1.85,1.2,3.73,1.835,5.58,1.984,0.04,3.968.03,5.951,0.1a2.014,2.014,0,0,1,1.374,3.29c-1.659,1.24-3.35,2.43-5.006,3.67,0.565,1.77,1.138,3.55,1.68,5.32a2.173,2.173,0,0,1-1.235,2.69,2.268,2.268,0,0,1-2.206-.42c-1.442-1.06-2.9-2.1-4.324-3.17-1.651,1.18-3.29,2.38-4.964,3.52a2.12,2.12,0,0,1-3.018-2.3c0.578-1.84,1.167-3.69,1.793-5.53-1.62-1.27-3.308-2.45-4.92-3.73a2.033,2.033,0,0,1,1.253-3.42c1.994-.07,3.991,0,5.985-0.03C550.232,1013.87,550.768,1011.94,551.525,1010.09Zm0.049,6.36a2.325,2.325,0,0,1-1.512,1.38c-2.107.14-4.23-.07-6.331,0.11,1.667,1.15,3.326,2.31,4.938,3.54a1.847,1.847,0,0,1,.613,2.01c-0.552,1.88-1.267,3.72-1.767,5.63,1.6-1.11,3.149-2.3,4.729-3.44a2.09,2.09,0,0,1,2.5.14c1.463,1.07,2.944,2.12,4.388,3.22-0.541-1.75-1.073-3.51-1.528-5.29a2.245,2.245,0,0,1,.879-2.52c1.513-1.1,3.062-2.14,4.565-3.25-1.979-.05-3.96.01-5.941-0.03a2.037,2.037,0,0,1-1.9-1.5c-0.613-1.8-1.144-3.63-1.762-5.43C552.8,1012.83,552.218,1014.65,551.574,1016.45Zm-18.05,5.74c0.531-.82,1.537-0.17,2.125.23a7.705,7.705,0,0,1,2.714,9.72c-0.942,1.7-2.1,3.27-3.138,4.91,2.845,0,5.69-.02,8.535,0a4.393,4.393,0,0,1,4.373,4.1,4.233,4.233,0,0,1-.882,2.86,4.319,4.319,0,0,1,2.125,5.65,4.655,4.655,0,0,1-1.717,1.91,4.377,4.377,0,0,1-.008,5.74,5.16,5.16,0,0,1-1.735,1.24,4.352,4.352,0,0,1-.921,5.96,4.873,4.873,0,0,1-3.075.9c-5.5-.02-11,0.01-16.5-0.02-3.708-.32-7.351-1.31-11.088-1.34,0.031,0.73.094,1.93-.937,1.93-4.1.04-8.2,0.01-12.3,0.01a1,1,0,0,1-1.094-1.13q-0.009-11.325,0-22.65a1.012,1.012,0,0,1,1.081-1.14c4.019-.01,8.037,0,12.056,0a1.413,1.413,0,0,1,1.076.53c2.782-2.27,3.988-5.99,7.087-7.92,1.371-.94,3.088-1.15,4.5-2.02a9.333,9.333,0,0,0,2.743-2.46C530.208,1026.86,531.855,1024.51,533.524,1022.19Zm-3.08,7.83a11.825,11.825,0,0,1-4.177,3.67c-1.282.69-2.774,0.89-4.014,1.67a12.078,12.078,0,0,0-3.154,3.39,50.665,50.665,0,0,1-4.776,5.56c0.008,5.98,0,11.97,0,17.96a9.7,9.7,0,0,1,1.426-.04c3.23,0.3,6.423.91,9.639,1.33,5.6,0.04,11.2.01,16.8,0.02a2.537,2.537,0,0,0,2.063-.85,2.366,2.366,0,0,0-.466-3.39,4.106,4.106,0,0,0-2.107-.46,1.027,1.027,0,0,1-.073-1.9c1.355-.3,2.907.32,4.135-0.5a2.351,2.351,0,0,0,0-3.78c-0.874-.67-2.021-0.33-3.028-0.47a1.023,1.023,0,0,1-.013-1.93c1.112-.18,2.261.07,3.373-0.16a2.424,2.424,0,0,0,1.557-2.93,2.314,2.314,0,0,0-1.777-1.66c-0.829-.12-1.675.05-2.5-0.1a1.035,1.035,0,0,1-.086-1.85c0.455-.14.942-0.12,1.4-0.25a2.3,2.3,0,0,0,.7-3.78,2.624,2.624,0,0,0-1.868-.61h-9.958a1.035,1.035,0,0,1-1.091-1.45c1.284-1.92,2.643-3.8,3.923-5.73a5.643,5.643,0,0,0-1.767-7.55Q532.54,1027.14,530.444,1030.02Zm-28.409,13.16c0.014,6.97-.005,13.94.008,20.91q5.12-.045,10.236,0,0.007-10.455-.006-20.91C508.861,1043.19,505.448,1043.18,502.035,1043.18Z" transform="translate(-500 -1009)"/>
</svg>
