<svg xmlns="http://www.w3.org/2000/svg" width="65" height="68.94" viewBox="0 0 65 68.94">
  <defs>
    <style>
      .cls-1 {
        fill: #f50;
        fill-rule: evenodd;
      }
    </style>
  </defs>
  <path id="Icon_" data-name="Icon " class="cls-1" d="M526.539,1252.44a31.251,31.251,0,0,1,22.448,4.72,32.312,32.312,0,0,1,13.278,18.54,34.852,34.852,0,0,1,.84,13.59,3.4,3.4,0,0,1,1.887,3.08q0.009,12.5,0,25.01a3.416,3.416,0,0,1-2.045,3.31,5.441,5.441,0,0,1-2.159.25q-25.389-.015-50.781-0.01a3.3,3.3,0,0,1-3.159-3.22c-0.025-4.28,0-8.56-.011-12.84a1.306,1.306,0,0,0-.451-1A29.658,29.658,0,0,1,500,1285.7a34.42,34.42,0,0,1,8.032-22.58A30.618,30.618,0,0,1,526.539,1252.44Zm-1.358,4.86a25.725,25.725,0,0,0-5.6,9.36c3.713,0.39,7.439.62,11.171,0.66,0-4.35.014-8.72,0-13.08A10.633,10.633,0,0,0,525.181,1257.3Zm7.7-3.04c-0.03,4.35,0,8.7-.011,13.06,3.721-.12,7.442-0.28,11.149-0.66a29.73,29.73,0,0,0-4.259-7.83A11.49,11.49,0,0,0,532.884,1254.26Zm-23.323,10.36a49,49,0,0,0,8.029,1.73,27.19,27.19,0,0,1,6.8-11.22A29.021,29.021,0,0,0,509.561,1264.62Zm29.771-9.49a29.415,29.415,0,0,1,6.947,11.24,72.66,72.66,0,0,0,7.985-1.76A29.464,29.464,0,0,0,539.332,1255.13Zm-37.03,28.26c4.114-.03,8.229.02,12.344-0.01a57.765,57.765,0,0,1,1.82-13.69c0.04-.09.04-0.09,0.076-0.18,0.076-.27.225-0.83,0.3-1.12a51.388,51.388,0,0,1-8.74-1.93A30.828,30.828,0,0,0,502.3,1283.39Zm44.564-14.99a55.5,55.5,0,0,1,2.211,14.99c4.117-.02,8.234.01,12.355-0.01a31.075,31.075,0,0,0-5.813-16.92A65.529,65.529,0,0,1,546.866,1268.4Zm-14,1.08q0.02,6.96,0,13.91c4.667,0,9.333-.01,14,0a54.727,54.727,0,0,0-2.2-14.64A110.975,110.975,0,0,1,532.865,1269.48Zm-13.922-.72a55.075,55.075,0,0,0-2.214,14.63c4.674,0,9.348-.02,14.023,0,0.008-4.64,0-9.27,0-13.92A111.044,111.044,0,0,1,518.943,1268.76Zm-16.731,16.69a31.3,31.3,0,0,0,4.62,15.32c0.027-2.89-.008-5.78.019-8.66a3.3,3.3,0,0,1,3.14-3.2c1.586-.04,3.172-0.01,4.761-0.01-0.038-1.14-.09-2.29-0.112-3.44C510.5,1285.46,506.354,1285.47,502.212,1285.45Zm46.767,0.11c0.013,1.11-.006,2.23-0.1,3.34q6.054-.015,12.108,0a20.322,20.322,0,0,0,.329-3.34C557.2,1285.55,553.091,1285.57,548.979,1285.56Zm-32.122,0c0.01,1.11.021,2.23,0.084,3.34,4.606-.01,9.21,0,13.816,0,0-1.12,0-2.23,0-3.34h-13.9Zm16.008,0.01c0.03,1.11,0,2.22,0,3.33,4.634,0,9.27-.01,13.906,0,0.014-1.11.065-2.22,0.119-3.33C542.213,1285.54,537.539,1285.56,532.865,1285.57Zm-23.9,6.78c0,2.04.008,4.09-.022,6.13q3.654-3.69,7.257-7.43c-2.064.06-4.128-.02-6.189,0.03A1.131,1.131,0,0,0,508.964,1292.35Zm10.318-1.3q-5.125,5.235-10.231,10.48c0.013,2.3-.006,4.6,0,6.9q5.124,5.22,10.223,10.46c11.154,0.01,22.309-.01,33.463.02,3.439-3.48,6.834-7,10.256-10.49,0-2.29,0-4.58.011-6.87-3.4-3.49-6.825-6.96-10.212-10.47C541.624,1291.04,530.453,1291.09,519.282,1291.05Zm36.441,0.01q3.645,3.72,7.284,7.45c-0.03-2.05.024-4.1-.014-6.15a1.2,1.2,0,0,0-1.135-1.29C559.813,1291.06,557.768,1291.07,555.723,1291.06Zm-46.762,20.4c0,2.07-.011,4.15.008,6.22a1.218,1.218,0,0,0,1.307,1.21c1.985,0.01,3.971,0,5.956,0C513.793,1316.43,511.384,1313.94,508.961,1311.46Zm46.753,7.43c2.054-.01,4.11.03,6.163-0.01a1.17,1.17,0,0,0,1.116-1.17c0.027-2.09-.013-4.18.014-6.26C560.568,1313.92,558.156,1316.42,555.714,1318.89Zm-22.064-26.2a11.965,11.965,0,0,1,9.044,1.8,12.568,12.568,0,0,1,5.337,8.15,12.837,12.837,0,0,1-1.85,9.29,12.154,12.154,0,0,1-8.446,5.43,11.787,11.787,0,0,1-7.779-1.53,12.5,12.5,0,0,1-6.016-8.98,12.667,12.667,0,0,1,2.137-9.15A12.284,12.284,0,0,1,533.65,1292.69Zm0.4,2.13a10.286,10.286,0,0,0-7.977,8.38,10.454,10.454,0,0,0,4.588,10.55,9.924,9.924,0,0,0,8.43,1.09,10.252,10.252,0,0,0,6.608-6.87,11.181,11.181,0,0,0,.288-4.77,10.328,10.328,0,0,0-6.236-7.85A9.926,9.926,0,0,0,534.046,1294.82Zm1.559,3.89c0.212-.01.641-0.03,0.853-0.03,0,0.16-.011.49-0.014,0.66a4.791,4.791,0,0,1,2.779,1.01c-0.3.41-.592,0.83-0.885,1.25a9.13,9.13,0,0,0-1.88-.77c-0.016.88-.014,1.75-0.011,2.63,0.959,0.37,2.159.55,2.719,1.55a2.745,2.745,0,0,1-.788,3.31,4.471,4.471,0,0,1-1.936.68c0,0.31,0,.63.008,0.95h-0.842c0-.33,0-0.65,0-0.97a6.692,6.692,0,0,1-3.292-1.52c0.313-.39.628-0.78,0.94-1.17a7.3,7.3,0,0,0,2.347,1.22c0.008-.88,0-1.76,0-2.63-1.262-.28-2.835-0.96-2.868-2.51a2.912,2.912,0,0,1,2.882-2.95C535.613,1299.24,535.608,1298.89,535.605,1298.71Zm-1.274,3.39c-0.051.74,0.75,0.95,1.266,1.19,0.011-.8.011-1.59,0-2.38C535.043,1301.07,534.261,1301.37,534.331,1302.1Zm2.13,2.94c-0.006.86-.014,1.72,0,2.59a1.383,1.383,0,0,0,1.353-1.37C537.767,1305.54,536.985,1305.31,536.461,1305.04Zm-22.282-4.71a4.737,4.737,0,0,1,5.912,3.12,4.924,4.924,0,0,1-2.721,6.04,4.764,4.764,0,0,1-6.182-2.67A4.919,4.919,0,0,1,514.179,1300.33Zm0.48,2.11a2.748,2.748,0,0,0-1.059,4.31,2.634,2.634,0,0,0,4.506-1.01A2.675,2.675,0,0,0,514.659,1302.44Zm41.273-2.25a4.771,4.771,0,0,1,5.448,3.58,4.957,4.957,0,0,1-1.974,5.25,4.685,4.685,0,0,1-5.131.09,4.894,4.894,0,0,1-2.151-5.1A4.794,4.794,0,0,1,555.932,1300.19Zm0.013,2.23a2.743,2.743,0,0,0-.942,4.56A2.661,2.661,0,1,0,555.945,1302.42Z" transform="translate(-500 -1252)"/>
</svg>
