<svg xmlns="http://www.w3.org/2000/svg" width="65" height="65" viewBox="0 0 65 65">
  <defs>
    <style>
      .cls-1 {
        fill: #f50;
        fill-rule: evenodd;
      }
    </style>
  </defs>
  <path id="Icon_" data-name="Icon " class="cls-1" d="M817.066,868.1a1.017,1.017,0,1,1-.132,1.761A1.03,1.03,0,0,1,817.066,868.1Zm0.006,4.056a1,1,0,0,1,1.432.9c0.038,6.188.012,12.379,0.012,18.569a1.1,1.1,0,0,1-.581,1.17,1.019,1.019,0,0,1-1.452-.886c-0.013-6.194.01-12.391-.011-18.585A1.124,1.124,0,0,1,817.072,872.154Zm-23.367,1.532a1.017,1.017,0,1,1-.133,1.759A1.02,1.02,0,0,1,793.705,873.686Zm46.711,0.008a0.993,0.993,0,0,1,1.424.616A1.018,1.018,0,1,1,840.416,873.694ZM813,876.22a1.018,1.018,0,1,1-.406,1.5A1,1,0,0,1,813,876.22Zm8.12,0a1.006,1.006,0,0,1,1.429.673A1.018,1.018,0,1,1,821.124,876.224Zm-27.407,1.517a1,1,0,0,1,1.427.9c0.033,3.148.015,6.295,0.015,9.443a1.038,1.038,0,1,1-2.033,0c0.007-3.143-.031-6.283.01-9.426A0.982,0.982,0,0,1,793.717,877.741Zm46.9-.077a1.018,1.018,0,0,1,1.241.972c0.053,3.057,0,6.116.018,9.172a1.4,1.4,0,0,1-.442,1.341,1.01,1.01,0,0,1-1.582-.806c-0.068-3.142.028-6.285-.03-9.427A1.108,1.108,0,0,1,840.622,877.664Zm-27.6,2.615a1.009,1.009,0,0,1,1.394.662,14.6,14.6,0,0,1,.058,2.028c-0.061,2.973.041,5.946-.028,8.917a1,1,0,0,1-1.424.906,1.14,1.14,0,0,1-.61-1.176c0.036-3.484-.023-6.966.028-10.446A0.914,0.914,0,0,1,813.017,880.279Zm8.12,0a1.059,1.059,0,0,1,1.452,1.156c-0.025,3.488.023,6.976-.02,10.462a1.011,1.011,0,0,1-1.582.8,1.767,1.767,0,0,1-.455-1.6q0.024-4.826,0-9.653A1.142,1.142,0,0,1,821.137,880.28Zm-31.487.509a1.018,1.018,0,1,1-.148,1.759A1.022,1.022,0,0,1,789.65,880.789Zm8.137-.006a1.017,1.017,0,1,1-.294,1.653A1.021,1.021,0,0,1,797.787,880.783Zm38.577,0.009a1.014,1.014,0,0,1,1.424.679A1.019,1.019,0,1,1,836.364,880.792Zm8.323-.081a1.035,1.035,0,0,1,1.155,1.436,1.023,1.023,0,0,1-1.75.15A1.011,1.011,0,0,1,844.687,880.711Zm-55.032,4.14a1,1,0,0,1,1.427.9,11.434,11.434,0,0,1-.074,2.482,1.018,1.018,0,0,1-1.932-.408C789.172,886.864,788.631,885.449,789.655,884.851Zm8.1,0a1.013,1.013,0,0,1,1.453.889,11.773,11.773,0,0,1-.074,2.484,1.025,1.025,0,0,1-1.853.006,9.852,9.852,0,0,1-.082-2.475A0.937,0.937,0,0,1,797.754,884.853Zm38.6,0a1.006,1.006,0,0,1,1.44.883c0.03,0.693.053,1.391,0.015,2.087a1.016,1.016,0,0,1-1.607.807c-0.594-.417-0.388-1.221-0.434-1.836C835.805,886.135,835.6,885.2,836.358,884.856Zm8.143,0a1,1,0,0,1,1.43.888,10.49,10.49,0,0,1-.084,2.493,1.013,1.013,0,0,1-1.927-.4C844.034,886.869,843.478,885.446,844.5,884.851Zm-51.335,5.543a9.144,9.144,0,1,1-7.02,4.659A9.119,9.119,0,0,1,793.166,890.394Zm-0.668,2.172a7.1,7.1,0,1,0,8.58,5.411A7.155,7.155,0,0,0,792.5,892.566Zm47.359-2.169a9.151,9.151,0,1,1-3.747,1.28A9,9,0,0,1,839.857,890.4Zm-0.635,2.176a7.108,7.108,0,1,0,5.952,1.267A7.117,7.117,0,0,0,839.222,892.573Zm-46.152,2.536a1.08,1.08,0,1,1,2.143,0,3.4,3.4,0,0,1,1.962,2.335,1.015,1.015,0,0,1-1.264,1.133c-0.769-.173-0.675-1.238-1.369-1.513-0.474-.191-1.284,0-1.15.66-0.046.64,0.709,0.723,1.148,0.917a3.151,3.151,0,0,1,2.4,2.1,2.707,2.707,0,0,1-1.719,3.138,1.132,1.132,0,0,1-1.371,1.162,1.322,1.322,0,0,1-.8-1.248,3.4,3.4,0,0,1-1.927-2.261,1.015,1.015,0,0,1,1.158-1.193c0.878,0.122.8,1.368,1.635,1.568,0.528,0.282,1.414-.3.942-0.885-0.789-.521-1.818-0.579-2.547-1.214a2.816,2.816,0,0,1-.624-3.518A3.235,3.235,0,0,1,793.07,895.109Zm46.719,0a1.2,1.2,0,0,1,.83-1.185,1.132,1.132,0,0,1,1.315,1.185,3.371,3.371,0,0,1,1.96,2.328,1.022,1.022,0,0,1-1.269,1.133c-0.82-.19-0.688-1.422-1.539-1.549a0.738,0.738,0,0,0-1.01.7c0.028,0.7.848,0.764,1.348,0.988a2.981,2.981,0,0,1,2.229,2.062,2.683,2.683,0,0,1-1.716,3.107,1.171,1.171,0,0,1-1.087,1.2,1.193,1.193,0,0,1-1.064-1.277,3.324,3.324,0,0,1-1.978-2.538c0.061-.914,1.1-0.9,1.745-1.187a2.67,2.67,0,0,1-1.143-3.793A3.329,3.329,0,0,1,839.789,895.109Zm-0.457,5.3c0.485,0.7,1.162,2.079,2.219,1.345,0.579-.982-1.023-1.148-1.62-1.392l0.056-.184C839.768,900.252,839.548,900.331,839.332,900.408ZM810.856,896.6a14.047,14.047,0,0,1,19.937,7.825,14.253,14.253,0,0,1-.043,9.281c-0.729-.008-1.458,0-2.187,0a12.021,12.021,0,1,0-22.125,0q-1.089-.007-2.176.022a14.259,14.259,0,0,1-.335-8.377A14.075,14.075,0,0,1,810.856,896.6Zm6.134,4.167a1.357,1.357,0,0,1,1.379.167,9.205,9.205,0,0,1,.173,1.49,4.628,4.628,0,0,1,3.638,3.419,1.019,1.019,0,0,1-1.7.826,15.7,15.7,0,0,0-.858-1.42,3,3,0,0,0-3.8-.363,1.656,1.656,0,0,0,.457,2.732c1.547,0.731,3.469.8,4.69,2.135a3.343,3.343,0,0,1,.437,3.96q-3.87-.015-7.742,0c-0.442-.7-1.252-1.648-0.571-2.448a1.314,1.314,0,0,1,1.417-.19,4.313,4.313,0,0,0,1.409,1.938,2.784,2.784,0,0,0,3.676-.285,1.316,1.316,0,0,0-.528-1.917c-1.361-.739-3.029-0.78-4.286-1.734a3.743,3.743,0,0,1-1.1-4.775,4.023,4.023,0,0,1,2.778-1.859C816.477,901.857,816.378,901.088,816.99,900.766Zm-29.859,15.1a4.388,4.388,0,0,1,1.17-.144q28.309,0.012,56.619,0a10.806,10.806,0,0,1,3.133.2A3.006,3.006,0,0,1,850,918.754q0.011,5.6,0,11.206a3.022,3.022,0,0,1-3.032,3.029c-3.565,0-7.132.018-10.7-.008a1,1,0,0,1-.891-1.445,1.107,1.107,0,0,1,1.158-.573c3.481-.016,6.965.014,10.448-0.013a0.958,0.958,0,0,0,.98-0.975c0.018-3.737.011-7.476,0-11.214a0.958,0.958,0,0,0-1-.987q-29.342-.03-58.691-0.013a1.032,1.032,0,0,0-1.234.978q-0.027,5.614,0,11.228a1.049,1.049,0,0,0,1.257,1q19.683-.007,39.363,0a1.189,1.189,0,0,1,1.232.546,1.01,1.01,0,0,1-.955,1.482q-19.946.018-39.889,0A3.026,3.026,0,0,1,785,929.954q-0.008-5.591,0-11.176A3.018,3.018,0,0,1,787.131,915.867Zm3.539,6.045a1.01,1.01,0,0,1,1.427.9,21.6,21.6,0,0,1-.066,3.488,1.019,1.019,0,0,1-1.914-.162c-0.084-1.019-.028-2.045-0.041-3.065A1.106,1.106,0,0,1,790.67,921.912Zm4.058,0a1,1,0,0,1,1.432.9c0.015,1.1.053,2.214-.023,3.317a1.012,1.012,0,0,1-1.958,0,30.624,30.624,0,0,1-.025-3.305A0.978,0.978,0,0,1,794.728,921.915Zm4.06,0a1,1,0,0,1,1.434.887,32.538,32.538,0,0,1-.017,3.335,1.02,1.02,0,0,1-1.961.015c-0.078-1.024-.05-2.054-0.048-3.077A1.127,1.127,0,0,1,798.788,921.918Zm4.067,0a1,1,0,0,1,1.437.874c0.013,1.113.041,2.233-.033,3.345a1.013,1.013,0,0,1-1.957,0c-0.074-1.012-.033-2.031-0.051-3.044A1.134,1.134,0,0,1,802.855,921.915Zm4.053,0a1.008,1.008,0,0,1,1.439.9,29.21,29.21,0,0,1-.028,3.321,1.011,1.011,0,0,1-1.95,0,29.833,29.833,0,0,1-.028-3.33A0.977,0.977,0,0,1,806.908,921.918Zm4.062-.006a1.016,1.016,0,0,1,1.442.9,32.439,32.439,0,0,1-.028,3.315,1.016,1.016,0,0,1-1.9.2,15.919,15.919,0,0,1-.1-2.721C810.4,923.015,810.282,922.174,810.97,921.912Zm4.065,0.006a1.023,1.023,0,0,1,1.45.891c0.023,1.036.008,2.076-.013,3.111a1.072,1.072,0,0,1-.975,1.019,1.1,1.1,0,0,1-1.046-1.031c-0.03-1.036,0-2.072.016-3.107A0.971,0.971,0,0,1,815.035,921.918Zm4.06,0a1,1,0,0,1,1.437.883,20.352,20.352,0,0,1-.073,3.519,1.02,1.02,0,0,1-1.9-.181c-0.078-1.113-.043-2.235-0.025-3.35A0.943,0.943,0,0,1,819.1,921.92Zm4.063,0a1,1,0,0,1,1.439.891c0.018,1.1.051,2.213-.022,3.318a1.011,1.011,0,0,1-1.953.019,28.491,28.491,0,0,1-.03-3.332A0.979,0.979,0,0,1,823.158,921.918Zm4.065,0a1.008,1.008,0,0,1,1.437.9c0,1.105.089,2.219-.018,3.32a1.019,1.019,0,0,1-1.963,0c-0.076-1.018-.04-2.046-0.05-3.066A1.14,1.14,0,0,1,827.223,921.918Zm4.055,0a0.993,0.993,0,0,1,1.447.86c0.015,1.11.048,2.231-.025,3.343a1.015,1.015,0,0,1-1.961.012c-0.071-1.016-.04-2.036-0.045-3.052A1.137,1.137,0,0,1,831.278,921.922Zm4.075-.007a1.01,1.01,0,0,1,1.432.9,29.321,29.321,0,0,1-.031,3.341,1.012,1.012,0,0,1-1.95-.026,30.24,30.24,0,0,1-.025-3.312A0.978,0.978,0,0,1,835.353,921.915Zm4.055,0a1.017,1.017,0,0,1,1.445.893c0.035,1.111.035,2.228-.031,3.336a1.014,1.014,0,0,1-1.957-.01c-0.082-1.018-.028-2.043-0.036-3.063A1.071,1.071,0,0,1,839.408,921.912Zm4.06,0.008a1.018,1.018,0,0,1,1.45.906c0.022,1.1.035,2.207-.033,3.308a1.016,1.016,0,0,1-1.958.021c-0.119-1.024-.01-2.057-0.036-3.085A1.1,1.1,0,0,1,843.468,921.92Zm-11.68,9.138a1.018,1.018,0,1,1-.267,1.648A1.027,1.027,0,0,1,831.788,931.058Z" transform="translate(-785 -868)"/>
</svg>
