<svg xmlns="http://www.w3.org/2000/svg" width="65" height="65" viewBox="0 0 65 65">
  <defs>
    <style>
      .cls-1 {
        fill: #f50;
        fill-rule: evenodd;
      }
    </style>
  </defs>
  <path id="Icon_" data-name="Icon " class="cls-1" d="M810.441,1132.82a29.355,29.355,0,1,1,12.566,56.79,30.167,30.167,0,0,1-8.684-.58,10.6,10.6,0,0,1-2.068.62c0.026,2.11,0,4.23,0,6.35-2.794,0-5.591-.01-8.386,0a6.019,6.019,0,0,0-1.287-4.49,5.29,5.29,0,0,0-7.1-.76,5.714,5.714,0,0,0-2.108,5.25c-2.794-.01-5.591,0-8.385,0,0-2.8.008-5.59,0-8.39a5.956,5.956,0,0,0,4.464-1.28,5.269,5.269,0,0,0,.773-7.11,5.742,5.742,0,0,0-5.237-2.1c0.008-2.8,0-5.59,0-8.38,2.115,0.02,4.233-.03,6.349-0.01a9.067,9.067,0,0,1,.623-2.07A29.377,29.377,0,0,1,810.441,1132.82Zm-8.393,7.63a17.243,17.243,0,0,0,6.653,4.34,41.211,41.211,0,0,1,8.818-11.53A27.431,27.431,0,0,0,802.048,1140.45Zm21.738-7.18a41.415,41.415,0,0,1,8.815,11.54,16.435,16.435,0,0,0,6.648-4.36A27.318,27.318,0,0,0,823.786,1133.27Zm-13.017,12.21a36.978,36.978,0,0,0,8.82,1.22c0.008-4.15-.007-8.3.008-12.45A40.491,40.491,0,0,0,810.769,1145.48Zm10.931-11.23c0,4.15.01,8.31-.008,12.46a37.207,37.207,0,0,0,8.844-1.23A40.574,40.574,0,0,0,821.7,1134.25Zm-21.162,7.7a27.426,27.426,0,0,0-7.13,17.35q5.764-.015,11.531,0a33.9,33.9,0,0,1,2.85-12.58A19.019,19.019,0,0,1,800.538,1141.95Zm32.965,4.76a34,34,0,0,1,2.844,12.56c2.467,0.05,4.931.04,7.4,0.01-0.013.7-.029,1.41-0.034,2.11q-3.68.03-7.358,0a33.786,33.786,0,0,1-2.852,12.58,19.048,19.048,0,0,1,7.259,4.76,27.34,27.34,0,0,0,7.124-17.33c-0.7-.01-1.392,0-2.086.01,0.013-.71.015-1.41,0.013-2.11h2.076a27.426,27.426,0,0,0-7.114-17.33A19.379,19.379,0,0,1,833.5,1146.71Zm-26.454,12.57c4.184,0.05,8.367-.01,12.551.02q-0.027-5.25,0-10.5a36.984,36.984,0,0,1-9.754-1.4A31.382,31.382,0,0,0,807.049,1159.28Zm14.648-10.47c0.023,3.48-.013,6.97,0,10.46,4.183,0.06,8.37,0,12.553.03a31.564,31.564,0,0,0-2.8-11.89A37.844,37.844,0,0,1,821.7,1148.81Zm-28.283,12.61c0.05,0.98.146,1.95,0.267,2.92a7.4,7.4,0,0,1,8.459-1,7.513,7.513,0,0,1,3.8,5.5,46.861,46.861,0,0,1-.983-7.42Q799.188,1161.375,793.414,1161.42Zm13.635-.03a32.354,32.354,0,0,0,1.135,7.32c1.366,0.05,2.734.02,4.1,0.03q-0.056,1.98,0,3.96a40.864,40.864,0,0,1,7.316-.8c-0.026-3.5.026-7-.029-10.5C815.4,1161.4,811.222,1161.42,807.049,1161.39Zm14.645,0c0.006,3.5.013,7,0,10.5a37.5,37.5,0,0,1,9.767,1.4,31.423,31.423,0,0,0,2.768-11.89C830.051,1161.4,825.872,1161.42,821.694,1161.39Zm-27.465,5.55a6.294,6.294,0,0,0-.847,3.89c-2.1-.02-4.191.03-6.286,0,0.016,1.42-.013,2.84,0,4.25a7.45,7.45,0,0,1,5.552,4.08,7.326,7.326,0,0,1-.907,7.83,7.484,7.484,0,0,1-4.645,2.66c0,1.42,0,2.83,0,4.25,1.416-.02,2.828,0,4.244,0a7.668,7.668,0,0,1,1.837-3.88,7.367,7.367,0,0,1,12.734,3.88c1.413,0,2.826,0,4.239-.01-0.016-2.09.024-4.19,0.008-6.28a8.334,8.334,0,0,0,2.634-.25,5.242,5.242,0,0,0,1.4-9.3,6.317,6.317,0,0,0-4.034-.94c-0.008-2.1.023-4.19-.029-6.28q-3.133-.015-6.27-0.01a7.62,7.62,0,0,0-.315-2.84A5.234,5.234,0,0,0,794.229,1166.94Zm19.119,7.7a1.622,1.622,0,0,0-1.161.43,7.462,7.462,0,0,1,5.623,4.07,7.538,7.538,0,0,1,.264,5.87c0.485,0.5,1,.98,1.521,1.44,0-4.15-.011-8.3,0-12.45A39.673,39.673,0,0,0,813.348,1174.64Zm8.365-.63c-0.042,4.14,0,8.29-.016,12.43a40.2,40.2,0,0,0,8.82-11.22A35.381,35.381,0,0,0,821.713,1174.01Zm2.078,13.42a27.517,27.517,0,0,0,15.46-7.18,17.237,17.237,0,0,0-6.655-4.35A41.481,41.481,0,0,1,823.791,1187.43Z" transform="translate(-785 -1131)"/>
</svg>
