<svg xmlns="http://www.w3.org/2000/svg" width="50" height="49" viewBox="0 0 50 49">
  <defs>
    <style>
      .cls-1 {
        fill: #f50;
        fill-rule: evenodd;
      }
    </style>
  </defs>
  <path id="Icon_" data-name="Icon " class="cls-1" d="M1151.92,2677.66a1.246,1.246,0,0,1,2.28.26,1.436,1.436,0,0,1-.77,1.58c-0.05,1.64.04,3.28-.05,4.92a19.5,19.5,0,0,1-1.66,1.74c1.66,0.02,3.33-.02,4.99.02a3.216,3.216,0,0,1,3.02,3.02c0.03,1.52,0,3.04.01,4.56,0.59-.61,1.21-1.2,1.79-1.81,1.67-.02,3.33-0.01,4.99-0.02a1.369,1.369,0,0,1,1.86-.65,1.243,1.243,0,0,1-.02,2.15,1.368,1.368,0,0,1-1.83-.67c-1.35,0-2.7.01-4.05,0a0.861,0.861,0,0,0-.76.18c-0.67.64-1.31,1.32-1.98,1.97v2.01c0.78-.74,1.49-1.55,2.28-2.28,0.36-.33,1-0.05,1.25-0.56a1.213,1.213,0,0,1,2.05.26,1.227,1.227,0,0,1-1.19,1.74,1.525,1.525,0,0,1-1.17-.82c-0.1.01-.31,0.02-0.42,0.03-0.21.21-.42,0.42-0.63,0.62q0.72,0.66,1.38,1.38c0.58,0.02,1.16.02,1.74,0.02a1.3,1.3,0,0,1,1.98-.55,1.228,1.228,0,0,1-.43,2.16,1.624,1.624,0,0,1-1.61-.77c-0.66-.05-1.32.03-1.98-0.05a19.278,19.278,0,0,1-1.64-1.62c-0.55.54-1.1,1.07-1.62,1.64,0.02,0.81.01,1.64,0.01,2.46,0.46-.47.93-0.94,1.4-1.39,1.34,0.01,2.69-.01,4.03,0,0.08,0.12.22,0.37,0.3,0.5a1.525,1.525,0,0,1-1.36.33c-0.88-.01-1.75-0.01-2.63-0.01-0.35.36-.71,0.71-1.06,1.07,1.92-.09,3.84.04,5.76-0.04a1.466,1.466,0,0,1,1.45-.77,1.236,1.236,0,0,1,.52,2.19,1.324,1.324,0,0,1-1.97-.57c-1.9-.01-3.8-0.01-5.7-0.01,0.32,0.33.64,0.66,0.97,0.99,1.25-.01,2.5.01,3.75,0,0.14,0.27.32,0.56,0,.79a39.273,39.273,0,0,1-4.06,0c-0.5-.4-0.93-0.9-1.4-1.35v2.5c0.53,0.53,1.06,1.07,1.59,1.6,0.56-.57,1.11-1.13,1.71-1.66,0.64,0,1.27.02,1.91-.01a2.258,2.258,0,0,1,1.21-.79,1.237,1.237,0,0,1,1.1,1.95,1.32,1.32,0,0,1-2.23-.29,7.438,7.438,0,0,0-1.7.03,16.858,16.858,0,0,0-1.43,1.37,1.785,1.785,0,0,0,.99.65,1.738,1.738,0,0,1,1.46-.85,1.252,1.252,0,0,1,.67,2.16,1.37,1.37,0,0,1-2.09-.53c-0.17,0-.51.01-0.68,0.01-0.87-.79-1.67-1.65-2.5-2.48,0.1,0.84-.35,1.92.47,2.5a12.194,12.194,0,0,0,1.79,1.66c1.5,0.04,3.01.01,4.52,0.01a1.452,1.452,0,0,1,1.33-.81,1.233,1.233,0,0,1,.7,2.16,1.3,1.3,0,0,1-2.01-.52c-1.65-.01-3.3.04-4.95-0.02a18.79,18.79,0,0,1-1.86-1.82c0,1.56.02,3.11-.01,4.66a3.208,3.208,0,0,1-2.99,3.1c-1.66.05-3.33,0-5,.03,0.56,0.54,1.12,1.08,1.65,1.65,0,1.65-.01,3.31,0,4.96a1.359,1.359,0,0,1,.7,1.77,1.243,1.243,0,0,1-2.23-.02,1.359,1.359,0,0,1,.7-1.74c-0.02-1.56.02-3.12,0-4.68-0.68-.63-1.32-1.3-1.98-1.95-0.67-.01-1.34,0-2.01,0,0.7,0.72,1.44,1.4,2.12,2.14a1.114,1.114,0,0,1,.19.91,1.361,1.361,0,0,1,.61,1.95,1.249,1.249,0,0,1-2.24-.51,1.485,1.485,0,0,1,.78-1.44c0.16-.46-0.37-0.72-0.58-1.04-0.49.45-.95,0.92-1.43,1.38-0.01.57-.01,1.15-0.01,1.73a1.312,1.312,0,0,1,.51,2.04,1.231,1.231,0,0,1-2.14-.63,1.387,1.387,0,0,1,.8-1.41c0-.67.01-1.35,0-2.02,0.54-.57,1.1-1.11,1.66-1.67-0.48-.45-0.92-0.96-1.43-1.39-0.83-.1-1.68,0-2.52-0.04,0.42,0.41.83,0.81,1.24,1.24-0.01,1.35.03,2.71-.02,4.07-0.13.05-.39,0.16-0.52,0.22a0.94,0.94,0,0,1-.28-0.63c-0.02-1.11.01-2.22,0-3.33-0.34-.33-0.67-0.67-1-1,0.02,1.89,0,3.78,0,5.67a1.433,1.433,0,0,1,.72,1.77,1.247,1.247,0,0,1-2.28-.06,1.479,1.479,0,0,1,.72-1.71c0.05-1.91,0-3.83.01-5.74-0.34.36-.69,0.71-1.04,1.05-0.04,1.26.06,2.52-.04,3.78l-0.62.18a3.777,3.777,0,0,1-.17-1.64c0.03-.86-0.04-1.74.03-2.6a12.651,12.651,0,0,1,1.17-1.26c-0.83-.01-1.66-0.02-2.5.01q-0.69.72-1.41,1.41c0.53,0.56,1.12,1.06,1.61,1.65a13.9,13.9,0,0,1,.05,2.04,1.33,1.33,0,0,1,.63,1.86,1.236,1.236,0,0,1-2.26-.38,1.391,1.391,0,0,1,.8-1.48c0.01-.57.01-1.13,0-1.7-0.47-.46-0.93-0.93-1.4-1.4-0.21.2-.43,0.41-0.64,0.62,0,0.11.01,0.33,0.01,0.44a1.307,1.307,0,0,1,.43,2.1,1.242,1.242,0,0,1-2.09-.9,1.56,1.56,0,0,1,.8-1.22,6.337,6.337,0,0,1,.07-0.75c0.69-.83,1.52-1.53,2.26-2.31-0.65,0-1.31-.03-1.96.01-0.74.6-1.36,1.33-2.04,1.99,0,1.52.04,3.04,0.01,4.56a1.857,1.857,0,0,1,.81,1.24,1.25,1.25,0,0,1-1.94,1.07,1.3,1.3,0,0,1,.27-2.22c0.07-1.67-.08-3.36.08-5.02,0.49-.58,1.07-1.09,1.59-1.65-1.58.05-3.16,0.01-4.74,0.02a3.229,3.229,0,0,1-3.22-3.11c-0.01-1.47-.02-2.95.01-4.43-0.55.54-1.09,1.11-1.68,1.61-1.64-.01-3.29,0-4.93-0.01a1.3,1.3,0,0,1-1.71.7,1.235,1.235,0,0,1,.09-2.28,1.41,1.41,0,0,1,1.64.76c1.55-.03,3.1.06,4.63-0.05a18.242,18.242,0,0,0,1.87-1.86,12.526,12.526,0,0,0,.08-2.04c-0.76.75-1.49,1.52-2.27,2.23-0.86-.27-1.1.83-1.89,0.83a1.193,1.193,0,0,1-1.32-1.2,1.268,1.268,0,0,1,1.53-1.24,2.119,2.119,0,0,1,.93.8c0.1,0,.3.01,0.4,0.01,0.21-.21.43-0.42,0.65-0.63-0.46-.45-0.89-0.94-1.38-1.36a9.523,9.523,0,0,0-1.69-.06,1.449,1.449,0,0,1-1.55.79,1.23,1.23,0,0,1-.4-2.22,1.374,1.374,0,0,1,1.93.62,2.992,2.992,0,0,1,3.67,1.64c0.47-.47.94-0.93,1.39-1.42-0.02-.82-0.01-1.64,0-2.46-0.41.39-.81,0.81-1.24,1.19-1.39-.09-2.8.09-4.19-0.11,0-.17.01-0.34,0.01-0.51,0.08-.06.25-0.18,0.34-0.24,1.19,0.04,2.37-.01,3.56.02,0.34-.34.67-0.68,1.01-1.01-1.9.04-3.8-.01-5.7,0.02a1.462,1.462,0,0,1-1.43.8,1.224,1.224,0,0,1-.79-1.97,1.3,1.3,0,0,1,2.19.33c1.92,0.02,3.83,0,5.75,0-0.34-.34-0.67-0.68-1-1.02-1.31-.06-2.63.07-3.93-0.09,0-.2-0.01-0.4-0.01-0.59a18.39,18.39,0,0,1,4.2-.13,9.14,9.14,0,0,1,1.24,1.17c-0.08-.85.07-1.72-0.08-2.56-0.41-.47-0.88-0.89-1.31-1.34-0.55.54-1.1,1.08-1.64,1.63-0.69.02-1.38,0.01-2.07,0.02a1.738,1.738,0,0,1-.91.78,1.242,1.242,0,0,1-1.54-1.13,1.283,1.283,0,0,1,1.58-1.28,2.414,2.414,0,0,1,.91.8c0.55-.01,1.09.02,1.64-0.02a17.156,17.156,0,0,0,1.44-1.39c-0.2-.2-0.4-0.4-0.6-0.61l-0.43-.04a1.608,1.608,0,0,1-1.16.84,1.234,1.234,0,1,1,.01-2.46,1.634,1.634,0,0,1,1.14.83c0.24-.01.48-0.03,0.71-0.04,0.78,0.75,1.54,1.52,2.31,2.29-0.02-.66-0.02-1.32-0.01-1.98-0.63-.67-1.29-1.32-1.95-1.97-1.55.01-3.1,0-4.66,0.01a1.307,1.307,0,0,1-1.9.59,1.233,1.233,0,0,1,.5-2.22,1.414,1.414,0,0,1,1.43.79c1.66,0.04,3.32-.06,4.97.05a19.634,19.634,0,0,1,1.6,1.56c0.01-1.39-.01-2.78,0-4.16a3.252,3.252,0,0,1,3.05-3.21c1.67-.02,3.34,0,5.01,0a23.009,23.009,0,0,1-1.67-1.75c-0.06-1.64,0-3.28-.02-4.93a1.382,1.382,0,0,1-.74-1.72,1.243,1.243,0,0,1,2.2-.15,1.3,1.3,0,0,1-.64,1.83c0.05,1.56-.07,3.13.04,4.68,0.62,0.73,1.36,1.34,2,2.04h2.02c-0.71-.74-1.48-1.43-2.18-2.19a1.269,1.269,0,0,1-.22-0.94,1.462,1.462,0,0,1-.78-1.43,1.232,1.232,0,0,1,2.31-.34,1.31,1.31,0,0,1-.72,1.77,1.67,1.67,0,0,0,.64,1.06c0.49-.46.97-0.94,1.44-1.43,0-.56,0-1.12-0.01-1.68a1.5,1.5,0,0,1-.81-1.24,1.242,1.242,0,0,1,2.17-.8,1.281,1.281,0,0,1-.52,2c0,0.69,0,1.38-.01,2.07-0.55.55-1.09,1.1-1.65,1.65a13.743,13.743,0,0,0,1.57,1.48c0.81,0.06,1.62.01,2.43,0.02-0.42-.43-0.85-0.85-1.27-1.27,0-1.39-.07-2.78.02-4.16a0.554,0.554,0,0,1,.75.07c0.09,1.23.02,2.47,0.03,3.71,0.35,0.36.7,0.72,1.06,1.07q-0.015-2.88,0-5.76a1.523,1.523,0,0,1-.83-1.32,1.25,1.25,0,0,1,2.18-.71,1.355,1.355,0,0,1-.53,2.05c0,1.89-.01,3.79.01,5.69,0.33-.33.65-0.66,0.98-0.99,0.04-1.26-.08-2.53.07-3.78a0.946,0.946,0,0,1,.72-0.08c0.05,1.39.07,2.77,0.01,4.15a9.39,9.39,0,0,1-1.27,1.33c0.83-.01,1.67,0,2.5,0,0.51-.51,1.02-1,1.51-1.52-0.57-.53-1.12-1.08-1.66-1.64,0-.69,0-1.37-0.01-2.05a1.327,1.327,0,0,1-.74-1.61,1.231,1.231,0,0,1,2.14-.33,1.3,1.3,0,0,1-.55,1.95c-0.02.57-.02,1.13-0.02,1.7,0.46,0.49.95,0.96,1.45,1.42,0.2-.22.4-0.43,0.59-0.67,0.15-.57-0.65-0.71-0.75-1.22a1.238,1.238,0,0,1,1.39-1.6,1.253,1.253,0,0,1,.88,1.81,3.522,3.522,0,0,1-.67.61c-0.01.26-.02,0.51-0.02,0.76-0.78.81-1.58,1.59-2.38,2.38q1.02,0.015,2.04,0c0.64-.7,1.36-1.31,1.99-2.02,0.11-1.55-.01-3.12.04-4.67A1.338,1.338,0,0,1,1151.92,2677.66Zm-17.5.78c0.19,0.41.61,0.14,0.85-.06-0.07-.15-0.23-0.45-0.3-0.6C1134.68,2677.88,1134.22,2678.03,1134.42,2678.44Zm18.21-.32c-0.28.36,0.36,0.48,0.55,0.63,0.05-.22.41-0.55,0.14-0.75A0.387,0.387,0,0,0,1152.63,2678.12Zm-9.2.6a0.693,0.693,0,0,0,.67.24,0.921,0.921,0,0,0,.28-0.61c-0.19-.07-0.38-0.12-0.57-0.17A1.6,1.6,0,0,0,1143.43,2678.72Zm-3.68.7c0.02,0.19.05,0.39,0.08,0.58a0.96,0.96,0,0,0,.73.06c0-.2.01-0.41,0.02-0.62A2.888,2.888,0,0,0,1139.75,2679.42Zm7.61,0.03c-0.36.2,0.03,0.52,0.08,0.78,0.16-.07.47-0.19,0.62-0.25C1148.09,2679.6,1147.76,2679.11,1147.36,2679.45Zm-10.46,2.34c-0.08.4,0.62,0.64,0.75,0.21,0.2-.25-0.13-0.47-0.19-0.7A0.819,0.819,0,0,0,1136.9,2681.79Zm13.33-.3a0.45,0.45,0,0,0,.14.75c0.24-.05.61-0.12,0.53-0.45A0.42,0.42,0,0,0,1150.23,2681.49Zm-21.37,7.69c-0.03,1.65-.01,3.29-0.01,4.93a2,2,0,0,0,.52.85c0.33,0.33-.27.55-0.52,0.62,0,0.6-.03,1.21.01,1.81,0.14,0.37.49,0.61,0.65,0.97a1.332,1.332,0,0,1-.67.41c0.02,0.73.01,1.47,0,2.2,0.21,0.14.64,0.16,0.59,0.51,0.13,0.39-.38.31-0.58,0.47,0,0.73,0,1.46.01,2.19a1.065,1.065,0,0,1,.65.42,2.951,2.951,0,0,1-.66.83c-0.01.64,0,1.27-.01,1.9,0.23,0.15.66,0.19,0.62,0.56a5.956,5.956,0,0,1-.61.72c0.02,1.75-.03,3.5.01,5.25a2.385,2.385,0,0,0,2.42,2.26c1.83,0.01,3.67.01,5.51,0a7.092,7.092,0,0,1,.66-0.57,0.766,0.766,0,0,1,.58.57c0.63,0,1.27.04,1.91-.02,0.24-.16.45-0.37,0.7-0.53a1.274,1.274,0,0,1,.68.54c0.68,0.05,1.37.01,2.06,0.01,0.12-.2.25-0.39,0.39-0.58a0.69,0.69,0,0,1,.62.58c0.71,0.01,1.43.01,2.15,0,0.08-.13.23-0.4,0.3-0.53,0.5-.1.74,0.61,1.25,0.53,0.7-.04,1.66.27,2.01-0.55,0.43,0.01.64,0.56,1.08,0.55,1.79,0,3.57.02,5.36,0a2.423,2.423,0,0,0,2.37-2.3c0.03-1.79-.01-3.59.01-5.38-0.36-.34-0.52-0.81-0.01-1.1,0.01-.7,0-1.4,0-2.1-0.15-.21-0.31-0.43-0.46-0.64,0.15-.14.3-0.28,0.46-0.41,0.01-.72.01-1.43-0.01-2.15-0.14-.16-0.28-0.33-0.42-0.49a5.126,5.126,0,0,1,.43-0.58c0.01-.73,0-1.46.01-2.19-0.12-.09-0.36-0.25-0.48-0.33,0.16-.24.32-0.48,0.46-0.72,0.02-.68.02-1.37,0-2.06-0.13-.15-0.26-0.31-0.38-0.47a2.118,2.118,0,0,0,.4-1.04c-0.01-1.58,0-3.16-.01-4.74a2.4,2.4,0,0,0-2.37-2.38c-1.89-.02-3.77.01-5.65-0.01-0.15.15-.3,0.3-0.44,0.45h-0.44c-0.09-.15-0.17-0.31-0.26-0.46-0.66.02-1.32,0.01-1.98,0.01a2.035,2.035,0,0,1-.93.51c-0.06-.12-0.17-0.38-0.23-0.51-0.73.01-1.46,0-2.19,0.01a0.516,0.516,0,0,1-1.02-.01c-0.73,0-1.46.01-2.19,0-0.07.13-.21,0.4-0.28,0.53a2.2,2.2,0,0,1-.87-0.52q-0.99-.015-1.98,0c-0.18.15-.3,0.58-0.61,0.43-0.24-.12-0.43-0.3-0.66-0.43-1.85-.01-3.71-0.01-5.55,0A2.389,2.389,0,0,0,1128.86,2689.18Zm-9.18,3.09c0.17,0.2.4,0.66,0.72,0.43a0.38,0.38,0,0,0,.02-0.69C1120.16,2691.77,1119.91,2692.18,1119.68,2692.27Zm47.89-.29a1.732,1.732,0,0,0-.3.57c0.24,0.03.5,0.35,0.73,0.12C1168.44,2692.43,1167.98,2691.73,1167.57,2691.98Zm-44.25,2.67a0.881,0.881,0,0,0,.58.73,0.629,0.629,0,0,0,0-1m39.9,0.52a0.9,0.9,0,0,0,.51.48,6.052,6.052,0,0,0,.32-0.55c-0.12-.16-0.23-0.32-0.34-0.48A0.7,0.7,0,0,0,1163.8,2694.9Zm-42.37,2.51c-0.05.11-.14,0.34-0.19,0.45,0.21,0.15.57,0.44,0.78,0.14,0.27-.26-0.02-0.53-0.17-0.75C1121.75,2697.29,1121.53,2697.37,1121.43,2697.41Zm44.3,0.21a2.4,2.4,0,0,0,.64.63c0.11-.23.5-0.59,0.17-0.81C1166.3,2697.12,1165.96,2697.49,1165.73,2697.62Zm-45.49,4.25a0.51,0.51,0,0,0,.68-0.68C1120.41,2700.87,1119.99,2701.36,1120.24,2701.87Zm46.86-.77c-0.02.16-.08,0.48-0.1,0.63,0.26,0.18.84,0.21,0.8-.23C1167.88,2701.09,1167.36,2701.11,1167.1,2701.1Zm-45.61,3.75c-0.33.15-.09,0.51-0.07,0.76a1.108,1.108,0,0,0,.83-0.42C1122.04,2705,1121.81,2704.55,1121.49,2704.85Zm44.33,0.15c0.03,0.13.07,0.39,0.1,0.52,0.33,0.13.84,0,.75-0.44C1166.52,2704.65,1166.09,2704.75,1165.82,2705Zm-42.45,3.05a0.734,0.734,0,0,0,.55.51c0.06-.22.4-0.48,0.21-0.72-0.12-.08-0.35-0.25-0.47-0.33C1123.56,2707.69,1123.46,2707.87,1123.37,2708.05Zm40.42-.12c-0.11.6,0.6,0.59,0.91,0.25C1164.59,2707.72,1164.04,2707.35,1163.79,2707.93Zm-43.73,2.26c-0.53.16-.13,0.98,0.33,0.76C1120.86,2710.75,1120.55,2709.9,1120.06,2710.19Zm47.33,0.52a0.394,0.394,0,0,0,.74-0.01c0.16-.33-0.21-0.49-0.39-0.68C1167.61,2710.21,1167.21,2710.44,1167.39,2710.71Zm-30.59,10.39c0.05,0.41.63,0.78,0.83,0.26,0.24-.27-0.19-0.48-0.33-0.67C1137.18,2720.8,1136.93,2721,1136.8,2721.1Zm13.45-.23c-0.51.24,0.05,1.04,0.47,0.66C1151.18,2721.23,1150.61,2720.54,1150.25,2720.87Zm-10.47,2.55c0.16,0.49.74,0.16,0.89-.19C1140.47,2722.72,1139.53,2722.79,1139.78,2723.42Zm7.59-.51c-0.57.36,0.29,1.16,0.58,0.54A0.408,0.408,0,0,0,1147.37,2722.91Zm-3.96,1.31c0.12,0.19.12,0.58,0.41,0.58,0.33,0.11.42-.26,0.59-0.46A0.634,0.634,0,0,0,1143.41,2724.22Zm-8.78.14c-0.6.16-.14,1.09,0.33,0.75A0.413,0.413,0,0,0,1134.63,2724.36Zm18.04,0.15c-0.28.2,0,.63,0.27,0.66a0.813,0.813,0,0,0,.57-0.49C1153.26,2724.53,1152.91,2724.12,1152.67,2724.51Zm-21.3-35.79a1.153,1.153,0,1,1-.26,1.65A1.166,1.166,0,0,1,1131.37,2688.72Zm0.29,0.88c0.08,0.57.65,0.44,0.8-.02A0.481,0.481,0,0,0,1131.66,2689.6Zm23.66-.99a1.164,1.164,0,0,1,1.52,1.51A1.152,1.152,0,1,1,1155.32,2688.61Zm0.23,0.85c-0.08.27-.06,0.68,0.33,0.5C1156.51,2689.93,1155.78,2688.97,1155.55,2689.46Zm-16.46,3.38a11.665,11.665,0,0,0,4.88-1.78,7.937,7.937,0,0,0,5.15,1.81c1.05,0.04,2.09-.17,3.14-0.12,0.06,2.43.08,4.87,0.1,7.3a9.2,9.2,0,0,1-.84,4.49,15.049,15.049,0,0,1-3,3.32c-1.44,1.3-2.89,2.58-4.34,3.88-0.26.31-.59-0.01-0.8-0.2-1.54-1.39-3.12-2.74-4.66-4.13a9.265,9.265,0,0,1-2.76-3.57,16.858,16.858,0,0,1-.52-5.2c0.02-1.97.01-3.94,0.06-5.9A25.332,25.332,0,0,0,1139.09,2692.84Zm-2.8.75c0,2.3-.03,4.59-0.01,6.89a8.286,8.286,0,0,0,.82,3.86,12.709,12.709,0,0,0,2.38,2.64c1.46,1.32,2.96,2.59,4.42,3.91,1.66-1.52,3.36-2.97,5-4.5a8.092,8.092,0,0,0,2.22-2.97,8.724,8.724,0,0,0,.4-2.73c0.03-2.37-.05-4.74-0.05-7.11a11.9,11.9,0,0,1-6.09-.66c-0.54-.23-1.01-0.6-1.54-0.85A11.048,11.048,0,0,1,1136.29,2693.59Zm1.03,1.04a12.091,12.091,0,0,0,6.48-1.48,12,12,0,0,0,6.67,1.49,37.725,37.725,0,0,1,.16,3.98c0,1.72.17,3.56-.7,5.12a17.736,17.736,0,0,1-3.4,3.58c-0.9.74-1.71,1.6-2.67,2.28-0.12-.12-0.34-0.35-0.46-0.47,1.69-1.94,3.98-3.31,5.55-5.38a5.467,5.467,0,0,0,.86-3.09c0.04-1.73-.05-3.47-0.09-5.2a11.9,11.9,0,0,1-5.91-1.37,13.138,13.138,0,0,1-5.8,1.39c-0.03,1.66.02,3.32-.02,4.98-0.02.56-.89,0.31-0.8-0.19A42.454,42.454,0,0,1,1137.32,2694.63Zm-5.94,17.68a1.182,1.182,0,0,1,1.77,1.27A1.161,1.161,0,1,1,1131.38,2712.31Zm0.21,1.05c0.14,0.08.41,0.25,0.54,0.33,0.03-.2.47-0.53,0.09-0.64C1131.94,2712.71,1131.75,2713.19,1131.59,2713.36Zm23.74-1.14a1.15,1.15,0,1,1-.22,2A1.162,1.162,0,0,1,1155.33,2712.22Zm0.01,0.94c0.17,0.33.5,0.68,0.76,0.22C1156.16,2712.85,1155.63,2712.93,1155.34,2713.16Zm-12.32-7.56v-1.26a3.585,3.585,0,0,1-1.9-.54l0.29-.84a3.333,3.333,0,0,0,1.8.54,1.309,1.309,0,0,0,1.48-1.22c0-.69-0.49-1.11-1.41-1.48-1.27-.5-2.05-1.07-2.05-2.15a2.048,2.048,0,0,1,1.88-2.01v-1.25h0.77v1.21a3.318,3.318,0,0,1,1.62.43l-0.32.82a2.988,2.988,0,0,0-1.56-.42,1.132,1.132,0,0,0-1.32,1.07c0,0.64.46,0.97,1.54,1.42,1.28,0.52,1.93,1.16,1.93,2.27a2.173,2.173,0,0,1-1.97,2.12v1.29h-0.78Z" transform="translate(-1119 -2677)"/>
</svg>
