<svg xmlns="http://www.w3.org/2000/svg" width="64.968" height="61" viewBox="0 0 64.968 61">
  <defs>
    <style>
      .cls-1 {
        fill: #f50;
        fill-rule: evenodd;
      }
    </style>
  </defs>
  <path id="Icon_" data-name="Icon " class="cls-1" d="M567.62,5669.42a17.892,17.892,0,1,1,25.455,25.15,12.6,12.6,0,0,0-3.865,6.35c-0.531,2.03-.259,4.15-0.343,6.22a1.944,1.944,0,0,1-1.772,1.89c-0.622.04-1.24,0.01-1.859,0.01,0,1.68,0,3.35,0,5.03,0.818,0.07,2.1-.34,2.441.7a42.347,42.347,0,0,1-.02,4.78,6.355,6.355,0,0,1-5.912,5.42c-1.64.01-3.37,0.19-4.905-.51a6.253,6.253,0,0,1-3.775-5.5c-0.006-1.41-.062-2.81.014-4.21,0.354-1.05,1.685-.58,2.523-0.7-0.008-1.66-.006-3.34-0.008-5-0.675-.01-1.353.02-2.028-0.03a1.925,1.925,0,0,1-1.685-1.85c-0.132-2.26.23-4.59-.461-6.79a12.292,12.292,0,0,0-3.477-5.62A17.819,17.819,0,0,1,567.62,5669.42Zm8.868-1.54c-0.962,1.47-.537,3.29-0.368,4.92,0.343,3.39.706,6.78,1.035,10.17a4.817,4.817,0,0,1,6.43-.04c0.433-4.12.846-8.24,1.282-12.35a4.5,4.5,0,0,0-2.587-4.5A4.57,4.57,0,0,0,576.488,5667.88Zm-6.584,9.29c-0.563.05-1.126,0.09-1.685,0.13a12.957,12.957,0,0,1,1.957-7.98,16.353,16.353,0,0,0-5.487,16.59,4.575,4.575,0,0,1,5.212-1.38c-0.484-1.81-.917-3.64-1.348-5.46,0.546-.14,1.1-0.27,1.64-0.4,0.394,1.68.833,3.35,1.221,5.04a4.088,4.088,0,0,1,4.081-.57c-0.447-4.08-.86-8.17-1.277-12.26a6.821,6.821,0,0,1,.718-3.79A10.686,10.686,0,0,0,569.9,5677.17Zm15.914-10.01a6.39,6.39,0,0,1,.72,3.7q-0.629,6.165-1.288,12.31a3.94,3.94,0,0,1,4.076.54c0.534-2.59,1.532-5.12,1.544-7.79A10.381,10.381,0,0,0,585.818,5667.16Zm4.568,1.97a12.4,12.4,0,0,1,2.143,7.91,67.677,67.677,0,0,1-1.682,7.5,4.586,4.586,0,0,1,5.291,1.46,18.055,18.055,0,0,0,.472-4.48A16.082,16.082,0,0,0,590.386,5669.13Zm-12.236,15.28a2.6,2.6,0,0,0-.666,1.62c0.447,4.4.928,8.79,1.353,13.18,1.018,0.01,2.036,0,3.054.01,0.355-3.24.661-6.5,1.024-9.74,0.568,0.05,1.139.1,1.708,0.14-0.4,3.19-.667,6.4-1.035,9.6,0.644-.01,1.285-0.02,1.926,0,1.075-4.29,2.118-8.59,3.165-12.89,0.23-1.45-1.747-2.32-2.85-1.51-1.142.76-.9,2.3-1.108,3.47l-1.71-.15c0.081-1.09.565-2.29-.087-3.3A2.974,2.974,0,0,0,578.15,5684.41Zm-6.058,2.05c1.007,4.09,2.028,8.18,3.012,12.28,0.113,0.95,1.4.29,2.037,0.47-0.417-4.2-.883-8.41-1.294-12.61a2.014,2.014,0,0,0-1.994-2.07A1.678,1.678,0,0,0,572.092,5686.46Zm-6.551,1.85a16.3,16.3,0,0,0,4.166,5.83,14.475,14.475,0,0,1,3.136,5c0.155,0.05.467,0.15,0.621,0.19-0.815-3.79-1.836-7.55-2.733-11.33a2.623,2.623,0,0,0-2.757-2.07A2.571,2.571,0,0,0,565.541,5688.31Zm24.476-.3c-0.925,3.73-1.814,7.47-2.753,11.2,0.166,0.01.5,0.02,0.661,0.03a15.361,15.361,0,0,1,1.949-3.65c0.951-1.37,2.326-2.37,3.322-3.7a14.231,14.231,0,0,0,1.983-3.34,2.5,2.5,0,0,0-2.481-2.62A2.614,2.614,0,0,0,590.017,5688.01Zm-16.687,12.85a21.9,21.9,0,0,1,.227,3.59c0.411,0,.819.01,1.232,0.01-0.346-1.16-.554-2.35-0.908-3.5C573.743,5700.93,573.467,5700.88,573.33,5700.86Zm2.314,0.05c0.29,1.18.577,2.36,0.867,3.55h1.19c-0.124-1.19-.268-2.37-0.375-3.55h-1.682Zm3.384,0c0.1,1.18.259,2.36,0.36,3.55,0.655-.01,1.308,0,1.963,0,0.135-1.18.251-2.37,0.358-3.55C580.814,5700.91,579.923,5700.9,579.028,5700.91Zm4.38,0c-0.1,1.18-.22,2.36-0.369,3.54,0.4,0,.8,0,1.2.01,0.3-1.18.6-2.37,0.867-3.55h-1.7Zm3.493,0.03c-0.4,1.14-.588,2.35-0.923,3.51,0.3,0,.9.01,1.2,0.01a16.473,16.473,0,0,1,.29-3.6Zm-13.341,5.2c0.011,0.4.028,0.8,0.054,1.2,4.528-.04,9.062.11,13.585-0.07,0-.28-0.008-0.84-0.014-1.12C582.642,5706.15,578.1,5706.16,573.56,5706.14Zm3.73,2.9c0,1.68,0,3.35,0,5.02,0.759,0,1.518.01,2.281,0.01-0.006-1.67,0-3.35,0-5.02C578.809,5709.05,578.049,5709.05,577.29,5709.04Zm3.971,0c0.023,1.68,0,3.35,0,5.03,0.762,0,1.527,0,2.289.01-0.008-1.68,0-3.36,0-5.04C582.783,5709.04,582.024,5709.05,581.261,5709.04Zm-6.542,6.73c0,0.15.011,0.46,0.014,0.62,3.763,0.02,7.53-.01,11.293.01,0-.16.006-0.48,0.009-0.64Q580.377,5715.76,574.719,5715.77Zm0.017,2.32a4.7,4.7,0,0,0,4.171,5.17c1.676,0.02,3.541.29,5.01-.72a4.867,4.867,0,0,0,2.132-4.45C582.277,5718.13,578.508,5718.09,574.736,5718.09ZM557.4,5693.33c0-3.59-.006-7.17,0-10.76h1.691c0.011,3.59-.009,7.17,0,10.76Q558.247,5693.315,557.4,5693.33Zm42.073-4.36a3.024,3.024,0,0,1,2.5-2.05,2.812,2.812,0,0,1,2.781,1.59,4.119,4.119,0,0,1,5.308,1.59,4.393,4.393,0,0,1,.56,2.52,4.2,4.2,0,0,1,3.043,3.84,4.088,4.088,0,0,1-4.067,4.22c-5.758.05-11.515,0.01-17.273,0.02-0.009-.58-0.011-1.16-0.009-1.74,4.068,0.11,8.138-.03,12.2.05,1.78,0,3.561,0,5.338-.08a2.3,2.3,0,0,0,2.118-2.22,2.37,2.37,0,0,0-2.067-2.45c-0.686-.05-1.375-0.02-2.062-0.03,0-.56,0-1.13,0-1.69,0.262,0.01.785,0.02,1.047,0.03a2.4,2.4,0,0,0-2.411-2.78,2.558,2.558,0,0,0-2.292,1.79c-0.546-.13-1.091-0.28-1.637-0.42,0.18-.69,1.1-1.48.47-2.18a1.124,1.124,0,0,0-1.893.41C600.571,5689.27,600.017,5689.14,599.474,5688.97Zm-38.127,1.47,1.7,0.03c0.011,3.08-.011,6.17.011,9.26-0.568-.01-1.136-0.01-1.7-0.01C561.344,5696.63,561.375,5693.54,561.347,5690.44Zm-3.952,5.07c0.569,0,1.137-.01,1.705-0.02-0.011.91-.014,1.83-0.011,2.74H557.4C557.4,5697.33,557.4,5696.42,557.4,5695.51Zm3.969,6.03c0.566,0,1.134.01,1.7,0.02-0.014.89-.011,1.78-0.011,2.68h-1.691v-2.7Zm30.1,2.52c0.565,0,1.131,0,1.7-.01,0.011,3.6,0,7.19.006,10.78l-1.691-.03C591.46,5711.23,591.488,5707.64,591.466,5704.06Zm-30.487,6.29a5.3,5.3,0,0,1,5.867-3.42,5.362,5.362,0,0,1,4.34,5.38l-1.687-.09a3.669,3.669,0,0,0-2.667-3.56,3.579,3.579,0,0,0-4.382,2.76c0.093,0.23.278,0.7,0.371,0.93-0.531.15-1.06,0.28-1.6,0.4a1.132,1.132,0,0,0-1.87-.44c-0.67.7,0.245,1.51,0.447,2.21l-1.645.42a2.545,2.545,0,0,0-2.273-1.79,2.484,2.484,0,0,0-2.475,2.74c0.368,0.01.734,0.02,1.1,0.02,0,0.56,0,1.12,0,1.68-1.061.07-2.3-.25-3.193,0.49a2.38,2.38,0,0,0-.554,3.18,2.544,2.544,0,0,0,2.3,1.11c5.662-.01,11.324,0,16.986-0.01-0.006.56-.014,1.13-0.02,1.69-5.76,0-11.518.03-17.278-.01a4.106,4.106,0,0,1-4.062-4.23,4.221,4.221,0,0,1,3.044-3.83,4.1,4.1,0,0,1,5.867-4.11A2.909,2.909,0,0,1,560.979,5710.35Zm34.222,2.93h1.685c0,3.59.011,7.18,0,10.77l-1.7.03C595.224,5720.48,595.176,5716.88,595.2,5713.28Zm-3.732,6.42c0.008-.92,0-1.83.017-2.74,0.557,0.01,1.116.01,1.676,0.02,0.006,0.91,0,1.81.009,2.71C592.6,5719.69,592.037,5719.69,591.469,5719.7Z" transform="translate(-548.688 -5664)"/>
</svg>
