<svg xmlns="http://www.w3.org/2000/svg" width="65" height="64.97" viewBox="0 0 65 64.97">
  <defs>
    <style>
      .cls-1 {
        fill: #f50;
        fill-rule: evenodd;
      }
    </style>
  </defs>
  <path id="Icon_" data-name="Icon " class="cls-1" d="M960.28,5662.42a1.136,1.136,0,0,1,1.641-.13,15.666,15.666,0,0,1,3.39,4.94c0.23,0.56.444,1.13,0.623,1.72a15.975,15.975,0,0,1,.655,4.51c0,0.34-.008.68-0.019,1.03-0.013.5-.027,1-0.038,1.5l-0.024,1.05c-0.033,1.42-.071,2.84-0.1,4.27,0,0.21-.013.63-0.019,0.84,0,0.19-.016.58-0.021,0.77,1.224,0.87,2.461,1.71,3.688,2.57,0.26,0.19.52,0.39,0.777,0.59a1.967,1.967,0,0,1,.812-1.35c0.878-.01,1.755,0,2.635,0h1c1.069,0.01,2.136-.02,3.206,0,0.243,0.05.484,0.12,0.725,0.19,0.726,1.24.25,2.78,0.35,4.15a11.641,11.641,0,0,1-.615,2.62c0.241,0.16.487,0.33,0.734,0.51q1.978,1.365,3.956,2.75c1.638,1.17,3.306,2.3,4.961,3.44,1.053,0.92,2.748,1.38,3.073,2.9,0.626,1.97,1.324,3.93,1.942,5.91a1.075,1.075,0,0,1-1.611,1.2c-4.788-2.27-9.556-4.59-14.336-6.88-0.888-.44-1.782-0.86-2.683-1.27-0.742-.36-1.479-0.73-2.221-1.09l-0.888-.42c-1.939-.93-3.883-1.85-5.816-2.79q-0.033,1.26-.06,2.52c0,0.22-.016.63-0.022,0.84-0.073,2.56-.1,5.12-0.176,7.69,0,0.06-.01.2-0.013,0.27-0.033,1.05-.043,2.11-0.07,3.17,0.373,0.33.747,0.66,1.123,1,0.217,0.19.433,0.39,0.653,0.58l3.507,3.12c0.165,0.14.33,0.29,0.5,0.44,1.17,1.05,2.361,2.07,3.518,3.14,0.1,0.21.2,0.42,0.281,0.65,0.553,1.62,1.081,3.25,1.625,4.87,0.092,0.28.189,0.56,0.284,0.84a1.172,1.172,0,0,1-1.132,1.87c-1.9-.93-3.726-2.02-5.6-3.01-1.847-1.04-3.721-2.02-5.571-3.05a2.322,2.322,0,0,0-1.267-.4c-1.643-.02-3.287.01-4.931-0.02a6.946,6.946,0,0,0-2.5,1.11q-1.682.915-3.36,1.83c-0.209.12-.42,0.23-0.629,0.34-1.857,1.01-3.7,2.04-5.559,3.03a1.108,1.108,0,0,1-1.627-.41c-0.3-.65.184-1.32,0.333-1.96l0.246-.73c0.566-1.62,1.04-3.28,1.668-4.88,0.179-.19.369-0.37,0.558-0.54q1.76-1.575,3.518-3.13c0.138-.13.276-0.25,0.411-0.37,1.2-1.06,2.4-2.13,3.6-3.19,0.149-.14.3-0.27,0.45-0.4,0.273-.25.544-0.49,0.818-0.73q-0.029-1.425-.068-2.85c-0.008-.26-0.016-0.52-0.022-0.78-0.013-.64-0.027-1.27-0.043-1.91-0.006-.21-0.014-0.63-0.016-0.84-0.027-1.33-.063-2.65-0.1-3.97-0.006-.21-0.014-0.62-0.019-0.83-0.022-1.1-.065-2.2-0.092-3.3l-5.432,2.61-0.707.33c-0.368.18-.731,0.36-1.094,0.55q-1.941.885-3.853,1.83-2.279,1.1-4.563,2.19c-0.26.12-.52,0.24-0.78,0.37-1.825.89-3.666,1.76-5.488,2.66a41.117,41.117,0,0,1-4.8,2.1,1.148,1.148,0,0,1-.823-1.42c0.623-1.97,1.3-3.92,1.936-5.89a2.225,2.225,0,0,1,.652-1.19c0.954-.7,1.947-1.35,2.914-2.04,0.2-.14.409-0.29,0.612-0.43,0.5-.35,1-0.71,1.5-1.07,1.018-.67,2.023-1.37,3.016-2.08,1.287-.89,2.578-1.78,3.854-2.68l0.151-.12c-0.149-.54-0.33-1.07-0.474-1.6a26.15,26.15,0,0,1-.124-4.29,1.172,1.172,0,0,1,.847-1.07c0.35,0,.7,0,1.054.01h3.967a9.607,9.607,0,0,1,2.144.1,1.65,1.65,0,0,1,.734,1.24c0.247-.19.5-0.38,0.748-0.56,0.178-.13.357-0.25,0.541-0.38,1.062-.74,2.126-1.47,3.179-2.22-0.021-.54-0.04-1.07-0.057-1.61,0-.19-0.01-0.58-0.016-0.77-0.013-.98-0.041-1.96-0.065-2.93,0-.2-0.013-0.61-0.019-0.81-0.019-1.03-.051-2.06-0.07-3.09,0-.2,0-0.61,0-0.81a17.223,17.223,0,0,1,.426-3.12c0.089-.37.186-0.73,0.292-1.09,0.152-.46.328-0.91,0.515-1.36,0.07-.15.211-0.47,0.284-0.63A16.033,16.033,0,0,1,960.28,5662.42Zm-1.376,5.96c-0.1.26-.2,0.52-0.292,0.79a14.584,14.584,0,0,0-.683,4.97c0.014,0.2.036,0.61,0.049,0.81,0.03,2.31.084,4.61,0.16,6.92-0.014.35-.025,0.71-0.035,1.06l0.084,0.08c0,0.21-.011.62-0.014,0.83,0.043,1.87.087,3.73,0.127,5.6,0.006,0.2.019,0.61,0.025,0.81,0,0.16.01,0.46,0.013,0.62,0.006,0.2.014,0.61,0.016,0.81,0.044,1.72.1,3.43,0.12,5.15,0,0.57.027,1.14,0.054,1.72l-0.046.15c0.021,0.35.046,0.7,0.07,1.05,0.022,1.53.076,3.06,0.1,4.59,0,0.2.016,0.61,0.022,0.82,0.105,4.39.2,8.77,0.319,13.16,1.454-.01,2.908-0.02,4.36,0,0.141-4.58.2-9.16,0.336-13.73,0.008-.34.016-0.69,0.021-1.03,0.027-1.08.054-2.16,0.082-3.23,0-.21,0-0.62.008-0.83,0.021-.47.054-0.94,0.043-1.42,0.024-.62.038-1.25,0.041-1.88,0.016-1.24.056-2.47,0.089-3.71,0-.21.014-0.62,0.019-0.83,0.019-.73.038-1.47,0.049-2.2,0-.2.019-0.61,0.027-0.81,0.024-1.33.062-2.67,0.089-4.01,0-.2.014-0.62,0.016-0.82,0.014-.56.027-1.13,0.041-1.69,0-.21.019-0.62,0.024-0.83,0.027-1.43.071-2.86,0.1-4.29,0.013-.36.027-0.71,0.046-1.06-0.006-.1-0.014-0.31-0.019-0.41,0.032-.6.043-1.21,0.062-1.82a14.466,14.466,0,0,0-.539-4.05c-0.078-.25-0.154-0.5-0.233-0.75a14.754,14.754,0,0,0-2.48-4.28A14.462,14.462,0,0,0,958.9,5668.38Zm-7.409,20.29a8.537,8.537,0,0,1-4,6.81,1.451,1.451,0,0,1-1.4-.36c-0.236-.21-0.472-0.41-0.71-0.61-0.3-.32-0.593-0.63-0.885-0.95-1.222.86-2.456,1.71-3.683,2.57-0.173.12-.344,0.24-0.517,0.35l-3.946,2.76c-0.208.13-.414,0.26-0.62,0.4l0.025,0.02c-0.981.65-1.931,1.34-2.9,2-0.414,1.24-.831,2.48-1.238,3.72,2.253-1.06,4.5-2.15,6.74-3.22q2.787-1.335,5.573-2.68c3.937-1.87,7.85-3.8,11.806-5.64,0.054-2.7.006-5.4,0.025-8.1C954.325,5686.7,952.944,5687.73,951.5,5688.67Zm15.1-2.94c-0.008,1.91.011,3.82,0,5.72,0,0.2,0,.58-0.008.78,0,0.53.014,1.07,0.033,1.6,0.674,0.31,1.346.62,2.031,0.91l0.019,0.07c0.644,0.31,1.3.62,1.957,0.9,2.638,1.32,5.319,2.56,7.972,3.85l-0.021.02c0.276,0.12.555,0.25,0.834,0.37,1.429,0.68,2.843,1.39,4.292,2.03a11.1,11.1,0,0,0,1.37.7c1.892,0.89,3.769,1.81,5.662,2.7q-0.606-1.86-1.238-3.72c-0.8-.55-1.6-1.12-2.41-1.66l0.03-.02-0.609-.39c-1.376-.97-2.757-1.92-4.13-2.88-0.105-.08-0.316-0.22-0.422-0.3-1.367-.95-2.746-1.89-4.1-2.86-0.208.23-.419,0.46-0.628,0.69-0.2.2-.4,0.38-0.6,0.57-0.514.36-1.15,1.05-1.825,0.65a8.162,8.162,0,0,1-3.014-3.29c-0.059-.13-0.176-0.39-0.232-0.51a9.648,9.648,0,0,1-.648-2.92Q968.765,5687.225,966.594,5685.73Zm-21.665,1.17c0.013,0.72.013,1.44,0.011,2.16,1.432,0.02,2.867,0,4.3-.01,0.019-.72.024-1.43,0.024-2.15C947.818,5686.88,946.375,5686.94,944.929,5686.9Zm28.159,0q0,1.08.027,2.16c1.432-.02,2.865.02,4.3,0,0.008-.72,0-1.43,0-2.15C975.969,5686.92,974.528,5686.89,973.088,5686.9Zm-27.5,4.34a8.9,8.9,0,0,0,1.5,1.9,8.009,8.009,0,0,0,1.5-1.9Q947.091,5691.225,945.59,5691.24Zm28.159,0.02a9.141,9.141,0,0,0,1.5,1.88,8.855,8.855,0,0,0,1.508-1.9C975.758,5691.22,974.75,5691.22,973.749,5691.26Zm-24.5,28.66a33.2,33.2,0,0,0-1.341,3.71q4.461-2.43,8.917-4.86c-0.035-1.82-.089-3.65-0.13-5.47Q952.956,5716.585,949.251,5719.92Zm16.431-6.38c-0.13,1.74-.092,3.49-0.157,5.24,0.371,0.19.742,0.38,1.113,0.58l-0.03.03c0.219,0.1.439,0.21,0.658,0.32,1.419,0.79,2.854,1.55,4.27,2.34,0.97,0.53,1.931,1.07,2.909,1.58a35.082,35.082,0,0,0-1.317-3.69c-2.385-2.15-4.773-4.31-7.21-6.4l0-.2Zm20.406-47.23h2.166c0,0.22,0,.66,0,0.88,0,0.32,0,.64,0,0.96v0.32c-0.119,0-.36.01-0.479,0.02h-0.812c-0.22-.01-0.655-0.01-0.875-0.01v-2.17ZM947.1,5667.4c0.723,0,1.446,0,2.169-.01,0,0.45,0,.91,0,1.36,0,0.2,0,.61,0,0.81H947.1v-2.16Zm27.079,3.25h2.16c0,0.55.019,1.1,0.014,1.65,0,0.12-.014.38-0.019,0.5-0.114.01-.341,0.02-0.455,0.02H975.01c-0.208,0-.628-0.01-0.836-0.01v-2.16Zm-31.411,8.66h2.166c0,0.17,0,.49,0,0.65v0.74c0,0.19,0,.59,0,0.78h-2.166v-2.17Zm7.582,22.76h2.163c0,0.23.008,0.69,0.008,0.92v0.74c0,0.12-.013.37-0.016,0.49-0.119.01-.355,0.01-0.474,0.02h-0.774c-0.228,0-.68-0.01-0.907-0.01v-2.16Zm19.5,1.08h2.166c0,0.45,0,.91,0,1.37v0.8h-2.169v-2.17Zm-29.245,2.17c0.236,0,.707-0.01.94-0.01h1.21c0.009,0.44.014,0.87,0.017,1.31v6.09c0,0.5,0,1,0,1.5q0,3.03,0,6.07,0,0.855,0,1.71v2.83H940.6c-0.035-1.71.011-3.41,0-5.12,0-.33,0-0.66,0-0.99q0-1.455,0-2.91v-0.78q0-1.575,0-3.15v-0.76q0-1.455,0-2.91v-0.77C940.594,5706.73,940.6,5706.02,940.6,5705.32Zm39-.01h0.845c0.438-.01.874-0.01,1.313-0.02,0,0.45,0,.9,0,1.34,0,0.2,0,.61,0,0.81,0,0.73,0,1.47,0,2.21h-2.167c0-.74,0-1.49,0-2.24,0-.2,0-0.61,0-0.81C979.584,5706.17,979.589,5705.74,979.6,5705.31Zm-43.328,2.16c0.72,0.01,1.443.01,2.163,0.02v9.34c0,0.29,0,.58,0,0.87,0.014,2.38-.019,4.76.022,7.14-0.728-.02-1.457-0.02-2.185-0.02,0-.62,0-1.25,0-1.87,0-.18,0-0.54,0-0.72,0-.71.009-1.41,0.006-2.12v-0.71q0-2.025,0-4.05c0-.32,0-0.64,0-0.96v-1.86c0-.19,0-0.55,0-0.73C936.264,5710.35,936.261,5708.91,936.267,5707.47Zm10.831,0.01h2.164v2.17h-2.175v-0.35c0-.18,0-0.56.006-0.74Q947.093,5708.02,947.1,5707.48Zm36.827,0h2.188c-0.025,1.16-.03,2.32-0.022,3.48v0.79c-0.006,1.13-.006,2.27,0,3.41v0.8c0,0.86-.006,1.72,0,2.58v0.8q0,1.71,0,3.42v0.99c0,0.36,0,.71,0,1.07-0.728,0-1.457.01-2.182,0.02,0.024-2.19.016-4.38,0.013-6.57,0-.21,0-0.62,0-0.83,0-.1,0-0.29,0-0.39,0-.2,0-0.62,0-0.82,0.006-1.85,0-3.69,0-5.54,0-.21,0-0.63,0-0.84v-0.4c0-.2,0-0.61,0-0.81C983.919,5708.25,983.922,5707.87,983.925,5707.48Zm-10.834,1.09h2.169c-0.006.72-.006,1.45,0,2.17-0.723-.01-1.446-0.01-2.169-0.01v-2.16Zm-41.187,1.08H934.1q0,1.38,0,2.76v2.08c0,1.93,0,3.85,0,5.78,0,0.6,0,1.21,0,1.81,0,0.92,0,1.83,0,2.74h-2.175c0.016-4.61-.008-9.23.011-13.84,0-.31-0.011-0.62-0.024-0.92Zm56.35,0h2.164q0.021,7.59,0,15.17h-2.164v-3.07c0-.4,0-0.8,0-1.2q0-3.3,0-6.6v-0.98C988.252,5711.87,988.254,5710.76,988.254,5709.65Zm-8.665,6.5h2.167c0,1.11,0,2.22,0,3.32,0,0.2,0,.6,0,0.8,0.011,1.52.006,3.03,0,4.55h-2.167q0-1.125,0-2.25v-0.77c0-.42,0-0.85,0-1.27v-4.38ZM934.1,5673.91c0.625-.02,1.254-0.03,1.879-0.02l0.279,0.02,0.014,0.28c0.008,0.62,0,1.25-.011,1.88h-1.108c-0.2-.01-0.59-0.01-0.788-0.02a2.693,2.693,0,0,1-.279-0.02c0-.26.011-0.78,0.014-1.04Q934.1,5674.45,934.1,5673.91Zm48.744,4.32h1.148c0.333,0,.669-0.01,1.007-0.01,0,0.16.008,0.48,0.011,0.63,0,0.1.008,0.3,0.011,0.39,0,0.22-.006.65-0.006,0.87l0,0.29h-1.56c-0.151,0-.46-0.01-0.614-0.01C982.839,5679.67,982.839,5678.95,982.839,5678.23Zm-3.258,33.6c0.726-.01,1.452-0.01,2.177-0.01v0.86c0,0.44,0,.88-0.008,1.31h-2.158q0-.645-0.008-1.29C979.584,5712.48,979.584,5712.04,979.581,5711.83Z" transform="translate(-928.688 -5662)"/>
</svg>
