<svg xmlns="http://www.w3.org/2000/svg" width="65" height="65" viewBox="0 0 65 65">
  <defs>
    <style>
      .cls-1 {
        fill: #f50;
        fill-rule: evenodd;
      }
    </style>
  </defs>
  <path id="Icon_" data-name="Icon " class="cls-1" d="M1365.74,5717.79a7.9,7.9,0,0,0-6.15,2.92,9.284,9.284,0,0,0-7.2,1.25,6.609,6.609,0,0,0-4.21-1.5c-0.16,0-.31.01-0.47,0.01l-2.43-11.69h5.8v3.98a1.27,1.27,0,0,0,2.54,0v-3.98h5.2a1.272,1.272,0,0,0,1.27-1.27,15.38,15.38,0,0,0-5.46-11.78v-9.19a17.1,17.1,0,0,0-2.74-9.29,1.276,1.276,0,0,0-1.07-.58,1.259,1.259,0,0,0-1.06.58c-0.16.24-.3,0.49-0.44,0.73a33.841,33.841,0,0,0-5.2-14.38,3.5,3.5,0,0,0-5.89,0,33.693,33.693,0,0,0-5.19,14.38c-0.15-.24-0.29-0.49-0.45-0.73a1.259,1.259,0,0,0-1.06-.58,1.276,1.276,0,0,0-1.07.58,17.1,17.1,0,0,0-2.74,9.29v9.19a15.736,15.736,0,0,0-3.5,4.24,15.524,15.524,0,0,0-1.96,7.54,1.272,1.272,0,0,0,1.27,1.27h6.28v7.85a1.27,1.27,0,0,0,2.54,0v-7.85h4.79l-1.65,8.55a9.265,9.265,0,0,0-3.84,3.24,6.636,6.636,0,0,0-6.87-.94,9.2,9.2,0,0,0-16.1,6.09,1.265,1.265,0,1,0,2.53,0,6.671,6.671,0,0,1,12.18-3.75,1.269,1.269,0,0,0,1.76.34,4.109,4.109,0,0,1,5.72,1.14,1.282,1.282,0,0,0,2.24-.23,6.662,6.662,0,0,1,12.08-.58,1.278,1.278,0,0,0,1.57.61,4.007,4.007,0,0,1,1.42-.25,4.063,4.063,0,0,1,3.13,1.45,1.312,1.312,0,0,0,.87.44,1.267,1.267,0,0,0,.92-0.3,6.666,6.666,0,0,1,4.33-1.59,6.591,6.591,0,0,1,2.24.38,1.262,1.262,0,0,0,1.5-.52,5.4,5.4,0,0,1,9.97,2.86,1.27,1.27,0,0,0,2.54,0,7.944,7.944,0,0,0-7.94-7.93h0Zm-25.83-11.55v-23.62a1.265,1.265,0,0,1,.2-0.69,1.268,1.268,0,0,1,2.13,0h0a1.274,1.274,0,0,1,.21.69v23.62h-2.54Zm17.58,0h-12.51v-15.38a15.6,15.6,0,0,0,4.82,4.68l1.6,0.98a13,13,0,0,1,6.09,9.72h0Zm-6.67-25.65a14.455,14.455,0,0,1,1.27,5.95v7.42l-0.96-.59a12.674,12.674,0,0,1-1.58-1.14v-5.69a14.617,14.617,0,0,1,1.27-5.95h0Zm-10.46-15.61a0.963,0.963,0,0,1,1.63,0,31.147,31.147,0,0,1,3.31,6.79h-8.25a31.147,31.147,0,0,1,3.31-6.79h0Zm-5.02,17.02a31.332,31.332,0,0,1,.95-7.69h9.77a31.338,31.338,0,0,1,.96,7.69v7.31a12.847,12.847,0,0,1-2.04-6.92v-0.04a1.5,1.5,0,0,0-.05-0.37,3.69,3.69,0,0,0-.56-1.43,3.8,3.8,0,0,0-6.39,0,3.853,3.853,0,0,0-.56,1.43,1.5,1.5,0,0,0-.05.37v0.04a12.924,12.924,0,0,1-2.03,6.92V5682Zm-3.81-1.41a14.617,14.617,0,0,1,1.27,5.95v5.69a12.674,12.674,0,0,1-1.58,1.14l-0.96.59v-7.42a14.455,14.455,0,0,1,1.27-5.95h0Zm-0.58,15.93,1.6-.98a15.491,15.491,0,0,0,4.82-4.68v15.38h-12.51a13,13,0,0,1,6.09-9.72h0Zm8.33,20a9.284,9.284,0,0,0-1.06.06l1.51-7.8h2.95l1.97,9.47a9.128,9.128,0,0,0-5.37-1.73h0Zm0,0,13.07-.32a1.272,1.272,0,0,0-.9.38,1.267,1.267,0,0,0,0,1.79,1.263,1.263,0,0,0,.9.37,1.27,1.27,0,0,0,0-2.54h0Zm0,0-29.84-28.02a1.272,1.272,0,0,0,1.27-1.27v-9.12a1.27,1.27,0,0,0-2.54,0v9.12a1.272,1.272,0,0,0,1.27,1.27h0Zm0,0,0,6.06a1.272,1.272,0,0,0,1.27-1.27v-0.44a1.27,1.27,0,0,0-2.54,0v0.44a1.272,1.272,0,0,0,1.27,1.27h0Zm0,0" transform="translate(-1308.69 -5662)"/>
</svg>
