<svg xmlns="http://www.w3.org/2000/svg" width="55" height="64.97" viewBox="0 0 55 64.97">
  <defs>
    <style>
      .cls-1 {
        fill: #f50;
        fill-rule: evenodd;
      }
    </style>
  </defs>
  <path id="Icon_" data-name="Icon " class="cls-1" d="M1105.96,9633.84a6.843,6.843,0,0,1,6.36.05c1.37,0.69,2.3,1.96,3.41,2.97,4.98-.03,9.96-0.01,14.94-0.01,0,0.31,0,.62.01,0.93-0.77-.01-1.53-0.01-2.29-0.01-0.02,5.2,0,10.4-.01,15.61,0.77,0,1.53,0,2.3-.01-0.01.31-.01,0.61-0.01,0.93-3.46.02-6.91-.03-10.37,0.01l3.45,3.45a44.463,44.463,0,0,0-6.86,9.62,4,4,0,0,0-5.79,3.77,4.895,4.895,0,0,0-6.78,3.83c-1.81-.02-2.89-1.63-4.09-2.75a3.761,3.761,0,0,1-3.41-1.7,3.843,3.843,0,0,1-.46-3.01,9.732,9.732,0,0,0-8.19-5.54,3.778,3.778,0,0,1-.97-3.65,3.731,3.731,0,0,1-4.13-1.58,4.8,4.8,0,0,1-.63-2.34c-0.94-.97-1.91-1.91-2.86-2.87-1.3.02-2.6,0.01-3.9,0v-0.92c1.07-.01,2.13.01,3.2-0.01,0.01-5.2-.01-10.39.01-15.6h-3.21v-0.92h22.22a4.4,4.4,0,0,1,3.18.97c0.56,0.51,1.05,1.1,1.63,1.59A13.4,13.4,0,0,1,1105.96,9633.84Zm-0.98,1.82c-2.98,3-5.99,5.98-8.96,8.99a6.045,6.045,0,0,0,7.85-.03c1.67-1.6,3.27-3.27,4.92-4.89l0.63,0.66c-0.5.5-1,1-1.5,1.51q5.73,5.745,11.47,11.48c0.18,0,.55,0,0.74-0.01q-0.015-7.8,0-15.6c-1.6-.03-3.21.07-4.8-0.04-1.2-.99-2.1-2.36-3.53-3.07A5.971,5.971,0,0,0,1104.98,9635.66Zm-25.18-.63q0.015,7.755.01,15.53c1.05,0.85,1.93,1.89,2.9,2.82a4.854,4.854,0,0,1,.87-1.27c1.23-1.22,2.45-2.45,3.68-3.67a3.719,3.719,0,0,1,4.28-.66,3.766,3.766,0,0,1,1.89,4.32,3.854,3.854,0,0,1,2.57.21,3.775,3.775,0,0,1,2.01,4.38,3.707,3.707,0,0,1,2.54.2,5.963,5.963,0,0,0,6.09,5.86,3.794,3.794,0,0,1-.53,4.87,15.885,15.885,0,0,0,2.79,2.53,2.775,2.775,0,0,0,3.88-2.56c0.08-1.5-1.31-2.37-2.19-3.36a7.84,7.84,0,0,0,.65-0.64,26.4,26.4,0,0,0,2.99,2.81,2.8,2.8,0,0,0,4.07-2.47c0.04-1.49-1.29-2.37-2.19-3.35,0.21-.21.43-0.42,0.65-0.64,0.81,0.81,1.6,1.64,2.44,2.42a2.771,2.771,0,0,0,3.77-4.06c-5.21-5.25-10.46-10.47-15.68-15.73-1.49,1.26-2.62,2.99-4.44,3.81a6.956,6.956,0,0,1-7.69-1.27,0.5,0.5,0,0,1-.1-0.81c2.31-2.34,4.65-4.65,6.96-6.99a8.371,8.371,0,0,0-2.48-2.08,3.978,3.978,0,0,0-1.64-.22C1091.87,9635.04,1085.83,9635,1079.8,9635.03Zm41.25,2.74v15.59c2.13,0.02,4.27.01,6.41,0.02q-0.015-7.815,0-15.61C1125.32,9637.76,1123.18,9637.79,1121.05,9637.77Zm-31.81,10.59a4.059,4.059,0,0,0-2.02,1.42c-1.03,1.04-2.07,2.07-3.09,3.11a2.774,2.774,0,0,0,3.93,3.91q1.9-1.875,3.76-3.76a2.742,2.742,0,0,0,.57-3.08A2.784,2.784,0,0,0,1089.24,9648.36Zm4.59,4.59a2.624,2.624,0,0,0-1.32.73c-1.25,1.21-2.47,2.45-3.69,3.69a2.781,2.781,0,0,0,3.1,4.51,16.982,16.982,0,0,0,2.77-2.53c0.97-1.11,2.56-2.02,2.53-3.68A2.808,2.808,0,0,0,1093.83,9652.95Zm4.57,4.6a4.05,4.05,0,0,0-2,1.41c-1.03,1.05-2.08,2.06-3.1,3.12a2.771,2.771,0,0,0,3.92,3.91q1.9-1.875,3.77-3.78a2.828,2.828,0,0,0,.58-3.07A2.791,2.791,0,0,0,1098.4,9657.55Zm4.59,4.59a2.558,2.558,0,0,0-1.33.74c-1.28,1.24-2.53,2.51-3.78,3.78a2.761,2.761,0,0,0-.46,3.05,2.793,2.793,0,0,0,3.67,1.35,17.957,17.957,0,0,0,2.78-2.53c0.96-1.11,2.54-2.02,2.51-3.68A2.8,2.8,0,0,0,1102.99,9662.14Zm-1.7,9.85c0.86,0.76,1.56,1.89,2.79,2.04a2.791,2.791,0,0,0,3.2-3.01c-0.05-1.2-1.08-1.95-1.83-2.75C1104.03,9669.46,1102.98,9671.14,1101.29,9671.99Zm22.51-21.82,0.93-.03c-0.01.31-.02,0.62-0.02,0.94-0.31,0-.63.01-0.94,0.02Q1123.785,9650.62,1123.8,9650.17Zm-48.12-17.77v-1.05l12.33-11.51,8.89,9.49,14-13.82,6.56,7.63,11.36-11.81,0.55,0.53-11.94,12.42-6.58-7.65-13.97,13.79-8.91-9.5Zm14.74-11.38a2.4,2.4,0,1,1-2.4-2.4A2.394,2.394,0,0,1,1090.42,9621.02Zm-2.4,2.7a2.7,2.7,0,1,1,2.69-2.7A2.7,2.7,0,0,1,1088.02,9623.72Zm0-4.81a2.11,2.11,0,1,0,2.11,2.11A2.108,2.108,0,0,0,1088.02,9618.91Zm10.95,10.66a2.4,2.4,0,1,1-2.4-2.41A2.407,2.407,0,0,1,1098.97,9629.57Zm-2.4,2.69a2.7,2.7,0,1,1,2.69-2.69A2.7,2.7,0,0,1,1096.57,9632.26Zm0-4.8a2.11,2.11,0,1,0,2.1,2.11A2.11,2.11,0,0,0,1096.57,9627.46Zm16.73-11.25a2.4,2.4,0,1,1-2.4-2.4A2.409,2.409,0,0,1,1113.3,9616.21Zm-2.4,2.7a2.7,2.7,0,1,1,2.69-2.7A2.7,2.7,0,0,1,1110.9,9618.91Zm0-4.81a2.11,2.11,0,1,0,2.1,2.11A2.117,2.117,0,0,0,1110.9,9614.1Zm8.75,9.32a2.4,2.4,0,1,1-2.4-2.4A2.4,2.4,0,0,1,1119.65,9623.42Zm-2.4,2.7a2.7,2.7,0,1,1,2.7-2.7A2.7,2.7,0,0,1,1117.25,9626.12Zm0-4.81a2.115,2.115,0,1,0,2.11,2.11A2.108,2.108,0,0,0,1117.25,9621.31Zm12.03-9.35,0.25-.28,0.75,1.16,0.39-2.85-3.04.6,1.3,0.58-0.2.25Z" transform="translate(-1075.69 -9610)"/>
</svg>
