<svg xmlns="http://www.w3.org/2000/svg" xmlns:xlink="http://www.w3.org/1999/xlink" width="64.97" height="64" viewBox="0 0 64.97 64">
  <defs>
    <style>
      .cls-1 {
        fill: #fff;
        fill-rule: evenodd;
        filter: url(#filter);
      }
    </style>
    <filter id="filter" x="1355.69" y="9610" width="64.97" height="64" filterUnits="userSpaceOnUse">
      <feFlood result="flood" flood-color="#f50"/>
      <feComposite result="composite" operator="in" in2="SourceGraphic"/>
      <feBlend result="blend" in2="SourceGraphic"/>
    </filter>
  </defs>
  <path id="Icon_" data-name="Icon " class="cls-1" d="M1387.49,9610.34c1-.7,2.26-0.18,3.27.22,2.72,1.2,5.49,2.71,8.55,2.56,2.87-.14,5.4-1.61,7.99-2.69,0.94-.37,2.14-0.74,3.02-0.04,0.9,0.8.88,2.13,0.87,3.24a20.444,20.444,0,0,1-3.21,9.73,3.247,3.247,0,1,1,.3,6.47,29.758,29.758,0,0,1,6.38,7.53,42.927,42.927,0,0,1,5.41,13.7c0.74,3.86,1.08,8.09-.67,11.74a10.79,10.79,0,0,1-6.98,5.42c-4.76,1.35-9.77,1.15-14.67,1.21-1.7-.03-3.39-0.08-5.08-0.15a3.465,3.465,0,0,1-2.94,4.69c-3.8.04-7.6,0.01-11.41,0.02a3.454,3.454,0,0,1-3.3-2.04,5.329,5.329,0,0,0-.28-6.95,3.53,3.53,0,0,1,1.36-2.71,3.472,3.472,0,0,1,.01-5.53,3.471,3.471,0,0,1-.93-4.45,3.675,3.675,0,0,1,2.58-1.73,43.422,43.422,0,0,1,5.47-13.47,29.167,29.167,0,0,1,6.23-7.28,3.28,3.28,0,0,1-3.29-3.58,3.359,3.359,0,0,1,3.58-2.91,20.693,20.693,0,0,1-3.21-9.46C1386.51,9612.67,1386.45,9611.18,1387.49,9610.34Zm0.36,2.79a19.368,19.368,0,0,0,3.47,10.23q7.545,0.03,15.09.01a19.75,19.75,0,0,0,3.44-9.48c-0.02-.84.16-1.83-0.43-2.52a4.6,4.6,0,0,0-2.39.61c-2.45,1.13-4.96,2.36-7.71,2.47-2.81.13-5.46-.99-7.95-2.17a8.138,8.138,0,0,0-2.94-.96C1387.83,9611.69,1387.9,9612.52,1387.85,9613.13Zm0.72,11.75a1.823,1.823,0,0,0-1.08,1.64,1.874,1.874,0,0,0,1.97,1.95c6.23,0.01,12.46-.01,18.69,0a1.936,1.936,0,0,0,2.05-1.41,1.887,1.887,0,0,0-1.77-2.35c-6.06-.04-12.11.01-18.17-0.02A4.586,4.586,0,0,0,1388.57,9624.88Zm-3.55,11.96a41.149,41.149,0,0,0-5.89,13.75c3.45,0,6.9-.01,10.35,0a3.421,3.421,0,0,1,3.34,4.1,3.894,3.894,0,0,1-1.3,2.07,3.512,3.512,0,0,1,1.32,3.36,3.773,3.773,0,0,1-1.32,2.16,3.556,3.556,0,0,1,1.29,3.51,4.337,4.337,0,0,1-1.33,2.12c4.59,0.23,9.2.22,13.79,0.04,3.5-.26,7.21-0.57,10.23-2.55a8.881,8.881,0,0,0,3.7-6.57,27.846,27.846,0,0,0-1.32-11.09,40.9,40.9,0,0,0-5.83-11.92,25.846,25.846,0,0,0-5.96-6.03c-1.04.01-2.08,0-3.11,0,0.64,1.38,1.28,2.77,1.9,4.16-0.4.19-.81,0.37-1.21,0.56-0.71-1.58-1.42-3.16-2.16-4.73-1.77.02-3.53,0.01-5.3,0.01-0.73,1.56-1.4,3.15-2.16,4.71-0.4-.19-0.79-0.37-1.18-0.56,0.61-1.39,1.25-2.77,1.89-4.15-1.04.03-2.09-.07-3.12,0.04A26,26,0,0,0,1385.02,9636.84Zm-7.38,15.13a2.082,2.082,0,0,0-1.53,2.43,2.111,2.111,0,0,0,2.22,1.69c3.72-.01,7.44.01,11.16-0.01a2.039,2.039,0,0,0,2.04-2.18,2.081,2.081,0,0,0-2.3-2C1385.36,9651.96,1381.5,9651.82,1377.64,9651.97Zm-0.29,5.62a2.106,2.106,0,0,0,.29,3.96c3.86,0.14,7.73.01,11.59,0.07a2.088,2.088,0,0,0,2.3-2.03,2.047,2.047,0,0,0-2.05-2.16c-3.63-.02-7.26.01-10.89-0.01A3.059,3.059,0,0,0,1377.35,9657.59Zm0.05,5.5a2.1,2.1,0,0,0-1.32,2.19,2.152,2.152,0,0,0,2.26,1.88c3.72-.01,7.43,0,11.15-0.01a2.138,2.138,0,0,0,2.06-1.89,2.066,2.066,0,0,0-2.06-2.28c-3.63-.04-7.27.02-10.9-0.02A3.66,3.66,0,0,0,1377.4,9663.09Zm0.53,5.41a2.086,2.086,0,0,0,.16,4.16q5.7,0.015,11.4,0a2.08,2.08,0,0,0,2.02-2.52,2.155,2.155,0,0,0-2.28-1.67C1385.46,9668.5,1381.69,9668.44,1377.93,9668.5Zm11.3-52.92c0.44-.09.88-0.19,1.32-0.28,0.11,0.51.24,1.01,0.38,1.51-0.43.13-.85,0.27-1.28,0.4C1389.5,9616.67,1389.37,9616.13,1389.23,9615.58Zm17.89,0c0.44,0.1.88,0.19,1.31,0.29-0.11.44-.23,0.88-0.34,1.32-0.44-.12-0.88-0.25-1.32-0.38C1406.9,9616.41,1407.01,9615.99,1407.12,9615.58Zm-17.09,2.84c0.42-.17.84-0.33,1.26-0.49a20.392,20.392,0,0,0,1.6,3.29c-0.37.24-.75,0.48-1.13,0.72A28.7,28.7,0,0,1,1390.03,9618.42Zm14.8,2.81a27.438,27.438,0,0,0,1.57-3.11c0.39,0.17.79,0.34,1.19,0.5a22.37,22.37,0,0,1-1.61,3.3C1405.59,9621.69,1405.21,9621.46,1404.83,9621.23Zm-32.65-2.02c0.17,0,.5-0.01.66-0.02,0,0.45-.01.9-0.01,1.35h-0.64C1372.19,9620.1,1372.18,9619.66,1372.18,9619.21Zm2.16-.01c0.51,0,1.02,0,1.53.01,0,0.44,0,.88-0.01,1.33-0.51-.01-1.01-0.01-1.53-0.01C1374.34,9620.09,1374.34,9619.64,1374.34,9619.2Zm3.03,0.01h1.52v1.32c-0.5,0-1.01,0-1.51.01C1377.38,9620.09,1377.37,9619.65,1377.37,9619.21Zm2.99-.01h0.7v1.36l-0.68-.06C1380.37,9620.06,1380.37,9619.63,1380.36,9619.2Zm-19.95,10.09c0.23-.01.46-0.03,0.69-0.04-0.01.46-.01,0.91-0.02,1.37l-0.67-.03v-1.3Zm2.19-.01c0.51,0,1.02,0,1.54.01-0.01.43-.02,0.87-0.02,1.31-0.51,0-1.02,0-1.52.01v-1.33Zm3,0h1.52v1.33c-0.51-.01-1.01-0.01-1.52-0.01v-1.32Zm3.02-.02,0.69,0.03c0,0.43.01,0.86,0.02,1.3l-0.69.03C1368.63,9630.17,1368.62,9629.71,1368.62,9629.26Zm13.6,4.57c0.42-.58.85-1.15,1.29-1.72,0.35,0.29.69,0.58,1.04,0.86-0.43.53-.84,1.08-1.24,1.63C1382.94,9634.34,1382.58,9634.09,1382.22,9633.83Zm-1.29,1.97c0.37,0.23.75,0.47,1.13,0.71a44.182,44.182,0,0,0-3.49,6.94c-0.41-.17-0.83-0.33-1.24-0.51A48.226,48.226,0,0,1,1380.93,9635.8Zm17.94,2.78h1.34c-0.01,1.18-.02,2.36,0,3.54a4.681,4.681,0,0,1,3.91,4.48c-0.44,0-.88,0-1.32.01a3.471,3.471,0,0,0-1.66-2.78,3.249,3.249,0,0,0-4.46,1.28,3.214,3.214,0,0,0,1.08,4.17c1.04,0.76,2.41.35,3.53,0.88a4.555,4.555,0,0,1,2.65,5.3,4.691,4.691,0,0,1-3.73,3.38c-0.01,1.18,0,2.36-.01,3.55h-1.33c0-1.19.01-2.37,0-3.56a4.681,4.681,0,0,1-3.92-4.49c0.44-.01.88-0.01,1.32-0.01a3.434,3.434,0,0,0,1.81,2.87,3.238,3.238,0,0,0,4.29-1.36,3.173,3.173,0,0,0-1.09-4.18c-1.08-.78-2.53-0.32-3.68-0.94a4.56,4.56,0,0,1-2.44-5.38,4.747,4.747,0,0,1,3.72-3.25C1398.87,9640.92,1398.88,9639.75,1398.87,9638.58Zm-43.18,4.24a3.446,3.446,0,0,1,3.45-3.29c3.81,0,7.6-.02,11.4,0a3.4,3.4,0,0,1,3.3,3.54,3.542,3.542,0,0,1-1.37,2.63,3.468,3.468,0,0,1,.01,5.53,9.538,9.538,0,0,0,1.37,8.36,3.6,3.6,0,0,1-1.37,2.69,3.549,3.549,0,0,1,1.37,2.73,3.623,3.623,0,0,1-1.38,2.81,3.423,3.423,0,0,1-2.16,6.17h-11.16a3.421,3.421,0,0,1-2.08-6.17,9.265,9.265,0,0,0-1.38-8.24,3.606,3.606,0,0,0,0-5.69,3.556,3.556,0,0,1,1.38-2.64,3.475,3.475,0,0,1,0-5.56A3.533,3.533,0,0,1,1355.69,9642.82Zm3.05-1.94a2.091,2.091,0,0,0,.41,4.15c3.79-.01,7.58.03,11.37-0.01a2.088,2.088,0,1,0-.22-4.17C1366.45,9640.88,1362.59,9640.8,1358.74,9640.88Zm-0.28,5.6a2.111,2.111,0,0,0-1.38,2.51,2.151,2.151,0,0,0,2.07,1.58c3.72,0.02,7.44.01,11.16,0a2.123,2.123,0,0,0,2.21-2.09,2.145,2.145,0,0,0-2.2-2.12c-3.55-.01-7.11.01-10.66,0A3.458,3.458,0,0,0,1358.46,9646.48Zm0.26,5.46a2.093,2.093,0,0,0,.44,4.15c3.55,0.02,7.09-.01,10.64.01a3.732,3.732,0,0,0,1.48-.19,2.09,2.09,0,0,0-.97-4C1366.45,9651.92,1362.58,9651.87,1358.72,9651.94Zm-0.51,5.7a2.1,2.1,0,0,0,.51,3.93c3.86,0.09,7.73.01,11.59,0.04a2.093,2.093,0,1,0,.24-4.18c-3.62-.03-7.24.01-10.86-0.01A2.978,2.978,0,0,0,1358.21,9657.64Zm0.05,5.49a2.167,2.167,0,0,0-1.25,1.88,2.138,2.138,0,0,0,2.15,2.14q5.58,0.015,11.16,0a2.129,2.129,0,0,0,2.2-2.13,2.093,2.093,0,0,0-2.19-2.06c-3.64.02-7.27-.01-10.91,0.01A2.865,2.865,0,0,0,1358.26,9663.13Zm0.5,5.39a2.1,2.1,0,0,0-1.75,2.17,2.131,2.131,0,0,0,2.13,1.98h11.17a2.1,2.1,0,1,0,0-4.19C1366.46,9668.5,1362.61,9668.44,1358.76,9668.52Zm31.68-20.03a9.4,9.4,0,0,1,2.36-8.52c0.31,0.31.63,0.61,0.94,0.92a8.3,8.3,0,0,0-2.02,7.32C1391.29,9648.3,1390.87,9648.4,1390.44,9648.49Zm15.25,10.5a8.41,8.41,0,0,0,1.85-5.13c0.44,0.02.88,0.05,1.32,0.08a10.056,10.056,0,0,1-2.07,5.86C1406.42,9659.53,1406.06,9659.26,1405.69,9658.99Zm8.41,10.02a23.093,23.093,0,0,0,2.5-1.22c0.23,0.37.47,0.74,0.71,1.11a19.782,19.782,0,0,1-2.73,1.35C1414.42,9669.84,1414.26,9669.43,1414.1,9669.01Zm-13.62,1.73a51.307,51.307,0,0,0,11.47-1.05c0.11,0.42.21,0.85,0.32,1.28a51.1,51.1,0,0,1-11.77,1.09C1400.49,9671.62,1400.49,9671.18,1400.48,9670.74Z" transform="translate(-1355.69 -9610)"/>
</svg>
