<svg xmlns="http://www.w3.org/2000/svg" width="65" height="62.03" viewBox="0 0 65 62.03">
  <defs>
    <style>
      .cls-1 {
        fill: #f50;
        fill-rule: evenodd;
      }
    </style>
  </defs>
  <path id="Icon_" data-name="Icon " class="cls-1" d="M1667.73,9611.82a18.555,18.555,0,0,1,11.6.23c0.1,0.03.3,0.1,0.39,0.14a14.693,14.693,0,0,1,4.24,2.65c0.08,0.06.22,0.18,0.29,0.24a17.505,17.505,0,0,1,2.83,3.79c0.12,0.2.23,0.42,0.34,0.64a23.078,23.078,0,0,1,1.68,4.79l0.12,0.56c0.01,0.07.03,0.2,0.04,0.26,1.8,0.01,3.6-.05,5.4.03a2.812,2.812,0,0,1,1.34,1.14,4.486,4.486,0,0,0,1.67,1.24,14.677,14.677,0,0,1,1.62,1.33c0.17,0.17.33,0.33,0.49,0.5a12.908,12.908,0,0,1,3.5,8.81c0.53,0.16,1.07.31,1.61,0.47-0.02,1.38.03,2.76-.02,4.13-0.13.04-.39,0.1-0.52,0.14a3.369,3.369,0,0,1-.3,4.08,3.872,3.872,0,0,1-2.32,1.13,27.981,27.981,0,0,1-1.68,3.7c-0.07.13-.21,0.38-0.28,0.5a18.684,18.684,0,0,1-2.66,3.64c-0.19.2-.39,0.4-0.6,0.59a16.488,16.488,0,0,1-1.46,1.19c1.16,0.54,2.32,1.11,3.47,1.66,0.96,0.48,1.93.94,2.9,1.38a9.7,9.7,0,0,1,2.88,1.73,4.856,4.856,0,0,1,1.37,3.36c0.01,2.36,0,4.71.01,7.06-5.43-.02-10.85.02-16.28,0.06h-48.72v-7.1a4.889,4.889,0,0,1,2.69-4.39c0.97-.48,1.95-0.94,2.93-1.42,0.72-.34,1.44-0.68,2.16-1.04,0.94-.44,1.88-0.9,2.82-1.34-0.36-.29-0.72-0.57-1.07-0.86-0.16-.14-0.33-0.29-0.49-0.44a17.024,17.024,0,0,1-2.77-3.49c-0.18-.31-0.36-0.61-0.53-0.92-0.73-1.24-1.22-2.6-1.84-3.89a3.422,3.422,0,0,1-2.54-5.26h-0.51c0-1.4-.03-2.81,0-4.21,0.53-.15,1.06-0.3,1.6-0.45a12.893,12.893,0,0,1,3.82-9.16c0.1-.09.3-0.29,0.4-0.38,1.1-1.13,2.79-1.56,3.52-3.04a2.957,2.957,0,0,1,1.52-.5c1.59,0.02,3.17.02,4.75,0.01,0.05-.19.13-0.59,0.18-0.78,0.03-.16.11-0.46,0.14-0.61a21.716,21.716,0,0,1,1.85-4.83,15.214,15.214,0,0,1,5.39-5.73,16.524,16.524,0,0,1,2.12-1.02C1667.12,9612.02,1667.42,9611.92,1667.73,9611.82Zm0.81,1.92,0.02,0.02a12.294,12.294,0,0,0-4.23,2.23c-0.17.15-.35,0.29-0.52,0.44a13.946,13.946,0,0,0-2.8,3.71c-0.05.11-.17,0.33-0.22,0.44a17.722,17.722,0,0,0-1.17,3.22h-0.04c-0.16.76-.33,1.52-0.46,2.29,0.3-.3.61-0.59,0.91-0.89l-0.04-.11,0.05,0.11a6.818,6.818,0,0,1,6.65-.78l-0.04.03c0.29,0.09.58,0.18,0.87,0.28,1.49,0.62,2.93,1.36,4.36,2.11,0.21,0.11.42,0.21,0.64,0.33,1.14,0.58,2.28,1.17,3.46,1.67,0.51,0.24,1.04.45,1.56,0.66a21.23,21.23,0,0,0,5.26,1.31c0.19,0.02.57,0.04,0.75,0.06,0.69,0.02,1.39.01,2.08-.03,0.31-.04.62-0.07,0.94-0.11l1.14-.21a34.705,34.705,0,0,0-.26-3.53l-0.18-1.2a7.085,7.085,0,0,0-.28-1.21,13.928,13.928,0,0,0-1.36-3.92l0.04-.02a14.841,14.841,0,0,0-2.8-3.95c-0.2-.18-0.4-0.36-0.6-0.55a12.4,12.4,0,0,0-4.33-2.34l0.01-.03a18.349,18.349,0,0,0-2.2-.48,20.245,20.245,0,0,0-4.12-.13A19.326,19.326,0,0,0,1668.54,9613.74Zm-7.57,13.4-0.54.6c-0.97,1.38-2.08,2.92-1.7,4.7,0.04,0.44.09,0.87,0.14,1.31a25.472,25.472,0,0,0,1.22,4.73c0.11,0.29.22,0.57,0.33,0.86a39.1,39.1,0,0,0,2.06,4.34c0.12,0.23.24,0.46,0.35,0.7,0.08,0.07.23,0.23,0.31,0.31a15.168,15.168,0,0,0,7.08,6.83,8.029,8.029,0,0,0,6.27-.11c0.25-.13.5-0.25,0.75-0.38,0.23-.14.46-0.28,0.69-0.43a14.255,14.255,0,0,0,4.44-4.44,16.663,16.663,0,0,0,1.59-2.43c0.07-.13.22-0.4,0.29-0.54a43.714,43.714,0,0,0,1.99-4.35l0.3-.81a14.506,14.506,0,0,0,.8-3.11,12.461,12.461,0,0,0,.22-1.61c0.03-.16.1-0.47,0.13-0.63a19.149,19.149,0,0,1-6.32.06c-0.36-.08-0.71-0.15-1.07-0.22a27.181,27.181,0,0,1-4.31-1.42c-0.26-.11-0.53-0.22-0.79-0.33-1.4-.63-2.77-1.32-4.12-2.03a32.723,32.723,0,0,0-3.73-1.79,7.633,7.633,0,0,0-1.54-.62l0.02-.02c-0.4-.09-0.8-0.2-1.2-0.29A4.309,4.309,0,0,0,1660.97,9627.14Zm-8.81.03c-0.02,1.49-.01,2.97-0.01,4.46,0,0.2.01,0.61,0.02,0.81-0.01.2-.04,0.57-0.05,0.76-0.66-.01-1.33-0.01-1.99-0.03-0.19-1.34-.02-2.72-0.08-4.07a10.689,10.689,0,0,0-4.23,5.47c-0.05.13-.13,0.4-0.18,0.54a14.75,14.75,0,0,0-.39,4.59,4.545,4.545,0,0,0-1.73.66l0.1,0.33c4.7,0.03,9.41-.01,14.12.02,0.24-.03,1.32.09,0.79-0.37-0.16-.45-0.34-0.9-0.51-1.35a4.717,4.717,0,0,1-3.18-1.62c-0.11-.16-0.23-0.33-0.34-0.49-0.17-.37-0.34-0.73-0.51-1.1-0.03-.19-0.1-0.58-0.14-0.77a4.383,4.383,0,0,1,1.95-4.28c0.27-.12.54-0.23,0.81-0.35,0.02-1.1.14-2.19,0.18-3.28l-0.19.16c-0.96-.09-1.93-0.04-2.9-0.05-0.35,0-.7.02-1.05,0.04Zm37.32,0.08,0.18,0.19c0.03,0.99.12,1.97,0.15,2.96,0.13,0.06.39,0.17,0.52,0.22s0.36,0.15.48,0.19a4.706,4.706,0,0,1,1.67,4.78c-0.24.5-.44,1.01-0.69,1.5a4.443,4.443,0,0,1-3.41,1.9c-0.21.56-.43,1.13-0.67,1.68,5.03,0.02,10.06.03,15.08,0,0-.85-1.09-0.7-1.67-0.98a19.924,19.924,0,0,0-.23-3.86l-0.27-1.08a10.849,10.849,0,0,0-4.31-5.63c-0.03,1.36.01,2.71,0,4.07-0.7,0-1.4-.01-2.1-0.02-0.01-.43-0.01-0.85-0.01-1.28v-0.99c-0.01-1.14.05-2.28-.04-3.42l0.12-.25c-0.2,0-.61-0.01-0.81-0.02h-2.88C1690.22,9627.21,1689.85,9627.22,1689.48,9627.25Zm0.33,5.35c-0.13,1.36-.36,2.71-0.62,4.05A2.638,2.638,0,0,0,1689.81,9632.6Zm-32.49,4.1a33.165,33.165,0,0,1-.71-4.06A2.589,2.589,0,0,0,1657.32,9636.7Zm-12.7,6.08c0,0.18.02,0.55,0.02,0.73a1.159,1.159,0,0,0-.98,1.44,1.518,1.518,0,0,0,1.91,1.02l0.55-.12a30.424,30.424,0,0,0,1.93,4.69c0.1,0.22.2,0.45,0.29,0.68l0.07-.06a15.447,15.447,0,0,0,2.71,3.71l0.63,0.57a6.493,6.493,0,0,0,5.01,1.65,7.087,7.087,0,0,0,2.94-1.3,12.818,12.818,0,0,0,3.21-3.63l0.07,0.01a27,27,0,0,0,1.29-2.44c-0.08-.07-0.24-0.22-0.32-0.3a25.125,25.125,0,0,1-2.64-3.59c-0.11-.19-0.23-0.38-0.34-0.56-0.47-.82-0.91-1.66-1.33-2.5h-6.13c-1.38,0-2.76.01-4.14-.01-1.07.02-2.14,0-3.21,0.01h-1.54Zm41.16,1.89c-0.12.2-.24,0.41-0.35,0.61a29.2,29.2,0,0,1-2.68,3.83c-0.16.15-.32,0.29-0.48,0.43-0.01.96,0.76,1.73,1.17,2.56,0.11,0.17.22,0.34,0.33,0.5a12.32,12.32,0,0,0,3.48,3.53l0.45,0.29a8.5,8.5,0,0,0,2.08.7l0.78,0.04a7.346,7.346,0,0,0,4.51-2.09l0.56-.56a16.772,16.772,0,0,0,2.61-3.8l0.03,0.02c0.1-.22.21-0.44,0.32-0.66a36.8,36.8,0,0,0,1.7-4.17,9.979,9.979,0,0,0,1.73.06l-0.12-.08a1.218,1.218,0,0,0-.15-2.37c0.01-.18.04-0.54,0.05-0.72-0.21-.01-0.62-0.01-0.83-0.01h-3.22c-1.37,0-2.75.01-4.12,0h-3.22c-1.22.01-2.43,0-3.65,0C1686.44,9643.42,1686.12,9644.05,1685.78,9644.67Zm-21.78,9.65c0.77-.39,1.55-0.76,2.35-1.1,0.03-.51.04-1.01,0.05-1.52-0.13-.1-0.41-0.31-0.54-0.42A26.3,26.3,0,0,1,1664,9654.32Zm16.01-2.61c0,0.49,0,.99.03,1.49,0.8,0.36,1.6.75,2.39,1.14-0.67-1-1.3-2.02-1.87-3.08C1680.42,9651.37,1680.15,9651.6,1680.01,9651.71Zm-11.53,1.32c0.07,0.45-.17,1.02.24,1.35,0.85,0.84,1.73,1.66,2.6,2.49,0.2,0.2.41,0.41,0.6,0.62a1.986,1.986,0,0,0,3.03-.48l0.37-.37c0.88-.83,1.75-1.65,2.61-2.5,0-.27-0.01-0.82-0.01-1.09a16.467,16.467,0,0,1-2.89,1,12.027,12.027,0,0,1-3.17.08A13.508,13.508,0,0,1,1668.48,9653.03Zm6.91,6.47c0.07,0.49.13,0.98,0.18,1.48l0.02-.03c0.13,1.3.31,2.59,0.45,3.88,0.11,0.96.22,1.92,0.34,2.88,0.14,1.06.25,2.13,0.39,3.19,0.99-.01,1.97-0.01,2.96-0.01h4.99c0-.52,0-1.04.01-1.57,0.69,0,1.38-.02,2.08.02-0.01.52-.01,1.04-0.01,1.55,0.86,0,1.71,0,2.57.01,0.7-.01,1.41-0.01,2.11-0.01,0.01-2.37-.02-4.74,0-7.11a4.426,4.426,0,0,0-1.11-2.96c-0.16-.14-0.31-0.29-0.46-0.43-1.44-.85-2.99-1.5-4.49-2.25-1.11-.55-2.21-1.12-3.37-1.58a10.743,10.743,0,0,0-1.43-.74c-0.3-.15-0.6-0.31-0.9-0.47C1678.25,9656.7,1676.83,9658.12,1675.39,9659.5Zm-9.98-3.47c-1.45.57-2.83,1.33-4.24,1.99-1.42.71-2.87,1.37-4.29,2.09-0.17.12-.35,0.24-0.52,0.37a4.3,4.3,0,0,0-1.44,2.66c-0.12,2.58-.03,5.17-0.06,7.75h4.74c0-.5-0.01-1-0.01-1.49,0.1-.03.29-0.09,0.39-0.11,0.57,0.03,1.14.03,1.71,0.04v1.56h5.74c0.73,0,1.46,0,2.2.01,0.19-1.44.34-2.89,0.5-4.34,0.03-.25.05-0.5,0.08-0.75,0.26-1.89.41-3.78,0.69-5.67,0-.16.01-0.48,0.02-0.64-1.38-1.39-2.8-2.76-4.26-4.07l-0.39.09C1665.99,9655.69,1665.68,9655.83,1665.41,9656.03Zm26.26,3.13c0.33,0.37.65,0.75,0.97,1.14a5.631,5.631,0,0,0,.68-1.62C1692.77,9658.84,1692.23,9659.01,1691.67,9659.16Zm-38.58-.36a5.639,5.639,0,0,0,.64,1.49c0.3-.38.6-0.75,0.92-1.12A14.13,14.13,0,0,0,1653.09,9658.8Zm-3.06,1.86c-0.22.11-.45,0.22-0.67,0.33-1.47.7-2.92,1.42-4.39,2.12l0.12,0.12c-0.16.02-.49,0.08-0.65,0.11a2.952,2.952,0,0,0-1.6,2.51c-0.02,1.68.01,3.36,0,5.04h2.85c0.01-.22.02-0.67,0.03-0.89h2.09c0,0.22,0,.67.01,0.89h2.31c0.81,0,1.63.03,2.44-.05l0.18,0.17c0.04-.69.03-1.38,0.02-2.06,0-.2.01-0.59,0.01-0.78v-3.83a12.141,12.141,0,0,1,.12-2c-0.25-.25-0.51-0.5-0.77-0.74a9.677,9.677,0,0,1-.82-1.52C1650.88,9660.26,1650.45,9660.45,1650.03,9660.66Zm23-.63c-0.47,3.62-.86,7.24-1.29,10.86h2.83c-0.41-3.43-.81-6.85-1.21-10.28A0.6,0.6,0,0,0,1673.03,9660.03Zm22.1-.04c-0.18.36-.36,0.72-0.55,1.07-0.06.11-.19,0.33-0.26,0.44-0.3.27-.58,0.57-0.87,0.85,0.05,0.22.15,0.64,0.2,0.85-0.05,2.55-.02,5.1-0.02,7.65,1.65-.01,3.31-0.01,4.96,0l0.02-.17c0-.18-0.01-0.55-0.01-0.73,0.69,0,1.38-.01,2.07-0.02,0.01,0.23.02,0.69,0.03,0.92q1.44-.015,2.88,0v-1.38c-0.02-1.28.04-2.58-.02-3.86a3.124,3.124,0,0,0-1.05-1.99c-0.23-.12-0.45-0.25-0.68-0.37-1.36-.66-2.73-1.31-4.09-1.99-0.29-.13-0.57-0.27-0.85-0.4C1696.3,9660.57,1695.71,9660.28,1695.13,9659.99Z" transform="translate(-1640.69 -9610.97)"/>
</svg>
