<svg xmlns="http://www.w3.org/2000/svg" width="65" height="56" viewBox="0 0 65 56">
  <defs>
    <style>
      .cls-1 {
        fill: #f50;
        fill-rule: evenodd;
      }
    </style>
  </defs>
  <path id="Icon_" data-name="Icon " class="cls-1" d="M795.048,10100H796.7c0.889,0.9,1.886,2.1,1.314,3.6a2.139,2.139,0,0,1-4.163.1C793.228,10102.3,794.174,10100.9,795.048,10100Zm45.125,0h1.662c1,0.8,1.938,2.3,1.324,3.7a2.147,2.147,0,0,1-4.177-.1C838.434,10102.2,839.406,10100.9,840.173,10100Zm-48.592,8.7c0.368-1.6,1.463-2.8,2.869-2.7,1.795,0,4.315-.7,5.394,1.6,1.315,2.9,1.028,6.4.977,9.7-0.506-.1-1.012-0.1-1.514-0.2a42.619,42.619,0,0,0-.526-8.3c-0.322,4.2-.118,8.5-0.169,12.8a12.518,12.518,0,0,1,7.067,4.1h5.307c-0.015.4-.051,1.1-0.066,1.5h-4.776a9.073,9.073,0,0,1-3.7,4.9c2.756,2.7,5.41,5.6,8.176,8.2,1.33-.4,2.669-0.7,4.019-1a3.473,3.473,0,0,1-1.795,2.1c-2.019.9-4.469,1.9-5.312,4.5-0.737,2.3.854,4.5,2.48,5.6a16.909,16.909,0,0,0,13.166,1.7c2.4-.7,5.155-1.9,6.29-4.8,0.808-2.4-.967-4.8-2.746-5.8-1.483-1-3.676-1-4.341-3.3,1.36,0.3,2.71.6,4.049,1,2.741-2.7,5.4-5.5,8.136-8.2a8.911,8.911,0,0,1-3.661-4.8c-1.519-.1-3.043-0.1-4.551-0.3a3.2,3.2,0,0,0-.737.5,21.3,21.3,0,0,1-.255,5,1.025,1.025,0,0,1-1.923-.5c-0.22-3.7.082-7.6-.966-11.2-0.215,8.1-.036,16.2-0.087,24.2-0.1,1.1.1,2.6-.875,3.2-1.1.9-2.812-.3-2.638-1.9-0.123-5.1.01-10.2-.041-15.3h-0.66c-0.035,5.1.087,10.2-.04,15.3,0.163,1.7-1.662,2.8-2.751,1.8-0.844-.7-0.66-2-0.752-3-0.061-8.1.133-16.2-.092-24.3-1.053,3.6-.752,7.5-0.967,11.2-0.02,1.6-2.265,1.1-2.091-.3-0.256-4.4-.363-9.3,1.667-13.2,1.151-2.2,3.544-1.8,5.4-1.8,1.626,0.1,3.625-.4,4.868,1.2,1.621,2,1.932,5,2.1,7.7a38.139,38.139,0,0,0,4.781.1c1.365,0,2.265-1.4,3.365-2.1a7.6,7.6,0,0,1,4.74-1.6c-0.046-4.4.148-8.9-.2-13.3a41.393,41.393,0,0,0-.46,5.3c-0.092,1.3.143,2.8-.854,3.8-1.273-2-.782-4.6-0.613-6.9,0.25-2,.976-4.9,3.134-4.9,1.933,0,4.75-.7,5.737,1.9a17.44,17.44,0,0,1,.558,9.4c-0.282,0-.849-0.1-1.136-0.1-0.2-2.8-.076-5.7-0.674-8.4-0.22,6-.118,12-0.185,18a1.145,1.145,0,0,1-2.229.5c-0.429-3.9,0-7.9-.189-11.9-0.757,3.8-.189,7.8-0.568,11.7a1.1,1.1,0,0,1-2.158.2,36.052,36.052,0,0,1-.23-4.8c-1.728,1-4.049,1.5-4.9,3.8-0.548,2.1,1.186,3.8,2.659,4.4a11.51,11.51,0,0,0,10.528-.3c1.283-.7,2.746-2.3,2.086-4.2-0.844-2.1-3.032-2.5-4.541-3.7,0.006-.1.016-0.4,0.021-0.5a7.617,7.617,0,0,1,6.407,3.8c1.094,2-.271,4.3-1.8,5.3-3.958,2.8-8.815,2.6-13.136,1.4-1.933,3.2-3.85,6.4-5.793,9.6,1.145,1.4,2.582,2.7,2.817,4.7a6.431,6.431,0,0,1-2.439,5.5c-2.787,2.4-6.254,3.2-9.582,3.7h-4.193a19.983,19.983,0,0,1-8.422-2.8c-1.81-1.1-3.758-3-3.763-5.7-0.036-2.3,1.6-3.9,2.858-5.4-1.958-3.2-3.855-6.4-5.788-9.6a17.305,17.305,0,0,1-10.559,0c-1.8-.7-3.779-1.8-4.592-3.9a4.137,4.137,0,0,1,1.186-4.2,8.342,8.342,0,0,1,5.441-2.4c0,0.1.025,0.4,0.031,0.5-1.166.9-2.506,1.3-3.616,2.3a3.048,3.048,0,0,0-.812,3.6,6.678,6.678,0,0,0,4.141,3,11.605,11.605,0,0,0,9.26-1.2c1.125-.8,2.23-2.3,1.724-3.9-0.839-2.3-3.166-2.8-4.9-3.7a34.547,34.547,0,0,1-.205,4.6,1.14,1.14,0,0,1-2.224-.5c-0.266-3.8.22-7.6-.506-11.3-0.23,4,.266,8-0.184,12a1.184,1.184,0,0,1-2.26-.6c-0.01-6,.036-12-0.159-18.1-0.573,2.6-.455,5.3-0.7,7.9a9.722,9.722,0,0,1-1.166,1.3A22.82,22.82,0,0,1,791.581,10108.7Zm3.989-1.6a57.223,57.223,0,0,1-.594,6.1c0.272,0.4.814,1.2,1.09,1.6,1.355-2.4.122-5.2,0.25-7.7H795.57Zm45.14,0a61.189,61.189,0,0,1-.578,6.1c0.235,0.3.706,1,.946,1.4,0.24-.3.731-1,0.977-1.4-0.271-2-.573-4.1-0.639-6.1H840.71Zm-23.306,11.7a8.869,8.869,0,0,1,.853,1,32.2,32.2,0,0,0-1.027,7.1,20.608,20.608,0,0,0,1.217,2.3c0.475-.8.951-1.5,1.426-2.2a46.689,46.689,0,0,0-1.125-7.2,8.832,8.832,0,0,1,.839-1A1.4,1.4,0,0,0,817.4,10118.8Zm0.27-10.6c2.25-.9,4.628,2,3.948,4.6-0.46,2.8-3.651,3.9-5.308,1.9C814.417,10112.9,815.307,10108.8,817.674,10108.2Z" transform="translate(-786 -10100)"/>
</svg>
