<svg xmlns="http://www.w3.org/2000/svg" width="40" height="40" viewBox="0 0 40 40">
  <defs>
    <style>
      .cls-1 {
        fill: #fff;
        fill-rule: evenodd;
      }
    </style>
  </defs>
  <path id="Icon_" data-name="Icon " class="cls-1" d="M465,1412.26c2.059-.47,4.195-0.12,6.288-0.23a22.836,22.836,0,0,1,.181,2.55h27.016a11.512,11.512,0,0,1,.145-2.35c1.991-.45,4.08-0.06,6.11-0.22a37.265,37.265,0,0,1,.16,6.24c-0.846.1-1.689,0.17-2.536,0.23,0.015,1.01.022,2.03,0.033,3.04-0.331.1-.665,0.19-1,0.26-0.548-.98-0.138-2.18-0.309-3.26-0.755-.13-1.522-0.11-2.277-0.22a6.23,6.23,0,0,1-.258-2.43q-13.546-.015-27.092,0a18.28,18.28,0,0,1-.1,2.18c-0.665.56-1.671,0.31-2.488,0.42,0.036,9.03,0,18.07.018,27.1h2.361a15.568,15.568,0,0,1,.211,2.63q13.518,0.015,27.03,0c0.011-.79.022-1.58,0.04-2.37,0.864-.12,1.732-0.19,2.6-0.24-0.032-7.41-.011-14.83-0.011-22.25,0.429-.1,1.315-0.47,1.268.34,0.116,7.28.007,14.57,0.047,21.86a12.227,12.227,0,0,1,2.561.22c-0.036,2.01-.007,4.02-0.022,6.02a47.814,47.814,0,0,1-6.222.19,16.384,16.384,0,0,1-.222-2.55q-13.54,0-27.077,0c-0.142.78,0.269,1.84-.367,2.44a37.489,37.489,0,0,1-5.608.05c-0.1-.06-0.305-0.19-0.407-0.25a48.178,48.178,0,0,1,.022-5.8,7.024,7.024,0,0,1,2.47-.22v-27.21a6.392,6.392,0,0,1-2.467-.24C464.909,1416.22,465.1,1414.24,465,1412.26Zm34.916,1.03c-0.087,1.28-.094,2.56-0.069,3.83,1.271,0.01,2.543.01,3.814,0.01,0-1.26.008-2.51,0.022-3.77C502.43,1413.31,501.173,1413.3,499.916,1413.29Zm-33.568.04c0,1.27,0,2.53,0,3.8h3.76q0-1.905,0-3.81C468.858,1413.31,467.6,1413.31,466.348,1413.33Zm0.007,33.45q-0.017,1.935,0,3.87c1.253,0.01,2.507.01,3.76,0.01,0-1.29,0-2.59,0-3.88Q468.235,1446.765,466.355,1446.78Zm33.5,0.09c-0.011,1.3-.011,2.59,0,3.88,1.271,0.01,2.539.01,3.811,0q0.016-1.935,0-3.87C502.39,1446.87,501.122,1446.87,499.851,1446.87Zm-26.329-26.08a10.205,10.205,0,0,1,2.4-.24c6.811,0.08,13.622-.06,20.429.07,0.324,3.44.055,6.89,0.157,10.33,0.022,0.69.116,1.87-.923,1.72-7.294.06-14.588-.01-21.879,0.03C473.271,1428.76,473.634,1424.76,473.522,1420.79Zm3.7,1.04c2.5,1.49,5.155,2.7,7.745,4.02,2.59-1.38,5.271-2.57,7.839-3.99C487.62,1421.7,482.418,1421.76,477.227,1421.83Zm-2.434.42c-0.029,2.89-.022,5.77,0,8.66,2.888-1.44,5.8-2.83,8.66-4.32C480.6,1425.07,477.678,1423.7,474.793,1422.25Zm11.661,4.33c2.888,1.5,5.823,2.9,8.725,4.36q0-4.35,0-8.72C492.273,1423.68,489.342,1425.09,486.454,1426.58Zm-9.256,4.74c5.162,0.11,10.331.09,15.493,0.01-2.492-1.5-5.184-2.64-7.745-4.01C482.364,1428.66,479.719,1429.87,477.2,1431.32Zm-3.509,2.89a5.556,5.556,0,0,1,1.86-.2c6.647,0.05,13.3-.01,19.939.03a0.915,0.915,0,0,1,.923,1.34q-11.411.06-22.824,0C473.613,1435.09,473.664,1434.5,473.689,1434.21Zm-0.065,3.75c-0.258-.66.072-1.38,0.86-1.18,3.212,0.03,6.448-.15,9.649.09,0.072,0.27.225,0.81,0.3,1.07C480.834,1438.11,477.22,1438.11,473.624,1437.96Zm12.081-1.16c3.5-.02,7.011-0.14,10.5.05,0.058,0.28.171,0.85,0.225,1.13-3.592.11-7.192,0.1-10.785,0.01C485.662,1437.69,485.691,1437.09,485.705,1436.8Zm-12.045,2.76c3.582-.14,7.185-0.13,10.77.02-0.181.41-.1,1.31-0.813,1.17q-5,.045-10.008-0.01C473.62,1440.44,473.649,1439.86,473.66,1439.56Zm11.987-.02c3.6-.08,7.207-0.12,10.8.02-0.062.28-.186,0.84-0.244,1.12-3.491.19-7,.06-10.494,0.06C485.7,1440.44,485.666,1439.84,485.647,1439.54Zm-12.06,2.64q4.992-.12,9.983-0.02a0.712,0.712,0,0,1,.668,1.14c-1.769.42-3.615,0.11-5.416,0.2a29.036,29.036,0,0,1-5.111-.18C473.682,1443.04,473.62,1442.46,473.587,1442.18Zm12.191,0.09a29.389,29.389,0,0,1,4.693-.14,46.369,46.369,0,0,1,5.776.13c0,0.26.015,0.8,0.018,1.06a28.687,28.687,0,0,1-5.078.18,34.312,34.312,0,0,1-5.463-.17C485.738,1443.07,485.764,1442.53,485.778,1442.27Z" transform="translate(-465 -1412)"/>
</svg>
