<svg xmlns="http://www.w3.org/2000/svg" width="70" height="70.03" viewBox="0 0 70 70.03">
  <defs>
    <style>
      .cls-1 {
        fill: #fff;
        fill-rule: evenodd;
      }
    </style>
  </defs>
  <path id="Icon_" data-name="Icon " class="cls-1" d="M664.647,1652.16a46.046,46.046,0,0,1,25.582,1.42,36.692,36.692,0,0,1,19.765,16.64,38.763,38.763,0,0,1-28.287,18.55c-0.006.92-.006,1.85-0.012,2.78,0.752,0.01,1.509.02,2.26,0.02v2.25c-0.751.01-1.5,0.02-2.254,0.02-0.036,6.83.084,13.66-.048,20.49a6.716,6.716,0,0,1-13.431.01c-0.12-6.78-.006-13.57-0.042-20.34-0.757-.01-1.508-0.02-2.259-0.02,0.006-.76.012-1.51,0.024-2.26,0.769-.01,1.544-0.01,2.319-0.02-0.024-.89-0.084-1.79-0.174-2.67a31.987,31.987,0,0,0-3.75-.93,36.967,36.967,0,0,1-24.332-17.95A38.235,38.235,0,0,1,664.647,1652.16Zm-6.376,18.17a16.918,16.918,0,0,0,13.659,16.25c6.478,1.39,13.329-1.67,17.151-6.99,0.589,0.46,1.178.92,1.767,1.39a62.751,62.751,0,0,1-4.441,4.67,37.134,37.134,0,0,0,21.129-15.48,36.027,36.027,0,0,0-21.075-15.47c2.65,2.34,5.126,5.04,6.346,8.42a19.311,19.311,0,0,1-.391,15.01l-2.031-.9a18.224,18.224,0,0,0,.931-11.35,16.88,16.88,0,0,0-16.91-12.68C665.584,1653.29,657.862,1661.48,658.271,1670.33Zm-15.721-.15a36.2,36.2,0,0,0,21.057,15.42c-4.7-3.84-7.9-9.73-7.626-15.92,0.018-5.87,3.143-11.32,7.6-14.98A35.98,35.98,0,0,0,642.55,1670.18Zm27.872,18.96c0.018,0.82.036,1.63,0.054,2.45q4.47-.045,8.936-0.01c0.012-.82.03-1.63,0.042-2.44A60.512,60.512,0,0,1,670.422,1689.14Zm0.168,4.69c0.066,6.84-.138,13.68.09,20.51a4.432,4.432,0,0,0,5.853,3.95c2.11-.71,3.1-3.01,3.047-5.11,0.06-6.45-.012-12.89.018-19.34Q675.091,1693.825,670.59,1693.83Zm3.269-38.38,2.266-.03c0.006,0.78.018,1.54,0.024,2.31h-2.29v-2.28Zm-7.181,2.59c0.661-.41,1.322-0.82,1.989-1.22,0.379,0.66.763,1.32,1.142,2-0.643.38-1.28,0.77-1.923,1.15C667.483,1659.33,667.08,1658.68,666.678,1658.04Zm13.467,0.79c0.409-.67.811-1.33,1.226-2,0.631,0.4,1.262.8,1.9,1.19-0.379.67-.757,1.33-1.13,1.99C681.473,1659.62,680.806,1659.22,680.145,1658.83Zm-17.253,2.97c0.655,0.38,1.316.75,1.971,1.12-0.361.67-.715,1.33-1.076,2-0.673-.37-1.352-0.74-2.025-1.11Q662.322,1662.805,662.892,1661.8Zm22.193,1.17c0.655-.39,1.3-0.79,1.959-1.17q0.576,0.96,1.16,1.92-0.974.615-1.935,1.23C685.872,1664.29,685.481,1663.62,685.085,1662.97Zm-12.921-.26a7.833,7.833,0,1,1-4.417,9.98A7.806,7.806,0,0,1,672.164,1662.71Zm1.869,1.82a5.79,5.79,0,0,0-4.05,2.6c-2,3.07.06,7.92,3.708,8.47a5.789,5.789,0,0,0,6.688-5.34A5.515,5.515,0,0,0,674.033,1664.53Zm-13.671,4.45,2.289-.04c0.012,0.76.03,1.53,0.049,2.29-0.74.03-1.479,0.06-2.218,0.08C660.44,1670.53,660.4,1669.75,660.362,1668.98Zm26.964-.02c0.565,0,1.707.01,2.278,0.01,0,0.56,0,1.71.006,2.29h-2.29C687.32,1670.68,687.32,1669.53,687.326,1668.96Zm-25.5,7.64c0.643-.4,1.286-0.8,1.935-1.2l1.172,1.98c-0.649.4-1.3,0.79-1.947,1.18C662.6,1677.91,662.213,1677.25,661.828,1676.6Zm23.251,0.72c0.378-.67.763-1.33,1.147-2,0.649,0.39,1.3.77,1.948,1.15-0.373.67-.746,1.34-1.118,2.02C686.4,1678.1,685.734,1677.7,685.079,1677.32Zm-17.241,2.95c0.643,0.37,1.286.75,1.929,1.13-0.337.66-.673,1.33-1,1.99-0.7-.36-1.394-0.73-2.091-1.09C667.056,1681.63,667.447,1680.94,667.838,1680.27Zm12.343,1.34,1.983-1.26c0.391,0.67.781,1.34,1.172,2-0.637.38-1.28,0.76-1.917,1.15C681,1682.87,680.6,1682.24,680.181,1681.61Zm-6.316.99c0.751,0,1.508,0,2.266-.01,0.006,0.77.012,1.53,0.018,2.31-0.77-.01-1.533-0.01-2.3-0.01C673.859,1684.13,673.859,1683.36,673.865,1682.6Zm-1.124,13.59c0.824-.03,1.647-0.06,2.47-0.08-0.09.74-.2,1.48-0.354,2.21-0.679.08-1.365,0.15-2.05,0.21C672.783,1697.75,672.759,1696.97,672.741,1696.19Zm0.036,4.41c0.757-.01,1.521-0.01,2.278-0.01,0.018,4.49-.018,8.97.03,13.46l-2.3.09C672.771,1709.63,672.783,1705.11,672.777,1700.6Z" transform="translate(-640 -1650.97)"/>
</svg>
