<svg xmlns="http://www.w3.org/2000/svg" width="80" height="80" viewBox="0 0 80 80">
  <defs>
    <style>
      .cls-1 {
        fill: #fff;
        fill-rule: evenodd;
      }
    </style>
  </defs>
  <path id="Icon_" data-name="Icon " class="cls-1" d="M958.932,1501.45c0.826-.73,2.155-2.19,3.244-1a45,45,0,0,0,19.357,11.88c6.29,2.06,12.974,1.86,19.477,1.15-0.16,19.81-6.481,40.4-20.886,54.52a52.665,52.665,0,0,1-16.02,11.02c-1.4.51-2.914,1.45-4.4,0.7-11.63-4.36-20.994-13.4-27.481-23.83-7.626-12.66-11.023-27.58-11.235-42.28,5.34,0.27,10.731.7,16.027-.41A43.333,43.333,0,0,0,958.932,1501.45ZM923.7,1516.28c0.665,18.08,6.582,36.74,19.687,49.69,5.113,4.84,10.9,9.46,17.714,11.51,11.176-4.39,20.388-12.98,26.611-23.15,6.794-11.48,10-24.79,10.651-38.04a55.769,55.769,0,0,1-13.229-.49c-9.153-1.46-17.524-6.28-24.157-12.64C951.394,1512.98,937.266,1517.66,923.7,1516.28Zm11.191,4.01c9.694-.97,18.62-5.43,26.246-11.32a49.077,49.077,0,0,0,30.651,11.82c1.074-.18,2.287.55,1.863,1.8-1.746,13.55-6.238,27.32-15.515,37.62-0.607,1.08-2.893.41-2.155-.88,1.439-2.58,3.506-4.75,5.04-7.28,5.683-8.5,8.364-18.58,9.9-28.58a55.192,55.192,0,0,1-29.935-11.36,51.156,51.156,0,0,1-29.927,11.33c1.687,12.32,5.931,24.64,14.156,34.17a45.568,45.568,0,0,0,15.9,12.56,48.339,48.339,0,0,0,12.593-8.63c0.489,0.63,2,1.49.877,2.34a39.546,39.546,0,0,1-13.419,8.92c-9.519-3.65-17.086-11.18-22.5-19.67a69.582,69.582,0,0,1-10.22-31.76C930.393,1520.32,932.767,1520.69,934.892,1520.29Zm22.908,3.57c5.566-1.15,11.315,1.3,15.172,5.28a16.787,16.787,0,0,1,3.492,15.51c-1.373,4.54-4.485,8.87-9.036,10.59-4.266,1.69-9.284,2.34-13.521.2-6.575-2.85-11.038-10.18-9.884-17.37A16.234,16.234,0,0,1,957.8,1523.86Zm-3.155,14.84c1.709,0.02,3.418.02,5.135,0.03-0.015-4.12.073-8.24-.066-12.35C955.733,1529.12,955.178,1534.28,954.645,1538.7Zm7.743-12.36c-0.132,4.18-.066,8.37-0.044,12.55h5.069C966.99,1534.4,966.288,1529.23,962.388,1526.34Zm-15.435,12.4c1.694-.02,3.4-0.03,5.12-0.06a33.913,33.913,0,0,1,2.842-11.21A14.041,14.041,0,0,0,946.953,1538.74ZM967,1527.56a28.158,28.158,0,0,1,2.973,11.33c1.7-.01,3.4-0.01,5.121-0.03A14.345,14.345,0,0,0,967,1527.56Zm-12.3,13.75c0.409,4.45,1.191,9.49,5,12.37,0.109-4.14.182-8.28-.066-12.41C957.99,1541.28,956.346,1541.3,954.7,1541.31Zm-7.729.03a14.409,14.409,0,0,0,8.08,11.42,29.334,29.334,0,0,1-3.1-11.49C950.284,1541.29,948.625,1541.31,946.974,1541.34Zm15.37-.02c-0.015,4.16-.11,8.33.073,12.49,4-2.77,4.507-8.08,5-12.51C965.711,1541.3,964.024,1541.3,962.344,1541.32Zm7.7,0.02a31.423,31.423,0,0,1-2.929,11.44,15.365,15.365,0,0,0,8.013-11.42C973.425,1541.33,971.73,1541.32,970.043,1541.34Z" transform="translate(-921 -1500)"/>
</svg>
