<svg xmlns="http://www.w3.org/2000/svg" width="60.03" height="60" viewBox="0 0 60.03 60">
  <defs>
    <style>
      .cls-1 {
        fill: #fff;
        fill-rule: evenodd;
      }
    </style>
  </defs>
  <path id="Icon_" data-name="Icon " class="cls-1" d="M1413.02,1441.87a6.938,6.938,0,0,1,12.44-.04c2.16,0.04,4.32,0,6.47.09-0.03.44-.1,1.32-0.14,1.76,2.01,0.24,4.36-.35,6.02,1.1a4.9,4.9,0,0,1,1.82,4.05c0.03,4.77.01,9.54,0,14.3a22.672,22.672,0,0,1,6.89,1.15,7.121,7.121,0,0,1,8.04-2.63,6.72,6.72,0,0,1,4.11,8.4,7.853,7.853,0,0,1-2.66,3.65,17.412,17.412,0,0,1,0,11.66c1.5,1.42,2.94,3.16,3,5.33a6.8,6.8,0,0,1-5.57,7.18c-2.68.56-5.29-.92-6.94-2.94a17.345,17.345,0,0,1-11.7.02c-1.25,1.37-2.66,2.9-4.65,2.98a7.01,7.01,0,0,1-7.88-5.76c-6.21-.04-12.4.01-18.61-0.02a4.755,4.755,0,0,1-4.66-5.04q0-18.87,0-37.75a5.156,5.156,0,0,1,2.1-4.62c1.64-1.15,3.74-.92,5.64-0.98,0.03-.64.06-1.3,0.1-1.94C1408.9,1441.86,1410.95,1441.87,1413.02,1441.87Zm1.43,1.92c-1.91.05-3.81,0.04-5.72-.02-0.09,1.94-.1,3.88-0.06,5.83,5.85,0.07,11.71-.08,17.56.07-0.03.47-.08,1.43-0.11,1.9h-19.34v-1.96c-0.68.04-1.35,0.07-2.01,0.1,0.09,12.15.02,24.3,0.04,36.45q9.27,0.03,18.55.01a2.753,2.753,0,0,0,1.96-.85,16.573,16.573,0,0,1-.08-11.73,8.928,8.928,0,0,1-2.99-4.66c-5.15-.06-10.31-0.03-15.45-0.01-0.05-5.14-.01-10.28-0.02-15.42h25.08c0.03,2.8-.02,5.6.04,8.39,0.63,0.36,1.27.71,1.9,1.07,0.02-4.42-.01-8.84.02-13.26-0.64-.04-1.29-0.07-1.92-0.1-0.02.65-.05,1.31-0.06,1.97h-3.85c0.03-.67.07-1.34,0.11-2h1.91c-0.03-1.92-.03-3.84-0.03-5.76-1.96.02-3.92,0.04-5.88-.07a5.213,5.213,0,0,0-2.67-3.3C1418.68,1439,1415.33,1441.02,1414.45,1443.79Zm-11.68,2.15a3.26,3.26,0,0,0-1.78,3.44q0.015,18.6,0,37.19a3.069,3.069,0,0,0,3.17,3.49c6.03,0.02,12.06-.02,18.09.01,0.18-.6.37-1.21,0.57-1.81-6.64.05-13.28-.05-19.91,0.05q-0.21-20.34-.01-40.68c1.28,0.03,2.56.06,3.85,0.08,0.01-.66.02-1.31,0.03-1.96A16.768,16.768,0,0,0,1402.77,1445.94Zm29.23-.2c-0.01.45-.03,1.35-0.03,1.8,1.25,0,2.51-.01,3.77-0.04,0.15,5.47,0,10.94.08,16.41,0.65-.17,1.32-0.35,1.97-0.52-0.07-4.51-.02-9.02-0.02-13.53-0.02-1.11.03-2.39-.87-3.2C1435.64,1445.3,1433.63,1445.86,1432,1445.74Zm-23.36,9.62c0.03,3.86,0,7.72.02,11.58,4.52-.01,9.03.01,13.55-0.02a7.274,7.274,0,0,1,7.71-5.81c-0.05-1.93-.06-3.86-0.05-5.79C1422.8,1455.35,1415.72,1455.27,1408.64,1455.36Zm18.55,8.21c-3,1.45-3.74,6.2-.88,8.17,2.81,2.67,8.03.04,7.76-3.75C1434.17,1464.62,1430.24,1461.99,1427.19,1463.57Zm23.31-.04a5.144,5.144,0,0,0-2.36,6.58,5.822,5.822,0,0,0,2.76,2.47c3.11,1.17,6.97-1.74,6.35-5.1A4.885,4.885,0,0,0,1450.5,1463.53Zm-14.84,2.48c0.35,2.26.17,4.76-1.56,6.44a6.882,6.882,0,0,1-7.1,2.11,15.822,15.822,0,0,0,.03,9.95c1.94-.33,4.12-0.4,5.74.92a6.8,6.8,0,0,1,2.79,7.6,15.79,15.79,0,0,0,10.03.14c-0.34-2.31-.25-4.95,1.63-6.62a6.591,6.591,0,0,1,6.89-2,14.367,14.367,0,0,0,.05-10.01,6.686,6.686,0,0,1-6.91-1.97c-1.81-1.69-2.06-4.27-1.66-6.59C1442.36,1464.76,1438.92,1465.15,1435.66,1466.01Zm-7.43,20.34a4.735,4.735,0,0,0-.19,9.31c3.13,0.95,6.46-2.33,5.74-5.47A4.812,4.812,0,0,0,1428.23,1486.35Zm23.33-.02a4.736,4.736,0,0,0-.51,9.28c3.2,1.14,6.73-2.25,5.94-5.49A4.825,4.825,0,0,0,1451.56,1486.33Zm-44.78-15.47c4.83,0,9.67-.01,14.51.01v1.96c-4.84.01-9.68,0.02-14.51,0v-1.97Zm-0.02,3.83h14.54c-0.01.67-.02,1.33-0.03,2q-7.23-.03-14.47,0C1406.78,1476.02,1406.77,1475.36,1406.76,1474.69Zm0.05,3.79c4.81,0.04,9.63.03,14.45,0,0.01,0.67.03,1.34,0.04,2q-7.26.015-14.54,0C1406.77,1479.82,1406.79,1479.15,1406.81,1478.48Zm-0.04,3.97c3.59,0.03,7.18-.09,10.78.06-0.05.64-.08,1.27-0.11,1.91-3.55.03-7.1,0-10.65,0.02C1406.78,1483.77,1406.77,1483.11,1406.77,1482.45Zm12.5,0.03c0.67-.02,1.35-0.04,2.03-0.05-0.01.67-.02,1.34-0.02,2.02l-1.96-.03C1419.3,1483.77,1419.28,1483.12,1419.27,1482.48Z" transform="translate(-1399 -1438)"/>
</svg>
