<svg xmlns="http://www.w3.org/2000/svg" width="49.97" height="50" viewBox="0 0 49.97 50">
  <defs>
    <style>
      .cls-1 {
        fill: #fff;
        fill-rule: evenodd;
      }
    </style>
  </defs>
  <path id="Icon_" data-name="Icon " class="cls-1" d="M1325.38,1681.51a4.041,4.041,0,0,1,5.91-.43c1.1,0.92,1.21,2.41,1.41,3.74,1.52-.02,3.04-0.02,4.57.02,0.11,0.53.23,1.06,0.35,1.59,2,0.03,4.02-.12,6.02.09a4.024,4.024,0,0,1,3.39,4.18c0.04,8.01-.01,16.03.02,24.05,2.15,0.05,4.31-.15,6.45.1,1.29,0.37,1.55,1.79,1.58,2.96a4.717,4.717,0,0,1,4.43,2.4,3.948,3.948,0,0,1-2.98,5.68c-3.11.23-6.23,0.03-9.35,0.09-0.31,2-1.76,4.08-3.98,4q-14.67.015-29.34,0a3.925,3.925,0,0,1-3.85-4.18q-0.03-17.52-.01-35.06a3.965,3.965,0,0,1,3.03-4.15,48.209,48.209,0,0,1,6.36-.16c0.16-.55.31-1.09,0.47-1.64,1.5,0.01,3,.02,4.51.02C1324.56,1683.68,1324.56,1682.4,1325.38,1681.51Zm2.35,0.24c-1.28.44-1.63,1.84-1.69,3.05a33.974,33.974,0,0,0,4.94-.13C1331.24,1682.93,1329.54,1680.92,1327.73,1681.75Zm-6.62,4.68c-0.4,1.62-.8,3.23-1.2,4.85,5.74,0.01,11.48,0,17.22,0-0.4-1.62-.8-3.23-1.2-4.85h-14.82Zm-7.48,1.57a2.486,2.486,0,0,0-1.98,2.73c-0.01,11.69-.03,23.38,0,35.07-0.13,1.13.76,1.9,1.49,2.61,0.11-12.91.01-25.83,0.05-38.75,1.79,0,3.59,0,5.38.02l0.48-1.74C1317.25,1687.98,1315.43,1687.84,1313.63,1688Zm24.39,0.06c0.14,0.53.27,1.07,0.42,1.6,1.77,0.01,3.55.01,5.33,0.01-0.01,7.25.02,14.49-.01,21.74-0.38-.01-1.15-0.01-1.54-0.02q-0.015-10.05,0-20.1c-1.13,0-2.26,0-3.38-.01l0.36,1.53q-10.68,0-21.36,0l0.36-1.53c-1.13.01-2.25,0.01-3.38,0.01v37.07h27.41c-0.01-.79-0.01-1.58-0.01-2.38-4.84-.03-9.69.09-14.53-0.07-0.02.24-.06,0.72-0.08,0.95-3.21-.03-6.4,0-9.6-0.02v-9.72h9.63c0.01,0.21.02,0.63,0.03,0.83,2.67-.13,5.34-0.08,8.01-0.05,0.08-1.23.44-2.66,1.79-3.04a32.7,32.7,0,0,1,4.75-.12c0-.42.01-1.26,0.01-1.68h1.62c0,0.56.01,1.13,0.02,1.7l1.55-.06c-0.05-7.99.03-15.98-.03-23.96a2.5,2.5,0,0,0-2.19-2.66C1341.48,1687.97,1339.74,1688.07,1338.02,1688.06Zm-0.31,28.4c-0.79.57-.08,1.43,0.69,1.32,4.32,0.06,8.63-.03,12.95.03a3.722,3.722,0,0,0,2.06-.33c0.31-1.25-1.28-1.11-2.05-1.13C1346.81,1716.45,1342.25,1716.22,1337.71,1716.46Zm-18.06,2.17v6.48c2.17,0,4.35.05,6.53-.04-1.13-.94-2.63-1.04-3.95-1.57-1.41-.59-1.36-3.02.2-3.37a10.209,10.209,0,0,0,4-1.49C1324.17,1718.62,1321.91,1718.65,1319.65,1718.63Zm6.61,4.08a2.784,2.784,0,0,0,3.13,1.66c6.94-.02,13.89-0.01,20.84-0.01v-4.75c-7.1.09-14.19-.16-21.28-0.1A2.52,2.52,0,0,0,1326.26,1722.71Zm25.61-3.08v4.72a44.473,44.473,0,0,0,4.62-.06,2.443,2.443,0,0,0,.98-4.18C1355.86,1718.94,1353.71,1719.69,1351.87,1719.63Zm-29.17,2.29c0.45,0.14,1.33.43,1.78,0.57,0.01-.31.04-0.91,0.05-1.22C1323.91,1721.47,1323.3,1721.69,1322.7,1721.92Zm21.15,4.05q0.015,1.215.06,2.43a7.43,7.43,0,0,0,1.68-2.36C1345.16,1726.02,1344.29,1725.99,1343.85,1725.97Zm-21.01-37.98c0.41-.01,1.22-0.01,1.63-0.01v1.65c-0.41,0-1.22-.01-1.63-0.01v-1.63Zm9.73-.01h1.64c0,0.41-.01,1.23-0.01,1.64-0.4,0-1.22.01-1.63,0.01v-1.65Zm-14.56,6.45c3.21-.02,6.42,0,9.63-0.02l0.03,1.89c0.4-.3.79-0.58,1.19-0.88,0.32,0.43.64,0.86,0.97,1.29-0.72.53-1.43,1.06-2.15,1.59-0.03,1.95-.02,3.9-0.02,5.85h-9.65v-9.72Zm1.64,1.73v6.48q3.225,0,6.45-.01c0.01-1.05.01-2.09,0.03-3.14-1.11.85-2.22,1.69-3.37,2.49-0.7-.7-1.4-1.39-2.1-2.09l1.11-1.14,1.17,1.14c1.03-.77,2.06-1.54,3.08-2.3,0.03-.36.09-1.07,0.13-1.43C1323.98,1696.15,1321.82,1696.15,1319.65,1696.16Zm12.93-.92q3.225,0,6.46.01c0,0.41-.01,1.23-0.01,1.63-2.16.01-4.32,0.02-6.47-.01C1332.56,1696.33,1332.57,1695.78,1332.58,1695.24Zm-0.02,3.3q3.24-.015,6.47,0v1.63c-2.15,0-4.3.01-6.46,0C1332.57,1699.63,1332.56,1699.08,1332.56,1698.54Zm0,3.19h6.48c-0.01.41-.01,1.23-0.01,1.64q-3.225,0-6.43.01C1332.59,1702.83,1332.57,1702.28,1332.56,1701.73Zm-14.55,4.04h9.65v1.86c0.4-.3.8-0.59,1.2-0.88,0.31,0.43.63,0.86,0.95,1.29-0.72.55-1.43,1.09-2.15,1.63v5.83h-9.65v-9.73Zm1.64,1.62v6.48q3.225,0.015,6.46,0c0-1.02,0-2.04.01-3.07-1.08.84-2.16,1.68-3.25,2.51-0.74-.68-1.48-1.35-2.21-2.03,0.38-.42.77-0.84,1.16-1.25,0.37,0.36.75,0.73,1.12,1.1,1.04-.76,2.07-1.52,3.11-2.29,0.02-.36.06-1.08,0.09-1.44Q1322.885,1707.385,1319.65,1707.39Zm12.92-.82h6.46v1.64h-6.46v-1.64Zm0,3.29c2.15-.01,4.31,0,6.46-0.01v1.65q-3.225,0-6.47-.01C1332.56,1710.95,1332.57,1710.4,1332.57,1709.86Zm0,3.2h1.63c0,0.41.01,1.23,0.01,1.64h-1.64v-1.64Z" transform="translate(-1310 -1680)"/>
</svg>
