<svg xmlns="http://www.w3.org/2000/svg" width="40.032" height="40" viewBox="0 0 40.032 40">
  <defs>
    <style>
      .cls-1 {
        fill: #fff;
        fill-rule: evenodd;
      }
    </style>
  </defs>
  <path id="Icon_" data-name="Icon " class="cls-1" d="M945.178,2628.08a18.541,18.541,0,0,1,14.172-1.21,0.375,0.375,0,0,1,.067.7c-0.836.34-1.705,0.58-2.513,0.99a3.533,3.533,0,0,1-1.895.58,15.733,15.733,0,0,0-8.581,1.8,22.01,22.01,0,0,0-2.09,1.31,8.706,8.706,0,0,1,1.452,3.69c0.085,0.69-.6,1.04-0.971,1.5-0.777.96-2.217,0.86-2.986,1.81-0.209.72,0.118,1.59-.3,2.27a31.986,31.986,0,0,0-4.917,10.17c-0.07.27-.191,0.67-0.547,0.58a1.712,1.712,0,0,1-.492-0.97A19.559,19.559,0,0,1,945.178,2628.08Zm1.683,0.06a18.6,18.6,0,0,0-9.8,9.58,18.936,18.936,0,0,0-.933,12.87,34.592,34.592,0,0,1,4.6-9.24c0.613-.75-0.018-1.87.561-2.64,0.676-.83,1.784-0.99,2.656-1.5a9.517,9.517,0,0,0,1.072-1.09c0.078-1.42-.884-2.58-1.5-3.77-0.2-.25.1-0.48,0.268-0.61a16.279,16.279,0,0,1,10.734-3.39c1.231,0.23,2.229-.7,3.355-1.04a5.47,5.47,0,0,0-.558-0.19A18,18,0,0,0,946.861,2628.14Zm17.388-.41a10.64,10.64,0,0,1,7.367,1.81,8.144,8.144,0,0,1,2.945,5.37,16.479,16.479,0,0,1-1.546,8.71c-0.134.53-.754,0.4-1.147,0.33a0.778,0.778,0,0,1-.025-0.86,16.468,16.468,0,0,0,.946-6.62,6.232,6.232,0,0,0-2.314-4.53,5.889,5.889,0,0,0-2.878-.87,13.02,13.02,0,0,0-5.213,1,35.847,35.847,0,0,0-9.4,5.71,44.309,44.309,0,0,0-10.306,11.91,17.558,17.558,0,0,0-2.531,7.9,6.176,6.176,0,0,0,2.083,5.13,8.569,8.569,0,0,0,6.233,1.31,17.171,17.171,0,0,0,4.277-1.13,0.744,0.744,0,0,1,.691,1.05,13.64,13.64,0,0,1-1.934.87c-2.926,1.12-6.24,1.69-9.247.57a7.2,7.2,0,0,1-4.224-4.07,14.107,14.107,0,0,1-.307-9.34,34.172,34.172,0,0,1,8.458-14.32,38.1,38.1,0,0,1,8.268-6.55A23.937,23.937,0,0,1,964.249,2627.73Zm-6.84,2.69a36.456,36.456,0,0,0-8.592,5.72,35.93,35.93,0,0,0-9.522,13.43c-1.267,3.25-2.04,6.95-.983,10.39a7.217,7.217,0,0,0,3.32,4.35c0.193-.22.4-0.43,0.585-0.65a5.976,5.976,0,0,1-2.32-2.96,10.125,10.125,0,0,1-.134-5.86,27.351,27.351,0,0,1,4.986-9.63,48.767,48.767,0,0,1,12.555-11.46,24.472,24.472,0,0,1,7.848-3.28,9.227,9.227,0,0,1,4.245.13,5.466,5.466,0,0,1,3.485,3.25,11.928,11.928,0,0,1,.337,7.02,11.7,11.7,0,0,0,.046-7.94,7.074,7.074,0,0,0-5-4.14C964.6,2627.89,960.79,2628.9,957.409,2630.42Zm-15.453,34.04a10.955,10.955,0,0,0,7.653.16,10.162,10.162,0,0,1-7.126-.81C942.309,2664.03,942.128,2664.24,941.956,2664.46Zm19.411-30.74a12.912,12.912,0,0,1,6.363-1.45,18.9,18.9,0,0,1,3.719,5.81,3,3,0,0,1-.082,2.29c-0.293.43-.7-0.08-0.947-0.3-0.018,1.18.055,2.36-.02,3.54a0.357,0.357,0,0,1-.7-0.09,16.968,16.968,0,0,0-1.6-5.35c-0.666.38-1.615,0.76-1.665,1.69a6.571,6.571,0,0,0,.718,3.2,6.19,6.19,0,0,0,1.4,1.44,9.4,9.4,0,0,1,1.217,1.69c0.087-.33-0.106-0.87.285-1.02,0.821-.05,1.649-0.03,2.474-0.02a0.407,0.407,0,0,1,.334.5,19.754,19.754,0,0,1-2.785,9.89,19.022,19.022,0,0,1-15.071,9.33,0.354,0.354,0,0,1-.33-0.45c-0.028-.46.018-0.93-0.023-1.39a6.609,6.609,0,0,1-.651-0.86,0.418,0.418,0,0,1,.494-0.4,15.363,15.363,0,0,0,8.736-3.18c-1.509.27-2.909,1.03-4.446,1.16a1.528,1.528,0,0,1-1.5-.63,1.15,1.15,0,0,1,.222-1.31c0.925-1.08,2.3-1.58,3.335-2.51a22.992,22.992,0,0,0,1.252-4.15c0.129-.97.771-1.78,0.779-2.77,0.042-.64-0.4-1.21-0.249-1.86,0.277-1.31,1.378-2.18,1.944-3.35a2.765,2.765,0,0,0,.075-1.61,11.039,11.039,0,0,0-.975-3.23,3.028,3.028,0,0,0-1.042-.96c-0.833-.66-1.622-1.38-2.46-2.03a0.7,0.7,0,0,1-.417-0.75A8.24,8.24,0,0,1,961.367,2633.72Zm-0.53,1.1a26.214,26.214,0,0,0,3.014,2.51,5.473,5.473,0,0,1,1.051,2.08,9.254,9.254,0,0,1,.528,3.49c-0.312,1.36-1.5,2.23-2,3.49-0.226.67,0.248,1.32,0.183,1.99a6.868,6.868,0,0,1-.66,2.39,32.923,32.923,0,0,1-1.241,4.43,2.064,2.064,0,0,1-.6.9c-1.09.85-2.456,1.36-3.281,2.54a0.98,0.98,0,0,0,.776.34,11.7,11.7,0,0,0,2.953-.74c1.007-.34,2.054-0.53,3.045-0.91a0.666,0.666,0,0,1,.665-0.05,0.432,0.432,0,0,1-.089.66,16.289,16.289,0,0,1-9.826,4.54,8.411,8.411,0,0,1,.04,1.57,17.981,17.981,0,0,0,11.943-6.05,19.037,19.037,0,0,0,4.788-12.09c-0.529,0-1.055,0-1.582.01a15.251,15.251,0,0,1-.269,2.16,0.346,0.346,0,0,1-.675-0.06,6.318,6.318,0,0,0-2.192-3.52,4.469,4.469,0,0,1-1.5-2.67,4.7,4.7,0,0,1,.013-2.88,4.375,4.375,0,0,1,2.343-1.65c0.062,0.02.185,0.07,0.247,0.09a18.924,18.924,0,0,1,1.165,2.56,3.106,3.106,0,0,1,.106-1.05c0.416-.34.768,0.27,1.1,0.48a1.917,1.917,0,0,0-.075-0.86,18.634,18.634,0,0,0-3.05-5.13,0.771,0.771,0,0,0-.628-0.4A15.114,15.114,0,0,0,960.837,2634.82Zm-15.794,13.25a2.434,2.434,0,0,1,.27.02c1.362,0.82,2.823,1.87,4.479,1.64a0.9,0.9,0,0,1,.65,1.04,5.073,5.073,0,0,1-2.37,4.02,1.1,1.1,0,0,0-.818.91c0.244,0.91,1.111,1.47,1.357,2.37a0.826,0.826,0,0,1-.526.99,5.84,5.84,0,0,1-2.907.14,18,18,0,0,0,3.719,1.87c0.28,0.07.169,0.4,0.211,0.62a1.807,1.807,0,0,1,.439.67,0.718,0.718,0,0,1-.737.45,9.829,9.829,0,0,1-3.706-.06,15.783,15.783,0,0,1-3.171-2.12,6.8,6.8,0,0,1-.588-4.27,17.62,17.62,0,0,1,2.4-6.25A14.641,14.641,0,0,1,945.043,2648.07Zm-1.577,4.13a11.675,11.675,0,0,0-1.36,6.93,2.718,2.718,0,0,0,.728-0.67c-0.261-.27-0.291-0.89.211-0.83a6.512,6.512,0,0,0,4.891.69c-0.41-.91-1.3-1.57-1.423-2.62a1.555,1.555,0,0,1,1.016-1.47,4.359,4.359,0,0,0,2.181-3.69,7.485,7.485,0,0,1-4.406-1.57C944.647,2650.02,944.021,2651.09,943.466,2652.2Zm-0.6,6.24c-0.235.27-.482,0.53-0.724,0.8a2.027,2.027,0,0,0,.672,1.16,17.578,17.578,0,0,0,2.543,1.62,10.2,10.2,0,0,0,2.972.1,1.938,1.938,0,0,0-.958-0.85A18.776,18.776,0,0,1,942.865,2658.44Z" transform="translate(-934.656 -2626)"/>
</svg>
