<svg xmlns="http://www.w3.org/2000/svg" width="36" height="40" viewBox="0 0 36 40">
  <defs>
    <style>
      .cls-1 {
        fill: #fff;
        fill-rule: evenodd;
      }
    </style>
  </defs>
  <path id="Icon_" data-name="Icon " class="cls-1" d="M955.063,2863.44a0.4,0.4,0,0,1-.284-0.68l3.636-3.65a0.393,0.393,0,0,1,.565,0,0.406,0.406,0,0,1,0,.57l-3.637,3.64a0.39,0.39,0,0,1-.28.12h0Zm0-2.26a0.4,0.4,0,0,1-.284-0.68l2.074-2.09a0.411,0.411,0,0,1,.565,0,0.406,0.406,0,0,1,0,.57l-2.075,2.08a0.39,0.39,0,0,1-.28.12h0Zm2.806,3.97a0.385,0.385,0,0,1-.283-0.11,0.406,0.406,0,0,1,0-.57l3.907-3.91a0.4,0.4,0,0,1,.565.56l-3.908,3.92a0.383,0.383,0,0,1-.281.11h0Zm-1.718-.54a0.4,0.4,0,0,1-.284-0.68l4.176-4.18a0.4,0.4,0,1,1,.565.56l-4.176,4.18a0.384,0.384,0,0,1-.281.12h0Zm4.129,2.63a0.4,0.4,0,0,1-.281-0.68l3.858-3.87a0.4,0.4,0,0,1,.565.56l-3.858,3.87a0.394,0.394,0,0,1-.284.12h0Zm-1.138-1.12a0.389,0.389,0,0,1-.281-0.12,0.4,0.4,0,0,1,0-.56l3.9-3.91a0.4,0.4,0,0,1,.565.56l-3.9,3.91a0.4,0.4,0,0,1-.284.12h0Zm2.542,4.26a0.385,0.385,0,0,1-.284-0.11,0.406,0.406,0,0,1,0-.57l4.257-4.26a0.4,0.4,0,0,1,.564.56l-4.257,4.27a0.379,0.379,0,0,1-.28.11h0Zm-0.524-1.73a0.433,0.433,0,0,1-.281-0.12,0.406,0.406,0,0,1,0-.57l3.967-3.98a0.4,0.4,0,0,1,.565.57l-3.967,3.98a0.443,0.443,0,0,1-.284.12h0Zm0.664,3.86a0.4,0.4,0,0,1-.281-0.12,0.407,0.407,0,0,1,0-.57l4.843-4.85a0.4,0.4,0,0,1,.565.56l-4.843,4.86a0.4,0.4,0,0,1-.284.12h0Zm-7.578,4.66a0.4,0.4,0,0,1-.4-0.4v-10.4a0.4,0.4,0,1,1,.8,0v10.4a0.4,0.4,0,0,1-.4.4h0Zm0.836-5.21h-1.669a2.35,2.35,0,0,1,0-4.7h3.612a0.4,0.4,0,0,1,0,.8h-3.612a1.55,1.55,0,0,0,0,3.1h1.669a0.408,0.408,0,0,1,.4.41,0.391,0.391,0,0,1-.4.39h0Zm0,3.92h-3.646a0.406,0.406,0,0,1-.4-0.4,0.393,0.393,0,0,1,.4-0.4h3.646a1.56,1.56,0,0,0,0-3.12h-1.113a0.391,0.391,0,0,1-.4-0.39,0.408,0.408,0,0,1,.4-0.41h1.113a2.36,2.36,0,0,1,0,4.72h0Zm-18,13.6a0.406,0.406,0,0,1-.317-0.16,0.4,0.4,0,0,1,.074-0.56l14.04-10.69a0.4,0.4,0,0,1,.549.07l2.881,3.48,17.645-13.15a0.389,0.389,0,0,1,.559.08,0.4,0.4,0,0,1-.082.56l-17.95,13.38a0.391,0.391,0,0,1-.546-0.07l-2.881-3.48-13.731,10.46a0.427,0.427,0,0,1-.241.08h0ZM947.2,2867.4a0.466,0.466,0,0,1-.2-0.05l-3.458-2a0.425,0.425,0,0,1-.187-0.25,0.39,0.39,0,0,1,.05-0.31,12.816,12.816,0,0,1,10.023-5.99,0.455,0.455,0,0,1,.3.11,0.4,0.4,0,0,1,.128.29v4a0.4,0.4,0,0,1-.365.4,7.959,7.959,0,0,0-5.953,3.62,0.389,0.389,0,0,1-.334.18h0Zm-2.894-2.53,2.773,1.6a8.738,8.738,0,0,1,5.971-3.63v-3.2a12,12,0,0,0-8.744,5.23h0Zm9.143-1.67h0Zm-8.132,17.35a0.393,0.393,0,0,1-.288-0.12,12.748,12.748,0,0,1-2.4-14.18,0.388,0.388,0,0,1,.562-0.18l3.47,2.01a0.4,0.4,0,0,1,.172.5,7.962,7.962,0,0,0,1.977,8.84,0.407,0.407,0,0,1,.128.32,0.42,0.42,0,0,1-.159.3l-3.222,2.43a0.423,0.423,0,0,1-.239.08h0Zm-2.14-13.57a11.959,11.959,0,0,0,2.186,12.64l2.563-1.94a8.782,8.782,0,0,1-1.958-9.08Zm18.113,7.76a0.429,0.429,0,0,1-.244-0.08,0.405,0.405,0,0,1-.13-0.47,7.183,7.183,0,0,0-5.91-9.78,0.413,0.413,0,0,1-.359-0.4v-5.61a0.388,0.388,0,0,1,.128-0.29,0.408,0.408,0,0,1,.3-0.11,13.592,13.592,0,0,1,12.6,11.77,0.4,0.4,0,0,1-.157.37l-5.987,4.52a0.426,0.426,0,0,1-.24.08h0Zm-5.845-11.09a7.993,7.993,0,0,1,6.771,7.92,7.825,7.825,0,0,1-.187,1.71l4.821-3.63a12.788,12.788,0,0,0-11.4-10.82v4.82ZM943.468,2898h-4.79a0.4,0.4,0,0,1-.4-0.41v-7.07a0.386,0.386,0,0,1,.159-0.31l4.791-3.65a0.4,0.4,0,0,1,.418-0.04,0.4,0.4,0,0,1,.221.36v10.71a0.4,0.4,0,0,1-.4.41h0Zm-4.391-.81h3.992v-9.51l-3.992,3.04v6.47ZM952.25,2898h-4.79a0.4,0.4,0,0,1-.4-0.41v-13.75a0.4,0.4,0,0,1,.159-0.32l3.469-2.65a0.4,0.4,0,0,1,.549.07l1.322,1.6a0.389,0.389,0,0,1,.09.25v14.8a0.4,0.4,0,0,1-.4.41h0Zm-4.391-.81h3.992v-14.25l-0.986-1.2-3.006,2.3v13.15Zm13.173,0.81h-4.79a0.4,0.4,0,0,1-.4-0.41v-14.25a0.421,0.421,0,0,1,.163-0.32l4.79-3.57a0.419,0.419,0,0,1,.418-0.04,0.408,0.408,0,0,1,.218.36v17.82a0.4,0.4,0,0,1-.4.41h0Zm-4.391-.81h3.992v-16.62l-3.992,2.97v13.65Zm13.173,0.81h-4.791a0.4,0.4,0,0,1-.4-0.41v-20.8a0.421,0.421,0,0,1,.163-0.32l4.79-3.57a0.4,0.4,0,0,1,.636.32v24.37a0.4,0.4,0,0,1-.4.41h0Zm-4.391-.81h3.991v-23.17l-3.991,2.97v20.2Zm6.555-25.62h-0.049a0.4,0.4,0,0,1-.347-0.45l0.259-1.98-1.98-.26a0.4,0.4,0,0,1,.106-0.8l2.373,0.31a0.4,0.4,0,0,1,.346.45l-0.312,2.38a0.4,0.4,0,0,1-.4.35h0Z" transform="translate(-936.688 -2858)"/>
</svg>
