<svg xmlns="http://www.w3.org/2000/svg" width="35" height="40" viewBox="0 0 35 40">
  <defs>
    <style>
      .cls-1 {
        fill: #fff;
        fill-rule: evenodd;
      }
    </style>
  </defs>
  <path id="Icon_" data-name="Icon " class="cls-1" d="M958.746,3095.03a0.765,0.765,0,0,1,.749.35,6.672,6.672,0,0,1,2.268,5.08,6.979,6.979,0,0,1-2.591,4.61,0.41,0.41,0,0,1-.543.08A6.077,6.077,0,0,1,958.746,3095.03Zm-1.923,5.26a5.7,5.7,0,0,0,1.605,3.49c0.023-1.4.016-2.79,0.038-4.19a0.689,0.689,0,0,1,.382-0.59,0.772,0.772,0,0,1,.445.46c0.025,1.44-.026,2.89-0.014,4.33a5.441,5.441,0,0,0,1.651-3.84,6.246,6.246,0,0,0-2-3.96A5.848,5.848,0,0,0,956.823,3100.29Zm-6.254,2a5.943,5.943,0,0,1,4.814.88,7.084,7.084,0,0,1,2.406,4.32,0.517,0.517,0,0,1-.211.7c-2,.71-4.454.81-6.161-0.65a7.21,7.21,0,0,1-2.32-4.53C949.243,3102.4,950.081,3102.47,950.569,3102.29Zm-0.585,1.02a5.829,5.829,0,0,0,2.654,4.02,5.313,5.313,0,0,0,3.723.32c-1.227-.76-2.5-1.46-3.7-2.26-0.33-.3.114-0.92,0.493-0.65,1.225,0.69,2.413,1.46,3.631,2.17a5.523,5.523,0,0,0-2.212-3.27A5.765,5.765,0,0,0,949.984,3103.31Zm14.324-1.03a7.238,7.238,0,0,1,4.14.38c0.352,0.16.17,0.61,0.128,0.89a5.842,5.842,0,0,1-8.3,4.67,0.41,0.41,0,0,1-.351-0.44A8.141,8.141,0,0,1,961.5,3104,5,5,0,0,1,964.308,3102.28Zm-1.135,1.37a5.49,5.49,0,0,0-2.2,3.27c1.257-.74,2.481-1.54,3.762-2.24,0.432-.06.55,0.41,0.407,0.74-1.257.72-2.492,1.49-3.738,2.23a5.35,5.35,0,0,0,3.815-.36,5.855,5.855,0,0,0,2.541-3.98A5.683,5.683,0,0,0,963.173,3103.65Zm-4.65,2.77c-0.025-.53.88-0.52,0.822,0.02,0.02,3.49,0,6.98.008,10.46,0.689-.38,1.371-0.78,2.058-1.17a4.338,4.338,0,0,1-.259-2.71,4.078,4.078,0,0,1,2.873-3.01,3.985,3.985,0,0,1,3.7.9,4.163,4.163,0,0,1,1.217,4.09,4,4,0,0,1-7.094,1.47c-0.838.46-1.668,0.94-2.5,1.42,0.007,0.81-.022,1.63.025,2.45a13.285,13.285,0,0,1,7.553,2.53c0.921-.39,1.839-0.78,2.765-1.16a2.271,2.271,0,0,1,2.826,1.02,1.99,1.99,0,0,1-.82,2.45q-6.217,4.17-12.44,8.32a4.712,4.712,0,0,1-3.5.51c-3.483-.85-6.976-1.65-10.461-2.49a2.393,2.393,0,0,1-.406,1.85c-0.615.6-1.525,0.33-2.285,0.39-0.058.38,0.175,1.07-.342,1.19-1.4.04-2.8,0.03-4.194,0.01-0.345.02-.419-0.39-0.392-0.66q0-7.44,0-14.87a0.476,0.476,0,0,1,.414-0.61q2.07-.03,4.144,0c0.478,0.06.343,0.67,0.379,1.01,0.779,0.06,1.745-.23,2.336.45a2.211,2.211,0,0,1,.351,1.6,23.056,23.056,0,0,1,6.368.48,13.481,13.481,0,0,1,6.839-2.02c0-.81.009-1.61-0.013-2.41-0.867-.48-1.722-0.99-2.582-1.48a4.182,4.182,0,0,1-2.725,1.58,3.985,3.985,0,0,1-3.521-1.37,4.184,4.184,0,0,1-.461-4.73,4.009,4.009,0,0,1,4.771-1.84,4.108,4.108,0,0,1,2.719,4.21,9.007,9.007,0,0,1-.32,1.42c0.692,0.44,1.418.81,2.12,1.22C958.535,3113.44,958.485,3109.93,958.523,3106.42Zm-6.619,4.41a3.245,3.245,0,0,0,.772,6.37,3.166,3.166,0,0,0,3.115-2.53,3.232,3.232,0,0,0-1.346-3.4A3.1,3.1,0,0,0,951.9,3110.83Zm12.4,0a3.2,3.2,0,0,0-2.292,2.23,3.269,3.269,0,0,0,1.269,3.59,3.1,3.1,0,0,0,3.564-.01,3.27,3.27,0,0,0,1.217-3.72A3.167,3.167,0,0,0,964.305,3110.83Zm-25.783,8.84q0,7.215,0,14.45c1.079,0,2.157-.02,3.237-0.01,0.008-4.81,0-9.63,0-14.44C940.682,3119.67,939.6,3119.66,938.522,3119.67Zm4.088,1.02c0,4.07-.018,8.14.012,12.21a14.79,14.79,0,0,0,1.489-.02,0.569,0.569,0,0,0,.343-0.61c0-3.66.015-7.31-.008-10.96a0.526,0.526,0,0,0-.349-0.6A14.743,14.743,0,0,0,942.61,3120.69Zm10.135,2.03a12.064,12.064,0,0,0,2.6.36c1.952,0,3.9-.01,5.851.01a2.213,2.213,0,0,1,1.853,1.41c0.981-.42,1.972-0.82,2.949-1.25A13.184,13.184,0,0,0,952.745,3122.72Zm17.105-.15c-2.233.93-4.462,1.88-6.7,2.81a2.3,2.3,0,0,1-.952,1.55,4.5,4.5,0,0,1-2.491.35c-1.514.03-3.024,0-4.538,0a4.022,4.022,0,0,0-2.452.9,0.685,0.685,0,0,1-.624.01,0.66,0.66,0,0,1,.126-0.67,4.448,4.448,0,0,1,2.776-1.09c2.023-.03,4.046.01,6.071-0.01a1.24,1.24,0,1,0-.023-2.48q-2.681-.015-5.359,0a12.057,12.057,0,0,1-4.2-.73c-2-.63-4.125-0.44-6.191-0.48,0.009,2.64,0,5.28,0,7.91q4.979,1.185,9.955,2.36a4.232,4.232,0,0,0,3.611-.26q6.178-4.11,12.339-8.25a1.114,1.114,0,0,0,.537-1.42A1.468,1.468,0,0,0,969.85,3122.57Zm-17.593-10.54c0.017-.31-0.023-0.78.4-0.81,0.47-.07.468,0.48,0.483,0.82,0.446-.12,1.2.14,0.823,0.72a3.95,3.95,0,0,1-1.686.15c-0.025.19-.176,0.45,0.037,0.58a3.263,3.263,0,0,1,1.245.25,1.2,1.2,0,0,1,.313,1.62,1.807,1.807,0,0,1-.734.55,0.763,0.763,0,0,1-.454.88c-0.1-.06-0.292-0.19-0.389-0.25-0.008-.21-0.015-0.43-0.022-0.64a1.24,1.24,0,0,1-.853-0.16,0.436,0.436,0,0,1,.248-0.69c0.441-.05.885,0.01,1.326-0.04a0.3,0.3,0,0,0-.067-0.6,1.408,1.408,0,0,1-1.488-.7A1.259,1.259,0,0,1,952.257,3112.03Zm12.364,0c0.007-.32.006-0.85,0.458-0.82,0.433,0.01.391,0.52,0.419,0.83,0.33,0.02.88-.07,0.924,0.4,0.02,0.57-.647.47-1.014,0.47-0.309.02-.9-0.13-0.879,0.37,0.108,0.38.574,0.21,0.857,0.28a1.156,1.156,0,0,1,.95,1.59,1.447,1.447,0,0,1-.845.76c-0.016.32,0.012,0.8-.42,0.82-0.461,0-.433-0.51-0.453-0.84-0.258,0-.514-0.01-0.771-0.01-0.127-.26-0.26-0.69.116-0.82,0.472-.07.953,0,1.43-0.05a0.309,0.309,0,0,0-.071-0.59,1.509,1.509,0,0,1-1.468-.58A1.261,1.261,0,0,1,964.621,3112.03Z" transform="translate(-937.688 -3095)"/>
</svg>
