<svg xmlns="http://www.w3.org/2000/svg" width="40.093" height="39.97" viewBox="0 0 40.093 39.97">
  <defs>
    <style>
      .cls-1 {
        fill: #fff;
        fill-rule: evenodd;
      }
    </style>
  </defs>
  <path id="Icon_" data-name="Icon " class="cls-1" d="M488.451,1023.09c0.237-.09.664-0.19,0.784,0.11,0.576,1.11,1.185,2.19,1.746,3.31-0.274.12-.539,0.26-0.8,0.4-0.4-.78-0.832-1.55-1.236-2.34a20.625,20.625,0,0,1-6.007,8.94,26.453,26.453,0,0,1-13.863,5.81,27.356,27.356,0,0,1-3.618.24l0.057-.93a29.341,29.341,0,0,0,8.91-1.46,21.912,21.912,0,0,0,8.965-5.36,19.775,19.775,0,0,0,4.574-7.42c-0.738.4-1.478,0.78-2.216,1.17-0.143-.27-0.287-0.53-0.432-0.8C486.359,1024.21,487.4,1023.64,488.451,1023.09Zm4.818,8.18a7.7,7.7,0,0,1,4.216.83,5.063,5.063,0,0,1,2.5,2.82c0.027,7.37,0,14.75.012,22.12-0.014.85,0.029,1.7-.02,2.55a5.186,5.186,0,0,1-2.5,2.72,5.059,5.059,0,0,1-2.623.68,9.864,9.864,0,0,1-3.472-.3,5.712,5.712,0,0,1-3.164-2.66,4.358,4.358,0,0,1-.444-2.04q0.007-10.47,0-20.93a5.311,5.311,0,0,1,.449-2.72A6.34,6.34,0,0,1,493.269,1031.27Zm-0.635,1.04a5.661,5.661,0,0,0-2.635,1.25,3.444,3.444,0,0,0-1.266,3.08,3.614,3.614,0,0,0,1.063,1.95,6.473,6.473,0,0,0,7.787.51,3.618,3.618,0,0,0,1.695-3.29,3.943,3.943,0,0,0-1.778-2.64A6.59,6.59,0,0,0,492.634,1032.31Zm-3.939,6.44a7.537,7.537,0,0,0,.262,2.84,4.871,4.871,0,0,0,2.964,2.44,6.713,6.713,0,0,0,5.578-.69,3.873,3.873,0,0,0,1.775-2.62c0.054-.65.015-1.31,0.024-1.97A7.168,7.168,0,0,1,488.7,1038.75Zm0,4.19c0.016,0.78-.032,1.57.031,2.35a3.79,3.79,0,0,0,1.513,2.37,6.627,6.627,0,0,0,5.586.94,4.826,4.826,0,0,0,3.162-2.43c0.5-1,.254-2.15.313-3.23A7.17,7.17,0,0,1,488.7,1042.94Zm0,4.5c0.011,0.77-.034,1.55.025,2.32a4.016,4.016,0,0,0,2.212,2.84,6.684,6.684,0,0,0,6.109.01,4.033,4.033,0,0,0,2.229-2.85c0.059-.77.013-1.55,0.028-2.32A7.176,7.176,0,0,1,488.7,1047.44Zm0,4.5c0.01,0.7-.017,1.41.014,2.12a3.76,3.76,0,0,0,1.5,2.52,6.641,6.641,0,0,0,5.895.87,4.7,4.7,0,0,0,2.894-2.36c0.489-.98.253-2.1,0.307-3.16A7.162,7.162,0,0,1,488.7,1051.94Zm0,4.43c0,0.66,0,1.32,0,1.98a3.651,3.651,0,0,0,1.56,2.76,6.642,6.642,0,0,0,5.944.81,4.707,4.707,0,0,0,2.771-2.29c0.528-1,.263-2.17.328-3.25A7.171,7.171,0,0,1,488.7,1056.37Zm4.755-23.11h0.919c0,0.21,0,.41,0,0.62a1.573,1.573,0,0,1,1.134,1.35c-0.307.01-.612,0.01-0.919,0a0.823,0.823,0,0,0-1.334-.17c-0.176.33,0.216,0.62,0.514,0.65a1.863,1.863,0,0,1,1.471.7,1.412,1.412,0,0,1-.051,1.63,3.18,3.18,0,0,1-.815.47c0,0.2,0,.4,0,0.61H493.45c0-.2,0-0.4,0-0.6a1.569,1.569,0,0,1-1.129-1.38c0.3,0,.605,0,0.908.01a0.848,0.848,0,0,0,1.3.26c0.024-.09.071-0.25,0.1-0.34-0.322-.57-1.057-0.34-1.544-0.64a1.373,1.373,0,0,1-.666-1.64,1.565,1.565,0,0,1,1.033-.92C493.447,1033.67,493.447,1033.46,493.45,1033.26Zm-15,7.14a7.5,7.5,0,0,1,4.884.61,4.893,4.893,0,0,1,2.889,4.01c0.02,3.96,0,7.92.008,11.89a7.931,7.931,0,0,1-.251,2.76,5.514,5.514,0,0,1-3.207,3.02,2.975,2.975,0,0,1-1.278.29c-1.042,0-2.083.01-3.125,0a4.6,4.6,0,0,1-1.686-.53,5.625,5.625,0,0,1-2.4-2.24,4.359,4.359,0,0,1-.507-2.23c0-4.09,0-8.18,0-12.27a4.593,4.593,0,0,1,.492-2.45A6.11,6.11,0,0,1,478.449,1040.4Zm-0.01.94a4.843,4.843,0,0,0-3.586,2.86,3.265,3.265,0,0,0,.893,3.33,6.178,6.178,0,0,0,4.933,1.59,5.673,5.673,0,0,0,3.8-1.81,3.364,3.364,0,0,0,.8-2.55,3.723,3.723,0,0,0-1.471-2.37A6.568,6.568,0,0,0,478.439,1041.34Zm-3.743,6.41a6.919,6.919,0,0,0,.309,2.93,4.946,4.946,0,0,0,3.214,2.43,6.835,6.835,0,0,0,4.5-.34,4.466,4.466,0,0,0,2.361-2.26,7.891,7.891,0,0,0,.219-2.75A7.2,7.2,0,0,1,474.7,1047.75Zm0,4.19a8.334,8.334,0,0,0,.274,3.1,4.136,4.136,0,0,0,1.228,1.53,6.588,6.588,0,0,0,5.566.98,5,5,0,0,0,3.126-2.22c0.624-1.02.36-2.25,0.412-3.38A7.187,7.187,0,0,1,474.7,1051.94Zm0,4.44c0.012,0.72-.02,1.44.015,2.15a3.774,3.774,0,0,0,1.576,2.61,6.616,6.616,0,0,0,5.316.95,5.049,5.049,0,0,0,3.3-2.29c0.616-1.03.344-2.28,0.4-3.41A7.187,7.187,0,0,1,474.7,1056.38Zm4.939-14.18c0.306,0.01.613,0.01,0.92,0.01q0,0.3,0,.6a1.578,1.578,0,0,1,1.129,1.35h-0.921a0.842,0.842,0,0,0-1.47.02c0.27,0.67,1.115.4,1.617,0.74a1.364,1.364,0,0,1,.419,1.98,1.847,1.847,0,0,1-.834.55c0,0.2,0,.39,0,0.59-0.309.01-.618,0.01-0.926,0.01,0-.2,0-0.4,0-0.6a1.574,1.574,0,0,1-1.125-1.36h1a0.8,0.8,0,0,0,1.286.21,0.448,0.448,0,0,0-.284-0.63,5.27,5.27,0,0,1-1.178-.31,1.358,1.358,0,0,1-.6-1.8,1.684,1.684,0,0,1,.961-0.75C479.633,1042.61,479.633,1042.41,479.635,1042.2Zm-15.114,2.63a7.552,7.552,0,0,1,4.879.64,5.437,5.437,0,0,1,2.493,2.54,4.167,4.167,0,0,1,.338,1.61c0,2.65,0,5.31,0,7.97a4.82,4.82,0,0,1-.4,2.37,5.5,5.5,0,0,1-2.453,2.41,5.014,5.014,0,0,1-2.479.62c-1.165-.07-2.391.18-3.5-0.3a5.587,5.587,0,0,1-3.309-2.94,1.227,1.227,0,0,1-.085-0.53q0-4.935,0-9.88a2.886,2.886,0,0,1,.213-1.55A6.087,6.087,0,0,1,464.521,1044.83Zm0.151,0.97a5.926,5.926,0,0,0-2.407,1.04,3.738,3.738,0,0,0-1.547,2.63,3.418,3.418,0,0,0,.982,2.51,6.052,6.052,0,0,0,4.656,1.66,5.882,5.882,0,0,0,3.916-1.62,3.458,3.458,0,0,0,1.029-2.54,3.667,3.667,0,0,0-1.51-2.61A6.593,6.593,0,0,0,464.672,1045.8Zm-3.908,6.39c0.006,0.54,0,1.07,0,1.61a3.478,3.478,0,0,0,.9,2.22,6.014,6.014,0,0,0,5.1,1.72,5.382,5.382,0,0,0,4.107-2.38,6.087,6.087,0,0,0,.494-3.17,6.877,6.877,0,0,1-5.693,2.32A6.7,6.7,0,0,1,460.764,1052.19Zm-0.069,4.18c0.033,0.8-.043,1.61.053,2.41a3.9,3.9,0,0,0,1.751,2.49,6.639,6.639,0,0,0,5.217.79,4.987,4.987,0,0,0,3.239-2.34c0.554-1.03.293-2.22,0.346-3.33A7.187,7.187,0,0,1,460.7,1056.37Zm4.884-9.68c0.327,0,.652,0,0.979.01,0,0.2,0,.41,0,0.61a1.568,1.568,0,0,1,1.13,1.35c-0.31.01-.62,0.01-0.929,0.01a0.8,0.8,0,0,0-1.153-.32,0.42,0.42,0,0,0,.134.76,3.048,3.048,0,0,1,1.355.43,1.339,1.339,0,0,1,.291,1.78,1.569,1.569,0,0,1-.892.62c0,0.21,0,.41,0,0.61h-0.916v-0.6a1.562,1.562,0,0,1-1.136-1.37H465.3a0.78,0.78,0,0,0,1.427-.03c-0.316-.61-1.077-0.39-1.571-0.71a1.376,1.376,0,0,1-.479-1.9,1.724,1.724,0,0,1,.9-0.63C465.579,1047.1,465.579,1046.9,465.579,1046.69Z" transform="translate(-459.938 -1023.03)"/>
</svg>
