<svg xmlns="http://www.w3.org/2000/svg" width="40" height="38" viewBox="0 0 40 38">
  <defs>
    <style>
      .cls-1 {
        fill: #fff;
        fill-rule: evenodd;
      }
    </style>
  </defs>
  <path id="Icon_" data-name="Icon " class="cls-1" d="M460.043,1241.51c0.87-.79,1.689-1.66,2.507-2.51,0.839,0.85,1.674,1.72,2.569,2.51a7.127,7.127,0,0,0-.72.69c-0.444-.47-0.907-0.92-1.361-1.38,0,1.94,0,3.89,0,5.83h1.66c0,0.31,0,.63,0,0.94-0.555.01-1.109,0-1.664,0.01q0,2.28,0,4.56c0.554,0,1.108,0,1.663.01v0.94h-1.663c0,1.53,0,3.06,0,4.58H464.7c0,0.32,0,.63,0,0.94-0.554.01-1.108,0.01-1.662,0.01v4.57H464.7c0,0.31,0,.62,0,0.94h-1.66c0,1.52,0,3.05,0,4.57H464.7c0,0.31,0,.63,0,0.94-0.554.01-1.106,0-1.66,0,0,1.41,0,2.81,0,4.21h3.884v-1.7h0.927c0,0.57,0,1.13,0,1.7,1.5,0,3,.01,4.5,0,0-.57,0-1.13,0-1.7h0.925v1.7h4.508c0-.56,0-1.13,0-1.7h0.913c0.008,0.57.008,1.14,0,1.71,1.5-.01,3,0,4.5-0.01v-1.7h0.93c0,0.57,0,1.13,0,1.7,1.5,0,3,.01,4.5,0,0-.57,0-1.13-0.006-1.7,0.31,0,.62,0,0.931.01,0,0.56.007,1.13,0,1.69,2.9-.01,5.8.02,8.7-0.01-0.447-.43-0.866-0.88-1.317-1.31a2.189,2.189,0,0,1,.57-0.74c0.67,0.68,1.334,1.37,2.013,2.05a1.87,1.87,0,0,1,.479.6c-0.878.76-1.671,1.61-2.494,2.43-0.207-.21-0.416-0.42-0.624-0.62,0.469-.47.908-0.98,1.378-1.44-11.741-.03-23.481-0.01-35.221-0.01,0,0.72,0,1.45,0,2.18H462.11c0.009-.73.011-1.45,0.007-2.18-0.707-.01-1.412,0-2.117,0v-0.95h2.115q0-16.53-.007-33.05c-0.456.47-.956,0.91-1.41,1.38A6.461,6.461,0,0,0,460.043,1241.51Zm21.442,0.78a9.478,9.478,0,0,1,7.117.23,9.607,9.607,0,0,1,4.9,5.04,9.979,9.979,0,0,1-1.862,10.62,0.642,0.642,0,0,0,.215.42c1.829,2.26,3.634,4.53,5.462,6.79a2.753,2.753,0,0,1,.527,2.1,2.455,2.455,0,0,1-1.931,1.92,2.505,2.505,0,0,1-1.813-.5,4.265,4.265,0,0,1-.94-1.23c-1.466-2.46-2.941-4.9-4.41-7.35a9.367,9.367,0,0,1-11-2.26,9.959,9.959,0,0,1-1.518-11.04A9.64,9.64,0,0,1,481.485,1242.29Zm2.734,0.37a8.484,8.484,0,0,0-4.507,1.63,8.85,8.85,0,0,0-3.639,7.26,8.737,8.737,0,0,0,1.458,4.83,8.606,8.606,0,0,0,5.082,3.6,8.751,8.751,0,0,0,6.446-.9q2.547,4.2,5.095,8.41a1.731,1.731,0,0,0,.981.89,1.484,1.484,0,0,0,1.881-1.3,2.132,2.132,0,0,0-.751-1.59q-2.96-3.645-5.916-7.3a9.206,9.206,0,0,0,2.635-4.04,8.985,8.985,0,0,0-1.842-8.6A8.566,8.566,0,0,0,484.219,1242.66Zm-2.819,4.03a2.1,2.1,0,0,1,2.7,1.69,2.13,2.13,0,0,1-1.645,2.43,2.106,2.106,0,0,1-2.436-1.53A2.134,2.134,0,0,1,481.4,1246.69Zm0.37,0.88a1.313,1.313,0,0,0-.887.96,1.184,1.184,0,0,0,.987,1.36,1.153,1.153,0,0,0,1.306-1.01A1.178,1.178,0,0,0,481.77,1247.57Zm-1.5,7.81q4.252-4.32,8.5-8.65c0.219,0.22.438,0.45,0.658,0.67q-4.251,4.32-8.5,8.65C480.71,1255.83,480.49,1255.6,480.271,1255.38Zm6.519-3.07a2.141,2.141,0,0,1,2.817,2.12,2.09,2.09,0,0,1-4.176-.01A2.12,2.12,0,0,1,486.79,1252.31Zm0.281,0.84a1.186,1.186,0,0,0-.7.98,1.164,1.164,0,0,0,1.046,1.29,1.219,1.219,0,0,0,1.25-1.41A1.2,1.2,0,0,0,487.071,1253.15Zm-13.865,6.11h4.135v9.46h-4.128C473.206,1265.57,473.22,1262.41,473.206,1259.26Zm0.935,0.94q0,3.795,0,7.59h2.278c0-2.53,0-5.06,0-7.59h-2.28Zm4.741,0.19h0.93q0.006,3.7,0,7.4h2.279c0-2.03,0-4.06,0-6.1,0.307,0,.613,0,0.92.01q0,3.51,0,7.02h-4.128C478.882,1265.94,478.89,1263.17,478.882,1260.39Zm8.817,0.99c0.309,0.01.618,0.01,0.928,0.01,0,2.44,0,4.89,0,7.33H484.5c0-2.26,0-4.51,0-6.77h0.919c0,1.95,0,3.9,0,5.84H487.7C487.7,1265.66,487.7,1263.52,487.7,1261.38Zm-20.093.88h4.129c0,2.18,0,4.35,0,6.53-1.376,0-2.753-.01-4.129,0v-6.53Zm0.921,0.88q0,2.325,0,4.65h2.279q0-2.325,0-4.65h-2.278Z" transform="translate(-460 -1239)"/>
</svg>
