<svg xmlns="http://www.w3.org/2000/svg" width="39.969" height="34.97" viewBox="0 0 39.969 34.97">
  <defs>
    <style>
      .cls-1 {
        fill: #fff;
        fill-rule: evenodd;
      }
    </style>
  </defs>
  <path id="Icon_" data-name="Icon " class="cls-1" d="M468.643,1429.32a3.168,3.168,0,0,1,6.212.69,3.246,3.246,0,0,1-.482,1.82c1.458,1.85,2.9,3.71,4.361,5.56a3.342,3.342,0,0,1,3.449.61c1.093-.87,2.156-1.77,3.256-2.63a3.132,3.132,0,0,1,3.106-4.48,3.328,3.328,0,0,1,2.363,1.31c0.844-.37,1.69-0.75,2.537-1.11a3.187,3.187,0,0,1,5.9-2.03,3.124,3.124,0,0,1-1.2,4.29,3.261,3.261,0,0,1-4.156-.92c-0.851.37-1.7,0.74-2.543,1.12a3.164,3.164,0,0,1-1.569,3.16,3.268,3.268,0,0,1-3.537-.22l-3.352,2.73a3.121,3.121,0,0,1-.443,2.9,3.185,3.185,0,0,1-3.052,1.24,3.141,3.141,0,0,1-2.651-2.77,3.193,3.193,0,0,1,.709-2.33c-1.418-1.81-2.825-3.62-4.24-5.43a3.4,3.4,0,0,1-3.206.03c-1.351,1.41-2.7,2.83-4.061,4.24a3.2,3.2,0,0,1,.5,1.86,3.159,3.159,0,1,1-4.3-3.05,3.344,3.344,0,0,1,2.731.2c1.355-1.41,2.7-2.83,4.058-4.24A3.2,3.2,0,0,1,468.643,1429.32Zm2.367-.71a1.684,1.684,0,1,0,2.391,1.41A1.715,1.715,0,0,0,471.01,1428.61Zm24.857,0.51a1.7,1.7,0,0,0-.966,1.38A1.706,1.706,0,1,0,495.867,1429.12Zm-8.081,3.28a1.738,1.738,0,0,0-1.153,1.98,1.8,1.8,0,0,0,1.589,1.3A1.685,1.685,0,1,0,487.786,1432.4Zm-25,4.86a1.784,1.784,0,0,0-1.085,1.53,1.739,1.739,0,0,0,1.833,1.72A1.688,1.688,0,1,0,462.782,1437.26Zm16.745,1.39a1.823,1.823,0,0,0-1.223,1.44A1.705,1.705,0,1,0,479.527,1438.65ZM470,1436.41q1.674-.03,3.352,0a1.251,1.251,0,0,1,1.261,1.24c0.016,6.62,0,13.24.01,19.86a3.313,3.313,0,0,1-.147.99,1.4,1.4,0,0,1-1.087.58q-1.712.015-3.42,0a1.232,1.232,0,0,1-1.2-1.27c-0.009-6.66,0-13.33,0-19.99A1.289,1.289,0,0,1,470,1436.41Zm0.221,1.43q0.015,9.9,0,19.8h2.937v-19.8h-2.937Zm24.634-.93c1.126-.04,2.256-0.02,3.383-0.01a1.231,1.231,0,0,1,1.271,1.26q0.024,9.825,0,19.65a1.206,1.206,0,0,1-1.152,1.26c-1.17.02-2.34,0.02-3.508,0.01a1.221,1.221,0,0,1-1.178-1.25c-0.013-6.51,0-13.02,0-19.53A1.256,1.256,0,0,1,494.857,1436.91Zm0.272,1.44v19.29h2.927q0.011-9.645,0-19.29h-2.927Zm-9.629,2.53c0.664-.92,1.909-0.55,2.875-0.62,0.918,0.05,2.1-.26,2.715.63a3.849,3.849,0,0,1,.132.84q0,7.965,0,15.93a1.332,1.332,0,0,1-.6,1.25,2.106,2.106,0,0,1-1.084.18c-1.026-.02-2.052.02-3.076-0.02a1.224,1.224,0,0,1-1.088-1.24c-0.006-5.37,0-10.74,0-16.11A3.6,3.6,0,0,1,485.5,1440.88Zm1.328,0.84c0,5.31.009,10.62,0,15.92h2.938v-15.92h-2.933Zm-25.693,3.52a11.3,11.3,0,0,1,2.731-.14c0.706,0.05,1.581-.19,2.121.4a1.992,1.992,0,0,1,.336,1.43c-0.012,3.63.013,7.27-.013,10.9a1.2,1.2,0,0,1-1.146,1.24c-0.929.03-1.859,0-2.787,0.02a2.5,2.5,0,0,1-1.381-.22,1.331,1.331,0,0,1-.528-1.21c0-3.74,0-7.47,0-11.21A1.309,1.309,0,0,1,461.135,1445.24Zm0.794,1.3v11.1h2.925c0.014-3.7,0-7.4,0-11.1h-2.929Zm15.821,0.15a11.243,11.243,0,0,1,2.723-.15c0.7,0.04,1.583-.17,2.115.42a1.686,1.686,0,0,1,.334,1.27c-0.008,3.19.011,6.39-.01,9.59a1.2,1.2,0,0,1-1.134,1.25q-1.772.03-3.545,0a1.2,1.2,0,0,1-1.16-1.26c-0.009-3.3,0-6.6,0-9.9A1.289,1.289,0,0,1,477.75,1446.69Zm0.78,1.3q0,4.815,0,9.65h2.926c0.008-3.22,0-6.43,0-9.65C480.481,1447.98,479.506,1447.99,478.53,1447.99Zm-18.332,12.7a2.893,2.893,0,0,1,.708-0.16q19-.015,38.009-0.01a2.871,2.871,0,0,1,.87.16,0.845,0.845,0,0,1,.068,1.01,1.017,1.017,0,0,1-.945.3q-19.076-.015-38.15,0A0.772,0.772,0,0,1,460.2,1460.69Z" transform="translate(-460 -1427.03)"/>
</svg>
