<svg xmlns="http://www.w3.org/2000/svg" width="60" height="60.03" viewBox="0 0 60 60.03">
  <defs>
    <style>
      .cls-1 {
        fill: #f50;
        fill-rule: evenodd;
      }
    </style>
  </defs>
  <path id="Icon_" data-name="Icon " class="cls-1" d="M464.044,4957.31c0.921-.65,2.088-0.16,3.019.22,2.506,1.12,5.063,2.53,7.9,2.39,2.647-.13,4.981-1.5,7.371-2.52,0.865-.34,1.975-0.69,2.783-0.03,0.837,0.75.816,1.98,0.8,3.03a19.331,19.331,0,0,1-2.959,9.12,3.038,3.038,0,1,1,.28,6.06,27.791,27.791,0,0,1,5.881,7.06,40.6,40.6,0,0,1,5,12.84c0.679,3.62,1,7.58-.615,11a9.937,9.937,0,0,1-6.448,5.07c-4.393,1.28-9.016,1.09-13.541,1.14-1.564-.03-3.128-0.07-4.69-0.14a3.25,3.25,0,0,1-2.71,4.4c-3.508.04-7.019,0.01-10.53,0.02a3.192,3.192,0,0,1-3.054-1.92,5.054,5.054,0,0,0-.254-6.51,3.453,3.453,0,0,0,0-5.33,3.337,3.337,0,0,1,1.261-2.39,3.281,3.281,0,0,1-.856-4.17,3.367,3.367,0,0,1,2.375-1.62,41.106,41.106,0,0,1,5.051-12.62,27.133,27.133,0,0,1,5.752-6.83,3.053,3.053,0,0,1-3.035-3.36,3.1,3.1,0,0,1,3.3-2.72,19.672,19.672,0,0,1-2.965-8.87C463.138,4959.5,463.083,4958.1,464.044,4957.31Zm0.328,2.62a18.317,18.317,0,0,0,3.21,9.59q6.963,0.03,13.926.01a18.7,18.7,0,0,0,3.171-8.89,3.551,3.551,0,0,0-.394-2.36,4.215,4.215,0,0,0-2.205.57c-2.263,1.06-4.58,2.21-7.12,2.32-2.595.12-5.042-.94-7.338-2.03a6.989,6.989,0,0,0-2.709-.9A2.012,2.012,0,0,0,464.372,4959.93Zm0.672,11.01a1.767,1.767,0,0,0,.816,3.36c5.752,0.01,11.5,0,17.251.01a1.8,1.8,0,0,0,1.9-1.32,1.763,1.763,0,0,0-1.636-2.2c-5.592-.04-11.184,0-16.775-0.02A4.072,4.072,0,0,0,465.044,4970.94Zm-3.279,11.21a38.758,38.758,0,0,0-5.438,12.88c3.183,0.01,6.369,0,9.552.01a3.191,3.191,0,0,1,3.083,3.84,3.571,3.571,0,0,1-1.2,1.94,3.313,3.313,0,0,1,1.22,3.15,3.5,3.5,0,0,1-1.222,2.02,3.343,3.343,0,0,1,1.193,3.29,3.975,3.975,0,0,1-1.225,1.98c4.239,0.22,8.488.21,12.726,0.05,3.232-.25,6.661-0.54,9.443-2.39a8.349,8.349,0,0,0,3.417-6.16,26.448,26.448,0,0,0-1.219-10.39,38.431,38.431,0,0,0-5.384-11.18,24.041,24.041,0,0,0-5.5-5.65c-0.959.01-1.916,0-2.87,0,0.588,1.3,1.181,2.6,1.753,3.9-0.373.18-.747,0.35-1.115,0.53-0.66-1.48-1.31-2.96-1.992-4.43-1.634.01-3.265,0-4.9,0.01-0.674,1.46-1.3,2.95-1.994,4.41-0.366-.18-0.73-0.35-1.091-0.53,0.562-1.3,1.158-2.59,1.746-3.89-0.959.04-1.925-.06-2.88,0.04A24.177,24.177,0,0,0,461.765,4982.15Zm-6.816,14.18a1.953,1.953,0,0,0-1.414,2.28,1.974,1.974,0,0,0,2.055,1.59c3.432-.02,6.866,0,10.3-0.02a1.887,1.887,0,0,0,1.88-2.04,1.92,1.92,0,0,0-2.121-1.87C462.081,4996.32,458.51,4996.19,454.949,4996.33Zm-0.266,5.26a1.99,1.99,0,0,0,.266,3.72c3.561,0.13,7.134.01,10.7,0.06a1.926,1.926,0,0,0,2.119-1.89,1.9,1.9,0,0,0-1.887-2.03c-3.348-.02-6.7,0-10.05-0.02A2.967,2.967,0,0,0,454.683,5001.59Zm0.048,5.16a1.979,1.979,0,0,0,.866,3.81c3.43,0,6.862.01,10.291-.01a1.978,1.978,0,0,0,1.906-1.77,1.925,1.925,0,0,0-1.9-2.13c-3.355-.04-6.713.01-10.069-0.02A3.35,3.35,0,0,0,454.731,5006.75Zm0.483,5.07a1.958,1.958,0,0,0,.156,3.9q5.259,0.015,10.521,0a1.948,1.948,0,0,0,1.863-2.36,1.971,1.971,0,0,0-2.11-1.56C462.169,5011.82,458.692,5011.77,455.214,5011.82Zm10.435-49.59,1.215-.27c0.105,0.48.225,0.95,0.352,1.42-0.392.13-.785,0.25-1.177,0.37C465.9,4963.25,465.774,4962.74,465.649,4962.23Zm16.517-.01c0.4,0.09.806,0.19,1.21,0.28-0.11.41-.213,0.82-0.318,1.24l-1.217-.36C481.955,4963,482.058,4962.61,482.166,4962.22Zm-15.778,2.67c0.385-.16.775-0.31,1.163-0.46a19.962,19.962,0,0,0,1.475,3.08c-0.344.23-.691,0.45-1.038,0.68A26.127,26.127,0,0,1,466.388,4964.89Zm13.661,2.63a25.406,25.406,0,0,0,1.445-2.91c0.368,0.16.736,0.31,1.1,0.47a21.628,21.628,0,0,1-1.488,3.09C480.755,4967.95,480.4,4967.74,480.049,4967.52Zm-30.137-1.89c0.153-.01.457-0.01,0.61-0.02,0,0.42-.007.84-0.01,1.26h-0.59C449.917,4966.46,449.915,4966.04,449.912,4965.63Zm1.992-.02c0.472,0.01.943,0.01,1.411,0.02,0,0.41,0,.83,0,1.24H451.9Q451.9,4966.24,451.9,4965.61Zm2.8,0.02h1.4v1.23c-0.466,0-.933.01-1.4,0.01C454.707,4966.45,454.705,4966.04,454.705,4965.63Zm2.758-.01h0.645c0,0.43,0,.85,0,1.28-0.211-.02-0.419-0.05-0.629-0.07C457.474,4966.43,457.47,4966.02,457.463,4965.62Zm-18.416,9.46c0.21-.01.423-0.03,0.634-0.04,0,0.43-.01.86-0.015,1.28l-0.622-.03C439.044,4975.89,439.044,4975.48,439.047,4975.08Zm2.016-.01h1.423q-0.007.615-.019,1.23c-0.469,0-.935.01-1.4,0.01v-1.24Zm2.774,0h1.407c0,0.41-.005.83-0.005,1.24-0.469,0-.935-0.01-1.4-0.01v-1.23Zm2.784-.03c0.211,0.01.424,0.03,0.636,0.04,0.008,0.4.015,0.81,0.024,1.21-0.215.01-.428,0.02-0.641,0.04Q446.63,4975.685,446.621,4975.04Zm12.559,4.3q0.58-.825,1.191-1.62c0.318,0.27.636,0.54,0.956,0.8-0.392.51-.77,1.02-1.145,1.53C459.847,4979.81,459.512,4979.57,459.18,4979.34Zm-1.194,1.83c0.347,0.23.7,0.45,1.045,0.67a40.864,40.864,0,0,0-3.219,6.51l-1.148-.48A46.289,46.289,0,0,1,457.986,4981.17Zm16.562,2.61h1.237c-0.01,1.11-.019,2.21,0,3.31a4.392,4.392,0,0,1,3.613,4.2c-0.406.01-.813,0.01-1.217,0.02a3.257,3.257,0,0,0-1.535-2.6,2.957,2.957,0,0,0-4.114,1.2,3.025,3.025,0,0,0,1,3.9c0.952,0.71,2.224.33,3.255,0.82a4.289,4.289,0,0,1,2.447,4.97,4.356,4.356,0,0,1-3.444,3.17c-0.01,1.11,0,2.21-.012,3.32h-1.222c0-1.11,0-2.22,0-3.33a4.364,4.364,0,0,1-3.62-4.21c0.406,0,.813-0.01,1.222-0.01a3.211,3.211,0,0,0,1.669,2.69,2.967,2.967,0,0,0,3.958-1.27,3,3,0,0,0-1-3.92c-1-.73-2.339-0.3-3.4-0.89a4.274,4.274,0,0,1-2.251-5.03,4.394,4.394,0,0,1,3.427-3.05C474.548,4985.97,474.553,4984.88,474.548,4983.78Zm-39.861,3.97a3.2,3.2,0,0,1,3.19-3.08c3.509,0,7.015-.01,10.524,0a3.176,3.176,0,0,1,3.044,3.32,3.161,3.161,0,0,0,0,5.06,3.462,3.462,0,0,0,0,5.34,3.166,3.166,0,0,0,0,5.08,3.185,3.185,0,0,0,0,5.08,3.366,3.366,0,0,1-1.272,2.63,3.285,3.285,0,0,1,.894,4.11,3.169,3.169,0,0,1-2.887,1.68h-10.3a3.187,3.187,0,0,1-3.015-2.14,3.261,3.261,0,0,1,1.1-3.64,8.747,8.747,0,0,0-1.282-7.73,3.39,3.39,0,0,1,1.285-2.65,3.225,3.225,0,0,1-.007-5.15,3.5,3.5,0,0,1-1.28-2.58,3.441,3.441,0,0,1,1.284-2.63A3.34,3.34,0,0,1,434.687,4987.75Zm2.815-1.81a1.98,1.98,0,0,0-1.555,2.31,1.954,1.954,0,0,0,1.94,1.58c3.5-.01,7,0.02,10.492-0.01a1.958,1.958,0,0,0-.2-3.91C444.619,4985.93,441.058,4985.86,437.5,4985.94Zm-0.261,5.25a1.973,1.973,0,0,0-1.267,2.35,2,2,0,0,0,1.908,1.48c3.432,0.02,6.867.01,10.3,0a1.971,1.971,0,1,0,.016-3.94c-3.281-.02-6.562,0-9.844-0.01A3.477,3.477,0,0,0,437.241,4991.19Zm0.249,5.11a1.963,1.963,0,0,0,.4,3.89c3.272,0.02,6.546-.01,9.818.01a3.317,3.317,0,0,0,1.363-.18,2,2,0,0,0,1-2.57,1.95,1.95,0,0,0-1.884-1.18C444.622,4996.29,441.053,4996.23,437.49,4996.3Zm-0.478,5.34a1.98,1.98,0,0,0,.475,3.69c3.562,0.08,7.13.01,10.694,0.03a1.944,1.944,0,0,0,2.025-1.65,1.979,1.979,0,0,0-1.8-2.26c-3.344-.03-6.687,0-10.028-0.01A2.764,2.764,0,0,0,437.012,5001.64Zm0.05,5.15a2.04,2.04,0,0,0-1.155,1.76,1.989,1.989,0,0,0,1.985,2.01c3.434,0.01,6.866,0,10.3,0a1.973,1.973,0,0,0,2.031-2,1.924,1.924,0,0,0-2.021-1.92c-3.356.01-6.709-.02-10.064,0A2.609,2.609,0,0,0,437.062,5006.79Zm0.464,5.05a1.96,1.96,0,0,0,.351,3.89h10.311a1.962,1.962,0,1,0,0-3.92C444.631,5011.82,441.077,5011.76,437.526,5011.84Zm29.242-18.77a8.918,8.918,0,0,1,2.172-7.99c0.29,0.29.581,0.58,0.873,0.86a7.878,7.878,0,0,0-1.865,6.87C467.553,4992.89,467.161,4992.98,466.768,4993.07Zm14.078,9.84a7.9,7.9,0,0,0,1.7-4.81c0.407,0.02.813,0.05,1.222,0.07a9.489,9.489,0,0,1-1.908,5.5C481.52,5003.42,481.185,5003.16,480.846,5002.91Zm7.761,9.39a20.331,20.331,0,0,0,2.308-1.15c0.215,0.35.435,0.7,0.655,1.05a19.76,19.76,0,0,1-2.521,1.26C488.9,5013.07,488.752,5012.69,488.607,5012.3Zm-12.573,1.62a46.423,46.423,0,0,0,10.585-.99c0.1,0.4.2,0.8,0.3,1.2a46.093,46.093,0,0,1-10.866,1.03C476.043,5014.74,476.039,5014.33,476.034,5013.92Z" transform="translate(-434.688 -4956.97)"/>
</svg>
