<svg xmlns="http://www.w3.org/2000/svg" width="34" height="60.09" viewBox="0 0 34 60.09">
  <defs>
    <style>
      .cls-1 {
        fill: #f50;
        fill-rule: evenodd;
      }
    </style>
  </defs>
  <path id="Icon_" data-name="Icon " class="cls-1" d="M826.123,4956.57a15.689,15.689,0,0,1,18.737,20.98c-0.376.08-.976-0.12-0.754-0.62a14.923,14.923,0,0,0,.148-10.06,14.729,14.729,0,0,0-28.523,6.75,15.014,15.014,0,0,0,4.174,8.5c0.374,0.33-.042.69-0.343,0.86A15.636,15.636,0,0,1,826.123,4956.57Zm-5.385,9.4a11.15,11.15,0,0,1,19.94,9.84c-0.187.6-1.14,0.16-.815-0.38a10.371,10.371,0,0,0-1.143-9.62,10.23,10.23,0,0,0-18.562,4.76,10.378,10.378,0,0,0,2.966,8.39c-0.033.34-.446,0.86-0.774,0.48A11.142,11.142,0,0,1,820.738,4965.97Zm8.039-.5a6.387,6.387,0,0,1,7.446,8.66c-0.136.5-1.047,0.29-.852-0.24a6.24,6.24,0,0,0,.307-3.31,5.45,5.45,0,0,0-10.791,1.03,5.772,5.772,0,0,0,1.446,3.85c0.3,0.44-.48.91-0.747,0.47A6.384,6.384,0,0,1,828.777,4965.47Zm-0.883,9.66a2.94,2.94,0,0,1,5.877.05c0.015,2.34.026,4.68-.01,7.01a3.061,3.061,0,0,1,4.8,1.08,3.02,3.02,0,0,1,4.119-.25,3.136,3.136,0,0,1,1.042,2.23,3.27,3.27,0,0,1,2.346-.7,2.95,2.95,0,0,1,2.6,2.94c0.012,3.62,0,7.24,0,10.86a16.675,16.675,0,0,1-1.239,6.68c-0.446,1.18-1.236,2.17-1.788,3.3,0.3,0.01.608,0.04,0.91,0.07a1.474,1.474,0,0,1,.212,1.06c-0.04,2.08.043,4.16-.038,6.24a0.9,0.9,0,0,1-.93.29H827.122a2.525,2.525,0,0,1-.858-0.15c0.026-2.48-.063-4.95.051-7.43,0.52-.05,1.042-0.07,1.564-0.07a5.2,5.2,0,0,0-.686-2c-0.621-.98-1.819-1.32-2.6-2.14a5.473,5.473,0,0,1-1.652-3.8c0.013-2.61-.02-5.21.018-7.82a2.93,2.93,0,0,1,2.628-2.73,3.088,3.088,0,0,1,2.285.75C827.9,4985.44,827.869,4980.28,827.894,4975.13Zm0.928,0.27c-0.025,6.98.018,13.97-.017,20.95,0.085,0.59-.936.6-0.916,0.01-0.056-1.27.068-2.55-.02-3.82a2,2,0,0,0-3.988.24c-0.018,2.54,0,5.07,0,7.61a4.547,4.547,0,0,0,1.369,3.15c0.717,0.74,1.766,1.05,2.407,1.87a5.518,5.518,0,0,1,1.148,2.94q7.914-.015,15.828,0c0.535-1.4,1.564-2.54,2.063-3.95a17.357,17.357,0,0,0,1.042-4.78c0-4.03.018-8.07,0-12.1a2,2,0,0,0-4-.27c-0.07,1.91.053,3.82-.063,5.73a0.455,0.455,0,0,1-.867-0.18c-0.1-2.52,0-5.05-.031-7.58a2.01,2.01,0,0,0-1.75-1.96,1.988,1.988,0,0,0-2.255,1.96c-0.021,2.28-.031,4.55-0.008,6.82a1.59,1.59,0,0,1-.207,1.15,0.492,0.492,0,0,1-.726-0.44c-0.061-2.83,0-5.67-.025-8.5a1.964,1.964,0,0,0-1.148-1.7,2,2,0,0,0-2.84,1.68c-0.068,2.88.058,5.76-.063,8.63-0.013.59-1.032,0.43-.893-0.15-0.043-5.85.025-11.71-.013-17.56a2.006,2.006,0,0,0-2.429-1.86A2.046,2.046,0,0,0,828.822,4975.4Zm-1.617,33.88c-0.022,1.93-.01,3.86-0.015,5.79,6.213-.01,12.428,0,18.641-0.01q0-2.9,0-5.79C839.623,5009.29,833.416,5009.27,827.205,5009.28Zm18.064-10.23a0.482,0.482,0,0,1,.746-0.38,2.62,2.62,0,0,1,.189,1.46c-0.1,2.02-.537,4.21-2.033,5.67-0.363.34-.681-0.06-0.847-0.38C844.978,5003.76,845.354,5001.3,845.269,4999.05Zm-3.133,11.36a1.972,1.972,0,1,1-.934,3.14A2,2,0,0,1,842.136,5010.41Zm0.206,0.92a1.041,1.041,0,1,0,1.325,1.39A1.051,1.051,0,0,0,842.342,5011.33Z" transform="translate(-814.688 -4956)"/>
</svg>
