<svg xmlns="http://www.w3.org/2000/svg" width="52" height="60" viewBox="0 0 52 60">
  <defs>
    <style>
      .cls-1 {
        fill: #f50;
        fill-rule: evenodd;
      }
    </style>
  </defs>
  <path id="Icon_" data-name="Icon " class="cls-1" d="M1216.33,4957h1.39c0,0.47-.01.94-0.01,1.4h-1.38V4957Zm0,2.8h1.39q-0.015.705,0,1.41h-1.39v-1.41Zm0,3.28c0.47,0,.93-0.01,1.4-0.01q-0.03,3.6-.01,7.19c0.88-.91,1.77-1.82,2.68-2.71,0.33,0.32.67,0.63,1,.94-1.44,1.47-2.88,2.93-4.32,4.4-1.47-1.46-2.89-2.95-4.35-4.4,0.3-.31.61-0.62,0.92-0.94,0.9,0.9,1.78,1.81,2.68,2.7v-7.17Zm-7.93.27h1.38c0,0.48.01,0.95,0.01,1.43-0.46-.02-0.93-0.02-1.39-0.03v-1.4Zm-0.01,2.81h1.39c0,0.45,0,.91.02,1.36-0.47.04-.94,0.05-1.41,0.07v-1.43Zm0.01,3.26c0.46,0.01.93,0.01,1.39,0.02-0.01,2.36,0,4.72-.01,7.08,0.89-.9,1.79-1.8,2.68-2.7l1.02,1.02c-1.45,1.47-2.89,2.94-4.35,4.41-1.42-1.49-2.89-2.92-4.32-4.4l0.91-1.03c0.91,0.88,1.78,1.81,2.68,2.7C1208.39,4974.16,1208.4,4971.79,1208.4,4969.42Zm-13.61,2.54a0.684,0.684,0,0,1,.62-1.03c2.95-.03,5.9.01,8.85-0.01a1.143,1.143,0,0,1,1.05.29,0.752,0.752,0,0,1-.59,1.2c-2.65.03-5.29,0.01-7.93,0.01,5.31,7.05,10.66,14.08,15.98,21.13a12.416,12.416,0,0,1,2.06,3.2,6.832,6.832,0,0,1,.31,2.33c-0.01,5.38,0,10.75-.01,16.13,2.19-.93,4.37-1.88,6.55-2.8v-13.56a5.637,5.637,0,0,1,1.05-3.56c1.5-1.98,2.98-3.96,4.47-5.95a9.979,9.979,0,0,1,2.9-8.43,9.773,9.773,0,0,1,5.51-2.71c1.43-1.89,2.9-3.77,4.31-5.69q-8.925.015-17.87-.01a0.747,0.747,0,0,1-.54-1.26,1.394,1.394,0,0,1,1.02-.23c6.29,0.02,12.58-.02,18.87.02a0.672,0.672,0,0,1,.47,1.13c-1.49,1.99-3,3.96-4.51,5.95a9.944,9.944,0,0,1,4.15,18.64,9.6,9.6,0,0,1-7.74.65,10.094,10.094,0,0,1-6.2-6.28c-1.25,1.67-2.54,3.3-3.78,4.98a4.041,4.041,0,0,0-.81,2.52c-0.02,4.75.01,9.5-.02,14.25a0.786,0.786,0,0,1-.62.74c-2.59,1.11-5.19,2.18-7.77,3.29a0.578,0.578,0,0,1-.9-0.48c-0.03-4.91-.01-9.82-0.03-14.73-0.11-1.81.42-3.86-.74-5.42C1206.89,4988.15,1200.8,4980.08,1194.79,4971.96Zm40.43,7.73a8.534,8.534,0,0,0-1.24,16.3,8.339,8.339,0,0,0,9.39-2.58,8.576,8.576,0,0,0,1.25-8.69A8.439,8.439,0,0,0,1235.22,4979.69Zm0.94,1.88h1.38c0,0.52,0,1.04.01,1.56a2.974,2.974,0,0,1,2.44,2.76c-0.46-.01-0.92-0.01-1.37-0.02a1.864,1.864,0,0,0-3.27-.63,1.215,1.215,0,0,0,.39,1.66c0.71,0.53,1.66.27,2.44,0.63a2.8,2.8,0,0,1,1.51,3.75,3.308,3.308,0,0,1-2.14,1.63c0,0.52,0,1.04-.02,1.56h-1.37v-1.58a3.075,3.075,0,0,1-2.42-2.81c0.45-.01.91,0,1.37,0,0.24,1.53,2.46,1.8,3.27.62a1.256,1.256,0,0,0-.51-1.71c-0.74-.47-1.67-0.21-2.44-0.6a2.806,2.806,0,0,1-1.4-3.75,3.076,3.076,0,0,1,2.13-1.5v-1.57Z" transform="translate(-1194.69 -4957)"/>
</svg>
