<?xml version="1.0" encoding="utf-8"?>
<!-- Generator: Adobe Illustrator 16.0.0, SVG Export Plug-In . SVG Version: 6.00 Build 0)  -->
<!DOCTYPE svg PUBLIC "-//W3C//DTD SVG 1.1//EN" "http://www.w3.org/Graphics/SVG/1.1/DTD/svg11.dtd">
<svg version="1.1" id="Capa_1" xmlns="http://www.w3.org/2000/svg" xmlns:xlink="http://www.w3.org/1999/xlink" x="0px" y="0px"
	 width="240px" height="51px" viewBox="0 0 240 51" enable-background="new 0 0 240 51" xml:space="preserve">
<g>
	<circle fill-rule="evenodd" clip-rule="evenodd" fill="#75348B" cx="46.26" cy="34.482" r="4.129"/>
	<circle fill-rule="evenodd" clip-rule="evenodd" fill="#D4007F" cx="37.818" cy="20.674" r="4.95"/>
	<path fill-rule="evenodd" clip-rule="evenodd" fill="#F3A4B4" d="M36.322,12.739c-1.845-0.916-3.561-1.674-5.128-2.296
		c0.264-0.659,0.775-1.219,1.477-1.528c1.421-0.626,3.081,0.019,3.707,1.439C36.727,11.148,36.679,12.018,36.322,12.739z"/>
	<path fill-rule="evenodd" clip-rule="evenodd" fill="#9DC431" d="M12.602,34.06c1-0.055,2.048-0.098,3.225-0.156
		c0.372-0.026,0.742-0.052,1.109-0.079c-0.164,0.657-0.62,1.235-1.288,1.53c-1.147,0.505-2.488-0.016-2.994-1.163
		C12.636,34.148,12.619,34.104,12.602,34.06z"/>
	<path fill-rule="evenodd" clip-rule="evenodd" fill="#6CB535" d="M34.103,31.973c0.79-0.112,1.587-0.229,2.393-0.351
		c0.948-0.143,1.633-0.268,2.064-0.426c0.239,0.237,0.438,0.522,0.583,0.85c0.617,1.399-0.019,3.036-1.419,3.652
		c-1.4,0.618-3.037-0.017-3.654-1.418C33.732,33.514,33.77,32.677,34.103,31.973z"/>
	<path fill-rule="evenodd" clip-rule="evenodd" fill="#CBADD3" d="M47.144,16.946c2.577,2.454,4.523,4.534,5.454,5.663
		c0.241,0.293,0.595,0.239,1.055,0.087c0.151,2.49-1.235,4.924-3.651,5.987c-3.1,1.366-6.72-0.04-8.086-3.14
		c-1.366-3.101,0.04-6.721,3.14-8.087C45.737,17.157,46.442,16.991,47.144,16.946z"/>
	<path fill-rule="evenodd" clip-rule="evenodd" fill="#00A6C8" d="M69.106,23.637c-1.039,0.437-1.472,0.822-2.447,2.188
		c-0.817,1.143-1.255,1.454-1.781,1.727c-0.487,0.256-0.925,0.418-2.411,1.491c-0.921,0.665-1.618,1.323-2.373,2.124
		c-2.807-0.302-5.38-2.057-6.601-4.826c-0.512-1.162-0.731-2.381-0.689-3.571c0.469,0.208,1.214-0.285,2.208-0.517
		c1.002-0.234,1.302-0.42,2.571-1.483c1.517-1.271,2.928-2.259,5.238-1.757c0.305,0.066,0.647,0.151,1.044,0.252l0.898,0.259
		c1.421,0.411,2.112,1.077,3.425,1.534c0.257,0.09,0.505,0.17,0.749,0.24C69.109,22.078,69.162,22.865,69.106,23.637L69.106,23.637z
		 M63.966,21.408c-0.465,0.205-0.677,0.75-0.472,1.215c0.205,0.466,0.749,0.677,1.215,0.471c0.465-0.205,0.677-0.749,0.471-1.214
		C64.976,21.415,64.432,21.203,63.966,21.408z"/>
	<path fill-rule="evenodd" clip-rule="evenodd" fill="#0081A2" d="M67.794,24.44c-0.338,0.316-0.677,0.742-1.136,1.384
		c-0.817,1.143-1.255,1.454-1.781,1.727c-0.487,0.256-0.925,0.418-2.411,1.491c-0.064,0.046-0.127,0.093-0.189,0.139
		c-1.166-0.352-2.177-1.19-2.706-2.394c-0.961-2.18,0.027-4.728,2.209-5.689c2.181-0.96,4.729,0.028,5.689,2.209
		C67.633,23.679,67.74,24.059,67.794,24.44L67.794,24.44z M63.966,21.408c-0.465,0.205-0.677,0.75-0.472,1.215
		c0.205,0.466,0.749,0.677,1.215,0.471c0.465-0.205,0.677-0.749,0.471-1.214C64.976,21.415,64.432,21.203,63.966,21.408z"/>
	<path fill-rule="evenodd" clip-rule="evenodd" fill="#6BC8E8" d="M54.307,22.463c0.219-0.077,0.454-0.152,0.706-0.21
		c0.526-0.123,0.859-0.233,1.241-0.463c0.229,0.137,0.42,0.345,0.536,0.609c0.299,0.678-0.008,1.469-0.687,1.769
		c-0.678,0.298-1.47-0.009-1.769-0.687C54.186,23.144,54.187,22.781,54.307,22.463z"/>
	<path fill-rule="evenodd" clip-rule="evenodd" fill="#34BBDA" d="M77.435,21.642c-2.682,0.507-5.484,0.875-8.019,1.87
		c-0.131,0.051-0.254,0.101-0.369,0.15c-0.504-0.483-0.926-1.072-1.226-1.752c-0.166-0.376-0.285-0.762-0.362-1.149
		c0.225,0.105,0.464,0.206,0.729,0.298c1.587,0.553,2.805,0.739,4.709,0.5c1.494-0.188,2.982-0.4,4.403-0.576
		C77.877,20.91,78.061,21.523,77.435,21.642z"/>
	<path fill-rule="evenodd" clip-rule="evenodd" fill="#00609C" d="M60.166,31.093c-0.703,0.743-1.449,1.61-2.466,2.726
		c-1.158,1.27-2.291,2.517-3.719,3.482c-1.701,1.149-3.602,2.059-5.527,2.807c-0.234-0.351-0.441-0.728-0.617-1.126
		c-1.649-3.743,0.048-8.114,3.792-9.763C54.653,27.885,58.089,28.74,60.166,31.093z"/>
	<circle fill-rule="evenodd" clip-rule="evenodd" fill="#00B0AD" cx="51.937" cy="28.591" r="3.428"/>
	<circle fill-rule="evenodd" clip-rule="evenodd" fill="#9860A4" cx="42.259" cy="29.224" r="3.459"/>
	<circle fill-rule="evenodd" clip-rule="evenodd" fill="#589126" cx="39.39" cy="35.787" r="2.037"/>
	<circle fill-rule="evenodd" clip-rule="evenodd" fill="#9860A4" cx="43.865" cy="34.239" r="0.938"/>
	<circle fill-rule="evenodd" clip-rule="evenodd" fill="#B08DC0" cx="43.651" cy="39.2" r="0.831"/>
	<circle fill-rule="evenodd" clip-rule="evenodd" fill="#00609C" cx="45.332" cy="43.22" r="0.904"/>
	<circle fill-rule="evenodd" clip-rule="evenodd" fill="#00A6C8" cx="46.491" cy="44.728" r="0.706"/>
	<circle fill-rule="evenodd" clip-rule="evenodd" fill="#0083CB" cx="47.203" cy="45.915" r="0.246"/>
	<circle fill-rule="evenodd" clip-rule="evenodd" fill="#0083CB" cx="45.941" cy="46.095" r="0.247"/>
	<circle fill-rule="evenodd" clip-rule="evenodd" fill="#00609C" cx="47.234" cy="47.099" r="0.422"/>
	<circle fill-rule="evenodd" clip-rule="evenodd" fill="#00609C" cx="44.039" cy="43.224" r="0.671"/>
	<circle fill-rule="evenodd" clip-rule="evenodd" fill="#0083CB" cx="42.863" cy="43.84" r="0.247"/>
	<circle fill-rule="evenodd" clip-rule="evenodd" fill="#B08DC0" cx="44.305" cy="36.648" r="0.479"/>
	<circle fill-rule="evenodd" clip-rule="evenodd" fill="#6BC8E8" cx="53.563" cy="34.4" r="0.743"/>
	<circle fill-rule="evenodd" clip-rule="evenodd" fill="#FFE443" cx="22.364" cy="11.617" r="1.762"/>
	<circle fill-rule="evenodd" clip-rule="evenodd" fill="#E62D36" cx="28.073" cy="13.627" r="3.363"/>
	<circle fill-rule="evenodd" clip-rule="evenodd" fill="#E62D36" cx="23.592" cy="14.763" r="0.937"/>
	<circle fill-rule="evenodd" clip-rule="evenodd" fill="#B80D2F" cx="25.532" cy="17.554" r="0.617"/>
	<circle fill-rule="evenodd" clip-rule="evenodd" fill="#F08BA5" cx="29.328" cy="19.368" r="1.818"/>
	<circle fill-rule="evenodd" clip-rule="evenodd" fill="#B80D2F" cx="31.828" cy="17.182" r="0.616"/>
	<circle fill-rule="evenodd" clip-rule="evenodd" fill="#B80D2F" cx="33.973" cy="14.354" r="1.818"/>
	<circle fill-rule="evenodd" clip-rule="evenodd" fill="#DB3C8E" cx="37.323" cy="14.664" r="0.617"/>
	<circle fill-rule="evenodd" clip-rule="evenodd" fill="#B1026D" cx="33.508" cy="22.35" r="2.424"/>
	<circle fill-rule="evenodd" clip-rule="evenodd" fill="#B1026D" cx="35.176" cy="26.137" r="0.616"/>
	<circle fill-rule="evenodd" clip-rule="evenodd" fill="#EB8BB8" cx="37.105" cy="27.34" r="0.975"/>
	<path fill-rule="evenodd" clip-rule="evenodd" fill="#006DA6" d="M64,28.019c-0.352,0.206-0.822,0.511-1.532,1.024
		c-1.035,0.747-1.787,1.483-2.654,2.428c-0.605-0.298-1.112-0.802-1.405-1.467c-0.662-1.503,0.02-3.26,1.522-3.921
		c1.503-0.663,3.258,0.019,3.922,1.522C63.912,27.741,63.961,27.879,64,28.019z"/>
	<path fill-rule="evenodd" clip-rule="evenodd" fill="#34BBDA" d="M59.975,19.198c0.813-0.321,1.724-0.429,2.846-0.185
		c0.305,0.066,0.647,0.151,1.044,0.252l0.613,0.177c0.204,0.646,0.12,1.327-0.191,1.89c-0.107,0.006-0.216,0.031-0.321,0.077
		c-0.338,0.149-0.542,0.477-0.55,0.823c-0.084,0.05-0.172,0.096-0.264,0.137c-1.217,0.536-2.64-0.016-3.175-1.233
		C59.694,20.493,59.714,19.794,59.975,19.198z"/>
	<path fill-rule="evenodd" clip-rule="evenodd" fill="#589126" d="M30.073,33.888c1.604-0.705,3.476,0.022,4.183,1.625
		c0.103,0.233,0.174,0.472,0.218,0.712c-0.221-0.107-0.435-0.212-0.639-0.305c-0.268-0.123-2.705-0.252-2.705-0.252
		c-0.986,0.1-1.927,0.189-2.833,0.271C28.543,35.057,29.169,34.286,30.073,33.888z"/>
	<circle fill-rule="evenodd" clip-rule="evenodd" fill="#34752D" cx="17.873" cy="35.686" r="0.877"/>
	<circle fill-rule="evenodd" clip-rule="evenodd" fill="#34752D" cx="19.615" cy="34.188" r="0.589"/>
	<circle fill-rule="evenodd" clip-rule="evenodd" fill="#3AAA35" cx="22.818" cy="34.786" r="1.497"/>
	<circle fill-rule="evenodd" clip-rule="evenodd" fill="#A4D09E" cx="26.057" cy="33.716" r="0.781"/>
	<circle fill-rule="evenodd" clip-rule="evenodd" fill="#34752D" cx="27.091" cy="35.447" r="0.71"/>
	<circle fill-rule="evenodd" clip-rule="evenodd" fill="#3AAA35" cx="28.918" cy="33.076" r="0.532"/>
	<circle fill-rule="evenodd" clip-rule="evenodd" fill="#A4D09E" cx="20.522" cy="36.021" r="0.447"/>
	<circle fill-rule="evenodd" clip-rule="evenodd" fill="#9DC431" cx="15.19" cy="36.176" r="0.371"/>
	<circle fill-rule="evenodd" clip-rule="evenodd" fill="#34752D" cx="11.862" cy="35.848" r="0.516"/>
	<circle fill-rule="evenodd" clip-rule="evenodd" fill="#3AAA35" cx="8.619" cy="35.097" r="0.756"/>
	<circle fill-rule="evenodd" clip-rule="evenodd" fill="#3AAA35" cx="5.797" cy="35.69" r="0.568"/>
	<circle fill-rule="evenodd" clip-rule="evenodd" fill="#9DC431" cx="2.658" cy="35.091" r="0.568"/>
	<circle fill-rule="evenodd" clip-rule="evenodd" fill="#3AAA35" cx="4.539" cy="40.626" r="1.012"/>
	<circle fill-rule="evenodd" clip-rule="evenodd" fill="#9DC431" cx="7.898" cy="40.391" r="0.371"/>
	<circle fill-rule="evenodd" clip-rule="evenodd" fill="#9DC431" cx="9.453" cy="38.741" r="0.629"/>
	<circle fill-rule="evenodd" clip-rule="evenodd" fill="#9DC431" cx="13.614" cy="39.07" r="0.827"/>
	<circle fill-rule="evenodd" clip-rule="evenodd" fill="#9DC431" cx="12.088" cy="42.274" r="0.371"/>
	<circle fill-rule="evenodd" clip-rule="evenodd" fill="#34752D" cx="21.167" cy="38.079" r="0.371"/>
	<circle fill-rule="evenodd" clip-rule="evenodd" fill="#34752D" cx="17.8" cy="39.562" r="0.688"/>
	<circle fill-rule="evenodd" clip-rule="evenodd" fill="#EB5D7B" cx="26.227" cy="11.254" r="1.605"/>
	<circle fill-rule="evenodd" clip-rule="evenodd" fill="#FBBA00" cx="19.772" cy="2.199" r="1.414"/>
	<path fill-rule="evenodd" clip-rule="evenodd" fill="#F18987" d="M24.98,7.71c0.915-0.403,1.982,0.012,2.385,0.926
		c0.068,0.153,0.112,0.311,0.135,0.469c-1.455-0.451-2.581-0.669-3.308-0.726C24.378,8.094,24.646,7.857,24.98,7.71z"/>
	<circle fill-rule="evenodd" clip-rule="evenodd" fill="#FBBA00" cx="30.23" cy="5.989" r="1.818"/>
	<circle fill-rule="evenodd" clip-rule="evenodd" fill="#E62D36" cx="29.496" cy="8.788" r="0.616"/>
	<circle fill-rule="evenodd" clip-rule="evenodd" fill="#E62D36" cx="33.958" cy="7.223" r="0.616"/>
	<circle fill-rule="evenodd" clip-rule="evenodd" fill="#F18987" cx="26.657" cy="5.461" r="0.616"/>
	<circle fill-rule="evenodd" clip-rule="evenodd" fill="#FFE443" cx="24.448" cy="2.288" r="1.004"/>
	<circle fill-rule="evenodd" clip-rule="evenodd" fill="#F18987" cx="24.033" cy="5.458" r="0.869"/>
	<circle fill-rule="evenodd" clip-rule="evenodd" fill="#F59D0F" cx="22.264" cy="3.146" r="0.462"/>
	<circle fill-rule="evenodd" clip-rule="evenodd" fill="#FFE443" cx="22.29" cy="1.178" r="0.462"/>
	<circle fill-rule="evenodd" clip-rule="evenodd" fill="#F59D0F" cx="27.303" cy="3.187" r="0.65"/>
	<circle fill-rule="evenodd" clip-rule="evenodd" fill="#E62D36" cx="36.94" cy="9.159" r="0.65"/>
	<circle fill-rule="evenodd" clip-rule="evenodd" fill="#EB8BB8" cx="39.231" cy="11.75" r="1.294"/>
	<circle fill-rule="evenodd" clip-rule="evenodd" fill="#DB3C8E" cx="42.017" cy="13.269" r="0.613"/>
	<circle fill-rule="evenodd" clip-rule="evenodd" fill="#B1026D" cx="43.895" cy="15.11" r="0.83"/>
	<circle fill-rule="evenodd" clip-rule="evenodd" fill="#0083CB" cx="44.064" cy="41.328" r="0.246"/>
	<path fill-rule="evenodd" clip-rule="evenodd" fill="#00A6C8" d="M50.684,39.153c-1.401,0.662-2.854,1.216-4.285,1.695
		l-0.398,0.132c-0.491,0.166-0.667,0.4-0.66,0.688c-0.022-0.044-0.042-0.088-0.062-0.132c-0.657-1.492,0.019-3.234,1.512-3.892
		C48.283,36.986,50.025,37.663,50.684,39.153z"/>
	<circle fill-rule="evenodd" clip-rule="evenodd" fill="#9860A4" cx="41.922" cy="37.689" r="0.41"/>
	<circle fill-rule="evenodd" clip-rule="evenodd" fill="#9860A4" cx="46.521" cy="22.317" r="2.898"/>
	<circle fill-rule="evenodd" clip-rule="evenodd" fill="#B08DC0" cx="46.693" cy="25.681" r="1.334"/>
	<circle fill-rule="evenodd" clip-rule="evenodd" fill="#D1B6D9" cx="39.933" cy="26.74" r="1.127"/>
	<circle fill-rule="evenodd" clip-rule="evenodd" fill="#B08DC0" cx="41.919" cy="31.165" r="0.504"/>
	<circle fill-rule="evenodd" clip-rule="evenodd" fill="#00A6C8" cx="48.471" cy="33.039" r="1.909"/>
	<circle fill-rule="evenodd" clip-rule="evenodd" fill="#8DCDC4" cx="51.156" cy="27.376" r="0.743"/>
</g>
<g>
	<path fill="#FFFFFF" d="M87.538,28.128V16.097c1.68-0.834,3.423-1.252,5.23-1.252c1.429,0,2.577,0.357,3.444,1.073
		c1.679-0.715,3.293-1.073,4.845-1.073c1.586,0,2.815,0.417,3.689,1.252s1.311,2.009,1.311,3.525v8.506h-1.89v-8.506
		c0-0.366-0.034-0.692-0.102-0.977c-0.068-0.285-0.206-0.589-0.415-0.913c-0.208-0.324-0.544-0.573-1.007-0.748
		c-0.463-0.174-1.035-0.262-1.714-0.262c-1.098,0-2.301,0.217-3.611,0.651c0.283,0.63,0.424,1.379,0.424,2.248v8.506h-1.89v-8.506
		c0-0.383-0.036-0.717-0.108-1.002s-0.212-0.585-0.42-0.9c-0.208-0.315-0.551-0.56-1.026-0.735
		c-0.476-0.174-1.062-0.262-1.759-0.262c-1.063,0-2.099,0.158-3.11,0.473v10.933H87.538z"/>
	<path fill="#FFFFFF" d="M110.081,12.776v-2.095h2.095v2.095H110.081z M110.184,28.128h1.89V15.075h-1.89V28.128z"/>
	<path fill="#FFFFFF" d="M116.212,28.128V16.122c1.713-0.852,3.555-1.277,5.524-1.277c1.641,0,2.914,0.417,3.82,1.252
		c0.904,0.834,1.357,2.009,1.357,3.525v8.506h-1.889v-8.506c0-0.366-0.039-0.692-0.115-0.977s-0.227-0.589-0.447-0.913
		s-0.578-0.573-1.07-0.748c-0.492-0.174-1.113-0.262-1.861-0.262c-1.096,0-2.239,0.175-3.429,0.524v10.882H116.212z"/>
	<path fill="#FFFFFF" d="M130.197,21.435c0-1.294,0.176-2.395,0.525-3.301c0.35-0.907,0.832-1.586,1.451-2.037
		c0.617-0.452,1.246-0.769,1.885-0.952s1.342-0.275,2.109-0.275c1.148,0,2.227,0.166,3.238,0.499v-5.262h1.891v14.126
		c0,0.349-0.051,0.707-0.152,1.073c-0.104,0.366-0.316,0.803-0.641,1.309c-0.324,0.507-0.879,0.92-1.662,1.239
		c-0.785,0.319-1.752,0.479-2.902,0.479c-0.486,0-0.961-0.042-1.426-0.128c-0.465-0.085-0.969-0.276-1.51-0.574
		s-1.008-0.686-1.4-1.162c-0.391-0.477-0.725-1.147-0.996-2.012C130.334,23.592,130.197,22.585,130.197,21.435z M132.088,21.435
		c0,1.099,0.119,2.018,0.357,2.759c0.238,0.741,0.564,1.273,0.982,1.596c0.416,0.324,0.814,0.541,1.197,0.652
		c0.383,0.11,0.82,0.166,1.314,0.166c2.311,0,3.467-0.767,3.467-2.299v-7.063c-1.063-0.435-2.143-0.651-3.238-0.651
		c-1.428,0-2.465,0.383-3.111,1.149C132.41,18.51,132.088,19.741,132.088,21.435z"/>
	<path fill="#FFFFFF" d="M146.559,28.128v-2.095h1.891v2.095H146.559z"/>
	<path fill="#FFFFFF" d="M152.779,21.576c0-1.326,0.184-2.454,0.553-3.385c0.369-0.93,0.867-1.625,1.494-2.084
		s1.27-0.784,1.926-0.975c0.654-0.191,1.375-0.287,2.158-0.287c1.311,0,2.602,0.243,3.869,0.728v1.775
		c-1.184-0.485-2.404-0.728-3.666-0.728c-1.549,0-2.678,0.393-3.383,1.178c-0.707,0.785-1.061,2.044-1.061,3.777
		c0,1.759,0.354,3.029,1.061,3.81c0.705,0.781,1.834,1.171,3.383,1.171c1.313,0,2.533-0.251,3.666-0.753v1.826
		c-1.217,0.469-2.508,0.702-3.869,0.702c-0.613,0-1.186-0.051-1.719-0.153c-0.531-0.103-1.076-0.307-1.635-0.614
		c-0.557-0.307-1.033-0.701-1.428-1.184c-0.395-0.481-0.717-1.132-0.971-1.952C152.906,23.61,152.779,22.659,152.779,21.576z"/>
	<path fill="#FFFFFF" d="M165.117,24.118c0-0.587,0.107-1.113,0.326-1.578c0.217-0.465,0.482-0.842,0.797-1.131
		s0.715-0.536,1.201-0.742c0.484-0.206,0.916-0.356,1.289-0.453c0.375-0.096,0.82-0.17,1.336-0.22s0.881-0.08,1.098-0.088
		c0.217-0.009,0.475-0.013,0.773-0.013l2.094,0.125c0-1.185-0.32-2.03-0.963-2.536c-0.641-0.506-1.59-0.759-2.848-0.759
		c-1.414,0-2.686,0.209-3.818,0.626v-1.827c1.285-0.451,2.592-0.677,3.92-0.677c1.828,0,3.223,0.462,4.184,1.386
		c0.961,0.924,1.441,2.276,1.441,4.055v3.921c0,0.834-0.193,1.548-0.58,2.14s-0.885,1.02-1.492,1.283
		c-0.609,0.264-1.178,0.447-1.711,0.549c-0.531,0.103-1.057,0.153-1.574,0.153c-0.4,0-0.813-0.025-1.234-0.076
		c-0.422-0.052-0.898-0.169-1.432-0.353s-0.996-0.419-1.389-0.705c-0.391-0.286-0.727-0.695-1.002-1.229
		C165.256,25.435,165.117,24.818,165.117,24.118z M167.008,24.118c0,1.626,1.182,2.439,3.543,2.439c0.01,0,0.021,0,0.039,0
		c2.311,0,3.467-0.788,3.467-2.363v-2.503c-0.578-0.103-1.352-0.153-2.32-0.153C168.584,21.538,167.008,22.397,167.008,24.118z"/>
	<path fill="#FFFFFF" d="M179.332,32.969V18.97c0-0.349,0.055-0.707,0.16-1.073c0.107-0.366,0.32-0.807,0.641-1.322
		c0.318-0.515,0.873-0.932,1.662-1.251s1.758-0.479,2.908-0.479c0.486,0,0.961,0.042,1.426,0.127s0.969,0.276,1.51,0.574
		s1.008,0.688,1.4,1.173c0.391,0.484,0.721,1.158,0.99,2.021c0.268,0.863,0.402,1.868,0.402,3.015c0,1.297-0.174,2.399-0.523,3.308
		c-0.35,0.909-0.834,1.589-1.451,2.041c-0.619,0.452-1.246,0.771-1.887,0.953c-0.639,0.184-1.342,0.275-2.109,0.275
		c-1.063,0-2.141-0.168-3.238-0.505v5.142H179.332z M181.223,25.907c0.994,0.434,2.074,0.649,3.238,0.649
		c1.428,0,2.465-0.378,3.111-1.133c0.646-0.756,0.969-1.988,0.969-3.695c0-1.096-0.117-2.008-0.35-2.739
		c-0.234-0.73-0.563-1.261-0.982-1.592c-0.42-0.332-0.822-0.552-1.205-0.663s-0.816-0.166-1.301-0.166
		c-2.311,0-3.473,0.773-3.48,2.319V25.907z"/>
	<path fill="#FFFFFF" d="M193.777,12.776v-2.095h2.096v2.095H193.777z M193.881,28.128h1.891V15.075h-1.891V28.128z"/>
	<path fill="#FFFFFF" d="M198.58,16.799v-1.724h2.273v-3.691h1.891v3.691h3.371v1.724h-3.371v7.957c0,0.665,0.139,1.13,0.416,1.398
		c0.275,0.269,0.764,0.402,1.461,0.402c0.537,0,1.035-0.102,1.494-0.307v1.775c-0.553,0.205-1.105,0.307-1.66,0.307
		c-0.025,0-0.047,0-0.063,0c-0.35,0-0.691-0.038-1.023-0.114c-0.332-0.077-0.705-0.229-1.123-0.454s-0.754-0.604-1.01-1.137
		c-0.254-0.532-0.383-1.189-0.383-1.973v-7.855H198.58z"/>
	<path fill="#FFFFFF" d="M208.389,24.118c0-0.587,0.109-1.113,0.326-1.578c0.217-0.465,0.482-0.842,0.799-1.131
		c0.314-0.289,0.715-0.536,1.199-0.742c0.486-0.206,0.916-0.356,1.291-0.453s0.818-0.17,1.334-0.22s0.883-0.08,1.1-0.088
		c0.217-0.009,0.475-0.013,0.771-0.013l2.096,0.125c0-1.185-0.322-2.03-0.963-2.536c-0.643-0.506-1.592-0.759-2.85-0.759
		c-1.412,0-2.686,0.209-3.816,0.626v-1.827c1.285-0.451,2.592-0.677,3.918-0.677c1.828,0,3.223,0.462,4.186,1.386
		c0.961,0.924,1.441,2.276,1.441,4.055v3.921c0,0.834-0.193,1.548-0.582,2.14c-0.387,0.592-0.883,1.02-1.492,1.283
		c-0.607,0.264-1.178,0.447-1.709,0.549c-0.531,0.103-1.057,0.153-1.576,0.153c-0.4,0-0.811-0.025-1.232-0.076
		c-0.424-0.052-0.9-0.169-1.434-0.353s-0.994-0.419-1.387-0.705s-0.727-0.695-1.004-1.229
		C208.527,25.435,208.389,24.818,208.389,24.118z M210.279,24.118c0,1.626,1.182,2.439,3.545,2.439c0.008,0,0.021,0,0.037,0
		c2.313,0,3.469-0.788,3.469-2.363v-2.503c-0.578-0.103-1.352-0.153-2.32-0.153C211.855,21.538,210.279,22.397,210.279,24.118z"/>
	<path fill="#FFFFFF" d="M222.924,28.128V10.106h1.891v18.021H222.924z"/>
</g>
<g>
	<path fill="#FFFFFF" d="M87.663,41.768v-5.536h1.97c0.619,0,1.093,0.146,1.422,0.437s0.494,0.714,0.494,1.27
		s-0.165,0.981-0.494,1.276s-0.804,0.442-1.422,0.442h-1.37v2.111H87.663z M88.262,39.076h1.293c0.294,0,0.54-0.031,0.735-0.095
		c0.196-0.064,0.338-0.157,0.428-0.279s0.15-0.241,0.182-0.357c0.033-0.117,0.049-0.252,0.049-0.407c0-0.154-0.016-0.29-0.049-0.406
		c-0.032-0.117-0.093-0.236-0.182-0.36c-0.089-0.123-0.232-0.217-0.428-0.28s-0.441-0.096-0.735-0.096h-1.293V39.076z"/>
	<path fill="#FFFFFF" d="M91.719,41.768l2.208-5.536h0.596l2.201,5.536h-0.64l-0.665-1.734h-2.387l-0.665,1.734H91.719z
		 M93.255,39.47h1.941l-0.968-2.533L93.255,39.47z"/>
	<path fill="#FFFFFF" d="M97.462,37.698c0-0.427,0.155-0.79,0.464-1.09s0.792-0.45,1.446-0.45c0.47,0,0.932,0.109,1.386,0.329v0.615
		c-0.411-0.232-0.854-0.349-1.329-0.349c-0.442,0-0.781,0.081-1.016,0.243c-0.235,0.162-0.352,0.396-0.352,0.701
		c0,0.189,0.076,0.348,0.229,0.475s0.34,0.221,0.564,0.281c0.224,0.062,0.469,0.139,0.735,0.233
		c0.267,0.095,0.511,0.197,0.734,0.308c0.223,0.111,0.411,0.283,0.564,0.515c0.153,0.232,0.229,0.516,0.229,0.848
		c0,0.459-0.173,0.82-0.519,1.082s-0.829,0.393-1.448,0.393c-0.603,0-1.15-0.129-1.639-0.389v-0.648
		c0.438,0.295,0.97,0.441,1.595,0.441c0.938,0,1.409-0.293,1.412-0.879c0-0.249-0.076-0.457-0.229-0.626
		c-0.153-0.169-0.341-0.293-0.564-0.371l-0.732-0.243c-0.265-0.087-0.509-0.175-0.734-0.264c-0.225-0.089-0.414-0.231-0.567-0.428
		C97.539,38.23,97.462,37.987,97.462,37.698z"/>
	<path fill="#FFFFFF" d="M102.03,37.698c0-0.427,0.155-0.79,0.464-1.09s0.792-0.45,1.446-0.45c0.47,0,0.932,0.109,1.386,0.329v0.615
		c-0.411-0.232-0.854-0.349-1.329-0.349c-0.442,0-0.781,0.081-1.016,0.243c-0.235,0.162-0.352,0.396-0.352,0.701
		c0,0.189,0.076,0.348,0.229,0.475s0.34,0.221,0.564,0.281c0.224,0.062,0.469,0.139,0.735,0.233
		c0.267,0.095,0.511,0.197,0.734,0.308c0.223,0.111,0.411,0.283,0.564,0.515c0.153,0.232,0.229,0.516,0.229,0.848
		c0,0.459-0.173,0.82-0.519,1.082s-0.829,0.393-1.448,0.393c-0.603,0-1.15-0.129-1.639-0.389v-0.648
		c0.438,0.295,0.97,0.441,1.595,0.441c0.938,0,1.409-0.293,1.412-0.879c0-0.249-0.076-0.457-0.229-0.626
		c-0.153-0.169-0.341-0.293-0.564-0.371l-0.732-0.243c-0.265-0.087-0.509-0.175-0.734-0.264c-0.225-0.089-0.414-0.231-0.567-0.428
		C102.106,38.23,102.03,37.987,102.03,37.698z"/>
	<path fill="#FFFFFF" d="M106.905,41.768v-5.536h0.6v5.536H106.905z"/>
	<path fill="#FFFFFF" d="M108.696,38.995c0-1.891,0.855-2.837,2.567-2.837c1.714,0,2.571,0.946,2.571,2.837
		c0,1.892-0.857,2.837-2.571,2.837C109.552,41.832,108.696,40.887,108.696,38.995z M109.77,37.27
		c-0.316,0.364-0.474,0.939-0.474,1.726s0.158,1.362,0.474,1.727c0.316,0.365,0.814,0.548,1.494,0.548
		c0.686,0,1.185-0.183,1.5-0.548c0.314-0.364,0.472-0.94,0.472-1.727s-0.158-1.361-0.472-1.726c-0.314-0.365-0.814-0.548-1.5-0.548
		C110.583,36.722,110.085,36.904,109.77,37.27z"/>
	<path fill="#FFFFFF" d="M114.998,41.768v-5.536h0.681l3.303,4.665v-4.665h0.6v5.536h-0.673l-3.311-4.665v4.665H114.998z"/>
	<path fill="#FFFFFF" d="M123.842,41.768v-5.536h3.395v0.563h-2.795v1.913h2.455v0.579h-2.455v2.48H123.842z"/>
	<path fill="#FFFFFF" d="M128,38.995c0-1.891,0.855-2.837,2.566-2.837c1.715,0,2.572,0.946,2.572,2.837
		c0,1.892-0.857,2.837-2.572,2.837C128.855,41.832,128,40.887,128,38.995z M129.072,37.27c-0.314,0.364-0.473,0.939-0.473,1.726
		s0.158,1.362,0.473,1.727c0.316,0.365,0.814,0.548,1.494,0.548c0.686,0,1.186-0.183,1.5-0.548c0.314-0.364,0.473-0.94,0.473-1.727
		s-0.158-1.361-0.473-1.726c-0.314-0.365-0.814-0.548-1.5-0.548C129.887,36.722,129.389,36.904,129.072,37.27z"/>
	<path fill="#FFFFFF" d="M134.33,41.768v-5.536h2.033c0.604,0,1.066,0.138,1.391,0.411c0.324,0.274,0.486,0.674,0.486,1.198
		c0,0.237-0.037,0.453-0.113,0.648c-0.076,0.194-0.162,0.346-0.258,0.453c-0.096,0.108-0.209,0.202-0.342,0.282
		s-0.24,0.132-0.324,0.158c-0.084,0.025-0.162,0.046-0.236,0.063l1.521,2.322h-0.707l-1.441-2.233h-1.41v2.233H134.33z
		 M134.93,38.971h1.402c0.275,0,0.506-0.031,0.689-0.095c0.186-0.063,0.32-0.152,0.404-0.266s0.141-0.226,0.17-0.336
		c0.029-0.111,0.045-0.241,0.045-0.392c0-0.149-0.016-0.28-0.045-0.391c-0.029-0.111-0.086-0.223-0.17-0.337
		c-0.084-0.113-0.219-0.201-0.404-0.266c-0.184-0.063-0.414-0.095-0.689-0.095h-1.402V38.971z"/>
	<path fill="#FFFFFF" d="M142.07,38.995c0-1.891,0.857-2.837,2.57-2.837c0.592,0,1.152,0.107,1.686,0.32v0.576
		c-0.527-0.222-1.068-0.333-1.621-0.333c-0.703,0-1.217,0.183-1.545,0.548c-0.326,0.364-0.49,0.939-0.49,1.726
		s0.164,1.362,0.49,1.727c0.328,0.365,0.842,0.548,1.545,0.548c0.564,0,1.105-0.108,1.621-0.324v0.575
		c-0.529,0.208-1.086,0.312-1.666,0.312c-0.008,0-0.016,0-0.02,0C142.928,41.832,142.07,40.887,142.07,38.995z"/>
	<path fill="#FFFFFF" d="M147.441,41.768v-5.536h2.033c0.604,0,1.066,0.138,1.391,0.411c0.324,0.274,0.486,0.674,0.486,1.198
		c0,0.237-0.037,0.453-0.113,0.648c-0.076,0.194-0.162,0.346-0.258,0.453c-0.096,0.108-0.209,0.202-0.342,0.282
		s-0.24,0.132-0.324,0.158c-0.084,0.025-0.162,0.046-0.236,0.063l1.521,2.322h-0.707l-1.441-2.233h-1.41v2.233H147.441z
		 M148.041,38.971h1.402c0.275,0,0.506-0.031,0.689-0.095c0.186-0.063,0.32-0.152,0.404-0.266s0.141-0.226,0.17-0.336
		c0.029-0.111,0.045-0.241,0.045-0.392c0-0.149-0.016-0.28-0.045-0.391c-0.029-0.111-0.086-0.223-0.17-0.337
		c-0.084-0.113-0.219-0.201-0.404-0.266c-0.184-0.063-0.414-0.095-0.689-0.095h-1.402V38.971z"/>
	<path fill="#FFFFFF" d="M151.861,36.231h0.721l1.645,2.415l1.639-2.415h0.723l-2.061,2.995v2.541h-0.6v-2.541L151.861,36.231z"/>
	<path fill="#FFFFFF" d="M157.434,41.768v-5.536h1.971c0.619,0,1.092,0.146,1.422,0.437s0.494,0.714,0.494,1.27
		s-0.164,0.981-0.494,1.276s-0.803,0.442-1.422,0.442h-1.369v2.111H157.434z M158.035,39.076h1.291c0.295,0,0.541-0.031,0.736-0.095
		c0.195-0.064,0.338-0.157,0.428-0.279s0.15-0.241,0.182-0.357c0.033-0.117,0.049-0.252,0.049-0.407c0-0.154-0.016-0.29-0.049-0.406
		c-0.031-0.117-0.092-0.236-0.182-0.36c-0.09-0.123-0.232-0.217-0.428-0.28s-0.441-0.096-0.736-0.096h-1.291V39.076z"/>
	<path fill="#FFFFFF" d="M161.771,36.812v-0.58h4.502v0.58h-1.949v4.956h-0.6v-4.956H161.771z"/>
	<path fill="#FFFFFF" d="M166.711,38.995c0-1.891,0.855-2.837,2.568-2.837s2.57,0.946,2.57,2.837c0,1.892-0.857,2.837-2.57,2.837
		S166.711,40.887,166.711,38.995z M167.785,37.27c-0.316,0.364-0.475,0.939-0.475,1.726s0.158,1.362,0.475,1.727
		c0.314,0.365,0.813,0.548,1.494,0.548c0.686,0,1.186-0.183,1.5-0.548c0.314-0.364,0.471-0.94,0.471-1.727s-0.156-1.361-0.471-1.726
		c-0.314-0.365-0.814-0.548-1.5-0.548C168.598,36.722,168.1,36.904,167.785,37.27z"/>
	<path fill="#FFFFFF" d="M175.928,41.768v-5.536h0.6v5.536H175.928z"/>
	<path fill="#FFFFFF" d="M177.926,41.768v-5.536h0.68l3.303,4.665v-4.665h0.6v5.536h-0.672l-3.311-4.665v4.665H177.926z"/>
	<path fill="#FFFFFF" d="M183.385,36.231h0.635l1.787,4.681l1.775-4.681h0.641l-2.127,5.536h-0.588L183.385,36.231z"/>
	<path fill="#FFFFFF" d="M189.107,41.768v-5.536h3.492v0.563h-2.893v1.913h2.545v0.579h-2.545v1.917h2.893v0.563H189.107z"/>
	<path fill="#FFFFFF" d="M193.564,37.698c0-0.427,0.154-0.79,0.465-1.09c0.309-0.3,0.791-0.45,1.445-0.45
		c0.471,0,0.934,0.109,1.387,0.329v0.615c-0.41-0.232-0.854-0.349-1.33-0.349c-0.441,0-0.779,0.081-1.016,0.243
		c-0.234,0.162-0.352,0.396-0.352,0.701c0,0.189,0.076,0.348,0.229,0.475s0.342,0.221,0.564,0.281
		c0.225,0.062,0.469,0.139,0.736,0.233c0.266,0.095,0.51,0.197,0.734,0.308c0.223,0.111,0.41,0.283,0.563,0.515
		c0.154,0.232,0.23,0.516,0.23,0.848c0,0.459-0.174,0.82-0.52,1.082s-0.828,0.393-1.449,0.393c-0.602,0-1.148-0.129-1.639-0.389
		v-0.648c0.439,0.295,0.971,0.441,1.596,0.441c0.938,0,1.408-0.293,1.412-0.879c0-0.249-0.076-0.457-0.229-0.626
		s-0.342-0.293-0.564-0.371l-0.732-0.243c-0.266-0.087-0.51-0.175-0.734-0.264s-0.414-0.231-0.566-0.428
		C193.641,38.23,193.564,37.987,193.564,37.698z"/>
	<path fill="#FFFFFF" d="M197.775,36.812v-0.58h4.502v0.58h-1.949v4.956h-0.6v-4.956H197.775z"/>
	<path fill="#FFFFFF" d="M203.105,41.768v-5.536h0.648l1.9,2.813l1.908-2.813h0.648v5.536h-0.6v-4.556l-1.957,2.821l-1.949-2.821
		v4.556H203.105z"/>
	<path fill="#FFFFFF" d="M209.609,41.768v-5.536h3.494v0.563h-2.895v1.913h2.545v0.579h-2.545v1.917h2.895v0.563H209.609z"/>
	<path fill="#FFFFFF" d="M214.234,41.768v-5.536h0.68l3.303,4.665v-4.665h0.6v5.536h-0.672l-3.311-4.665v4.665H214.234z"/>
	<path fill="#FFFFFF" d="M219.807,36.812v-0.58h4.502v0.58h-1.949v4.956h-0.6v-4.956H219.807z"/>
</g>
<g>
</g>
<g>
</g>
<g>
</g>
<g>
</g>
<g>
</g>
<g>
</g>
</svg>
