<?xml version="1.0" encoding="UTF-8" standalone="no"?>
<!-- Created with Inkscape (http://www.inkscape.org/) -->

<svg
   xmlns:dc="http://purl.org/dc/elements/1.1/"
   xmlns:cc="http://creativecommons.org/ns#"
   xmlns:rdf="http://www.w3.org/1999/02/22-rdf-syntax-ns#"
   xmlns:svg="http://www.w3.org/2000/svg"
   xmlns="http://www.w3.org/2000/svg"
   xmlns:sodipodi="http://sodipodi.sourceforge.net/DTD/sodipodi-0.dtd"
   xmlns:inkscape="http://www.inkscape.org/namespaces/inkscape"
   width="210mm"
   height="297mm"
   viewBox="0 0 210 297"
   version="1.1"
   id="svg8"
   inkscape:version="0.92.4 (5da689c313, 2019-01-14)"
   sodipodi:docname="Grey.svg">
  <defs
     id="defs2" />
  <sodipodi:namedview
     id="base"
     pagecolor="#ffffff"
     bordercolor="#666666"
     borderopacity="1.0"
     inkscape:pageopacity="0.0"
     inkscape:pageshadow="2"
     inkscape:zoom="0.35"
     inkscape:cx="-75.714286"
     inkscape:cy="560"
     inkscape:document-units="mm"
     inkscape:current-layer="layer1"
     showgrid="false"
     inkscape:window-width="1920"
     inkscape:window-height="1027"
     inkscape:window-x="-8"
     inkscape:window-y="-8"
     inkscape:window-maximized="1" />
  <metadata
     id="metadata5">
    <rdf:RDF>
      <cc:Work
         rdf:about="">
        <dc:format>image/svg+xml</dc:format>
        <dc:type
           rdf:resource="http://purl.org/dc/dcmitype/StillImage" />
        <dc:title></dc:title>
      </cc:Work>
    </rdf:RDF>
  </metadata>
  <g
     inkscape:label="Layer 1"
     inkscape:groupmode="layer"
     id="layer1">
    <path
       style="fill:#999999;stroke-width:0.54155165"
       d="m 35.72021,231.87989 c -1.68321,-0.87666 -3.810068,-2.5187 -4.72635,-3.64898 l -1.665969,-2.05509 v -26.46104 c 0,-14.55358 -0.168775,-30.96419 -0.375055,-36.46803 l -0.375054,-10.00695 -8.355731,-0.37326 c -4.595653,-0.20529 -9.002844,-0.59155 -9.793759,-0.85838 -5.4315249,-1.8324 -8.5062901,-9.26212 -6.0272387,-14.56395 1.1544471,-2.46895 92.5339307,-84.149226 95.4790027,-85.344654 2.730574,-1.108364 8.032044,-1.0952 10.711764,0.0266 1.18235,0.494963 8.75423,6.763407 17.41702,14.418835 8.42893,7.44876 15.43875,13.44184 15.57737,13.31796 0.13864,-0.12388 0.50614,-2.44438 0.81667,-5.15668 0.60757,-5.3067 1.34937,-7.06449 3.89195,-9.22263 2.46648,-2.09352 5.40031,-2.9611 10.34478,-3.05909 l 4.45831,-0.0884 -3.72379,-0.335211 c -2.89838,-0.260909 -2.073,-0.336968 3.72379,-0.343143 4.61468,-0.0049 6.358,0.113683 4.58313,0.311787 -2.81576,0.314287 -2.78959,0.323937 1.53934,0.567807 5.67059,0.31944 8.60024,1.96233 10.9109,6.1186 l 1.56532,2.8156 0.3759,21.75688 0.37591,21.756889 11.25599,10.23854 c 6.19079,5.63119 11.69783,11.07963 12.23783,12.10764 2.13599,4.06626 0.89876,9.66394 -2.83271,12.81622 -2.42653,2.04989 -3.9524,2.38261 -12.70123,2.76957 l -7.98911,0.35335 -0.39207,17.4601 c -0.21565,9.60305 -0.30921,25.811 -0.20794,36.01766 0.10129,10.20665 0.008,18.55745 -0.20691,18.55735 -0.2151,-1.2e-4 -0.5601,0.47565 -0.76667,1.05725 -0.58661,1.65156 -3.67775,4.53737 -5.98865,5.59083 -1.88454,0.85913 -4.21502,0.9946 -22.82666,1.32704 l -20.72782,0.37023 -0.0126,-29.8971 c -0.0118,-28.05099 -0.0784,-30.02356 -1.07749,-31.94483 -1.23786,-2.38027 -4.81106,-5.59518 -7.05862,-6.35082 -0.93685,-0.31499 -8.38848,-0.52625 -18.64638,-0.52866 l -17.08595,-0.004 -2.995326,2.34141 c -3.183995,2.48888 -4.96623,4.93784 -4.456816,6.12408 0.170475,0.39701 0.06023,0.72177 -0.244968,0.72177 -0.351577,0 -0.554914,10.8799 -0.554914,29.69174 v 29.69176 l -20.194406,-0.0113 -20.194404,-0.0113 -3.060382,-1.59393 z"
       id="path23"
       inkscape:connector-curvature="0" />
  </g>
</svg>
